# https://github.com/mikedh/trimesh

o laser.obj
v -0.03192900 -0.01433600 0.00800000
v -0.03300400 -0.01165000 -0.01050000
v -0.03063600 -0.01692400 -0.01050000
v -0.02743300 -0.02173600 -0.01050000
v -0.02913400 -0.01939600 0.00800000
v -0.03063600 -0.01692400 0.00800000
v -0.02348100 -0.02595400 -0.01050000
v -0.02554400 -0.02392700 0.00800000
v -0.02743300 -0.02173600 0.00800000
v -0.01888900 -0.02946500 -0.01050000
v -0.02125800 -0.02780500 0.00800000
v -0.02348100 -0.02595400 0.00800000
v -0.01378100 -0.03217300 -0.01050000
v -0.01639100 -0.03092500 0.00800000
v -0.01888900 -0.02946500 0.00800000
v -0.00829800 -0.03400200 -0.01050000
v -0.01107800 -0.03320100 0.00800000
v -0.01378100 -0.03217300 0.00800000
v -0.00258800 -0.03490400 -0.01050000
v -0.00546200 -0.03457100 0.00800000
v -0.00829800 -0.03400200 0.00800000
v 0.00319200 -0.03485400 -0.01050000
v 0.00030300 -0.03499900 0.00800000
v -0.00258800 -0.03490400 0.00800000
v 0.00888500 -0.03385300 -0.01050000
v 0.00605900 -0.03447200 0.00800000
v 0.00319200 -0.03485400 0.00800000
v 0.01433600 -0.03192900 -0.01050000
v 0.01165000 -0.03300400 0.00800000
v 0.00888500 -0.03385300 0.00800000
v 0.01939600 -0.02913400 -0.01050000
v 0.01692400 -0.03063600 0.00800000
v 0.01433600 -0.03192900 0.00800000
v 0.02392700 -0.02554400 -0.01050000
v 0.02173600 -0.02743300 0.00800000
v 0.01939600 -0.02913400 0.00800000
v 0.02780500 -0.02125800 -0.01050000
v 0.02595400 -0.02348100 0.00800000
v 0.02392700 -0.02554400 0.00800000
v 0.03092500 -0.01639100 -0.01050000
v 0.02946500 -0.01888900 0.00800000
v 0.02780500 -0.02125800 0.00800000
v 0.03320100 -0.01107800 -0.01050000
v 0.03217300 -0.01378100 0.00800000
v 0.03092500 -0.01639100 0.00800000
v 0.03457100 -0.00546200 -0.01050000
v 0.03400200 -0.00829800 0.00800000
v 0.03320100 -0.01107800 0.00800000
v 0.03499900 0.00030300 -0.01050000
v 0.03490400 -0.00258800 0.00800000
v 0.03457100 -0.00546200 0.00800000
v 0.03447200 0.00605900 -0.01050000
v 0.03485400 0.00319200 0.00800000
v 0.03499900 0.00030300 0.00800000
v 0.03300400 0.01165000 -0.01050000
v 0.03385300 0.00888500 0.00800000
v 0.03447200 0.00605900 0.00800000
v 0.03063600 0.01692400 -0.01050000
v 0.03192900 0.01433600 0.00800000
v 0.03300400 0.01165000 0.00800000
v 0.02743300 0.02173600 -0.01050000
v 0.02913400 0.01939600 0.00800000
v 0.03063600 0.01692400 0.00800000
v 0.02348100 0.02595400 -0.01050000
v 0.02554400 0.02392700 0.00800000
v 0.02743300 0.02173600 0.00800000
v 0.01888900 0.02946500 -0.01050000
v 0.02125800 0.02780500 0.00800000
v 0.02348100 0.02595400 0.00800000
v 0.01378100 0.03217300 -0.01050000
v 0.01639100 0.03092500 0.00800000
v 0.01888900 0.02946500 0.00800000
v 0.00829800 0.03400200 -0.01050000
v 0.01107800 0.03320100 0.00800000
v 0.01378100 0.03217300 0.00800000
v 0.00258800 0.03490400 -0.01050000
v 0.00546200 0.03457100 0.00800000
v 0.00829800 0.03400200 0.00800000
v -0.00319200 0.03485400 -0.01050000
v -0.00030300 0.03499900 0.00800000
v 0.00258800 0.03490400 0.00800000
v -0.00888500 0.03385300 -0.01050000
v -0.00605900 0.03447200 0.00800000
v -0.00319200 0.03485400 0.00800000
v -0.01433600 0.03192900 -0.01050000
v -0.01165000 0.03300400 0.00800000
v -0.00888500 0.03385300 0.00800000
v -0.01939600 0.02913400 -0.01050000
v -0.01692400 0.03063600 0.00800000
v -0.01433600 0.03192900 0.00800000
v -0.02392700 0.02554400 -0.01050000
v -0.02173600 0.02743300 0.00800000
v -0.01939600 0.02913400 0.00800000
v -0.02780500 0.02125800 -0.01050000
v -0.02595400 0.02348100 0.00800000
v -0.02392700 0.02554400 0.00800000
v -0.03092500 0.01639100 -0.01050000
v -0.02946500 0.01888900 0.00800000
v -0.02780500 0.02125800 0.00800000
v -0.03320100 0.01107800 -0.01050000
v -0.03217300 0.01378100 0.00800000
v -0.03092500 0.01639100 0.00800000
v -0.03457100 0.00546200 -0.01050000
v -0.03400200 0.00829800 0.00800000
v -0.03320100 0.01107800 0.00800000
v -0.03499900 -0.00030300 -0.01050000
v -0.03490400 0.00258800 0.00800000
v -0.03457100 0.00546200 0.00800000
v -0.03447200 -0.00605900 -0.01050000
v -0.03485400 -0.00319200 0.00800000
v -0.03499900 -0.00030300 0.00800000
v -0.03300400 -0.01165000 0.00800000
v -0.03385300 -0.00888500 0.00800000
v -0.03447200 -0.00605900 0.00800000
v 0.03206100 0.01131800 0.00900000
v 0.03101700 0.01392700 0.00900000
v 0.00000000 0.00000000 0.00900000
v 0.03385800 0.00310100 0.00900000
v 0.03348700 0.00588600 0.00900000
v 0.03288600 0.00863100 0.00900000
v 0.03358300 -0.00530600 0.00900000
v 0.03390700 -0.00251400 0.00900000
v 0.03399900 0.00029400 0.00900000
v 0.03125300 -0.01338800 0.00900000
v 0.03225200 -0.01076100 0.00900000
v 0.03303100 -0.00806100 0.00900000
v 0.02701000 -0.02065000 0.00900000
v 0.02862300 -0.01834900 0.00900000
v 0.03004100 -0.01592300 0.00900000
v 0.02111500 -0.02664900 0.00900000
v 0.02324300 -0.02481400 0.00900000
v 0.02521300 -0.02281000 0.00900000
v 0.01392700 -0.03101700 0.00900000
v 0.01644000 -0.02976100 0.00900000
v 0.01884200 -0.02830200 0.00900000
v 0.00588600 -0.03348700 0.00900000
v 0.00863100 -0.03288600 0.00900000
v 0.01131800 -0.03206100 0.00900000
v -0.00251400 -0.03390700 0.00900000
v 0.00029400 -0.03399900 0.00900000
v 0.00310100 -0.03385800 0.00900000
v -0.01076100 -0.03225200 0.00900000
v -0.00806100 -0.03303100 0.00900000
v -0.00530600 -0.03358300 0.00900000
v -0.01834900 -0.02862300 0.00900000
v -0.01592300 -0.03004100 0.00900000
v -0.01338800 -0.03125300 0.00900000
v -0.02481400 -0.02324300 0.00900000
v -0.02281000 -0.02521300 0.00900000
v -0.02065000 -0.02701000 0.00900000
v -0.02976100 -0.01644000 0.00900000
v -0.02830200 -0.01884200 0.00900000
v -0.02664900 -0.02111500 0.00900000
v -0.03288600 -0.00863100 0.00900000
v -0.03206100 -0.01131800 0.00900000
v -0.03101700 -0.01392700 0.00900000
v -0.03399900 -0.00029400 0.00900000
v -0.03385800 -0.00310100 0.00900000
v -0.03348700 -0.00588600 0.00900000
v -0.03303100 0.00806100 0.00900000
v -0.03358300 0.00530600 0.00900000
v -0.03390700 0.00251400 0.00900000
v -0.03004100 0.01592300 0.00900000
v -0.03125300 0.01338800 0.00900000
v -0.03225200 0.01076100 0.00900000
v -0.02521300 0.02281000 0.00900000
v -0.02701000 0.02065000 0.00900000
v -0.02862300 0.01834900 0.00900000
v -0.01884200 0.02830200 0.00900000
v -0.02111500 0.02664900 0.00900000
v -0.02324300 0.02481400 0.00900000
v -0.01131800 0.03206100 0.00900000
v -0.01392700 0.03101700 0.00900000
v -0.01644000 0.02976100 0.00900000
v -0.00310100 0.03385800 0.00900000
v -0.00588600 0.03348700 0.00900000
v -0.00863100 0.03288600 0.00900000
v 0.00530600 0.03358300 0.00900000
v 0.00251400 0.03390700 0.00900000
v -0.00029400 0.03399900 0.00900000
v 0.01338800 0.03125300 0.00900000
v 0.01076100 0.03225200 0.00900000
v 0.00806100 0.03303100 0.00900000
v 0.02065000 0.02701000 0.00900000
v 0.01834900 0.02862300 0.00900000
v 0.01592300 0.03004100 0.00900000
v 0.02664900 0.02111500 0.00900000
v 0.02481400 0.02324300 0.00900000
v 0.02281000 0.02521300 0.00900000
v 0.02976100 0.01644000 0.00900000
v 0.02830200 0.01884200 0.00900000
v 0.00000000 0.00000000 -0.01050000
v 0.03147300 0.01413100 0.00886600
v 0.03019900 0.01668200 0.00886600
v 0.02871800 0.01911900 0.00886600
v 0.02704100 0.02142500 0.00886600
v 0.02517900 0.02358500 0.00886600
v 0.02314600 0.02558400 0.00886600
v 0.02095400 0.02740800 0.00886600
v 0.01861900 0.02904400 0.00886600
v 0.01615700 0.03048300 0.00886600
v 0.01358500 0.03171300 0.00886600
v 0.01091900 0.03272600 0.00886600
v 0.00818000 0.03351600 0.00886600
v 0.00538400 0.03407700 0.00886600
v 0.00255100 0.03440600 0.00886600
v -0.00029800 0.03449900 0.00886600
v -0.00314600 0.03435600 0.00886600
v -0.00597300 0.03397900 0.00886600
v -0.00875800 0.03337000 0.00886600
v -0.01148400 0.03253300 0.00886600
v -0.01413100 0.03147300 0.00886600
v -0.01668200 0.03019900 0.00886600
v -0.01911900 0.02871800 0.00886600
v -0.02142500 0.02704100 0.00886600
v -0.02358500 0.02517900 0.00886600
v -0.02558400 0.02314600 0.00886600
v -0.02740800 0.02095400 0.00886600
v -0.02904400 0.01861900 0.00886600
v -0.03048300 0.01615700 0.00886600
v -0.03171300 0.01358500 0.00886600
v -0.03272600 0.01091900 0.00886600
v -0.03351600 0.00818000 0.00886600
v -0.03407700 0.00538400 0.00886600
v -0.03440600 0.00255100 0.00886600
v -0.03449900 -0.00029800 0.00886600
v -0.03435600 -0.00314600 0.00886600
v -0.03397900 -0.00597300 0.00886600
v -0.03337000 -0.00875800 0.00886600
v -0.03253300 -0.01148400 0.00886600
v -0.03147300 -0.01413100 0.00886600
v -0.03019900 -0.01668200 0.00886600
v -0.02871800 -0.01911900 0.00886600
v -0.02704100 -0.02142500 0.00886600
v -0.02517900 -0.02358500 0.00886600
v -0.02314600 -0.02558400 0.00886600
v -0.02095400 -0.02740800 0.00886600
v -0.01861900 -0.02904400 0.00886600
v -0.01615700 -0.03048300 0.00886600
v -0.01358500 -0.03171300 0.00886600
v -0.01091900 -0.03272600 0.00886600
v -0.00818000 -0.03351600 0.00886600
v -0.00538400 -0.03407700 0.00886600
v -0.00255100 -0.03440600 0.00886600
v 0.00029800 -0.03449900 0.00886600
v 0.00314600 -0.03435600 0.00886600
v 0.00597300 -0.03397900 0.00886600
v 0.00875800 -0.03337000 0.00886600
v 0.01148400 -0.03253300 0.00886600
v 0.01413100 -0.03147300 0.00886600
v 0.01668200 -0.03019900 0.00886600
v 0.01911900 -0.02871800 0.00886600
v 0.02142500 -0.02704100 0.00886600
v 0.02358500 -0.02517900 0.00886600
v 0.02558400 -0.02314600 0.00886600
v 0.02740800 -0.02095400 0.00886600
v 0.02904400 -0.01861900 0.00886600
v 0.03048300 -0.01615700 0.00886600
v 0.03171300 -0.01358500 0.00886600
v 0.03272600 -0.01091900 0.00886600
v 0.03351600 -0.00818000 0.00886600
v 0.03407700 -0.00538400 0.00886600
v 0.03440600 -0.00255100 0.00886600
v 0.03449900 0.00029800 0.00886600
v 0.03435600 0.00314600 0.00886600
v 0.03397900 0.00597300 0.00886600
v 0.03337000 0.00875800 0.00886600
v 0.03253300 0.01148400 0.00886600
v 0.03180700 0.01428100 0.00850000
v 0.03051900 0.01685900 0.00850000
v 0.02902300 0.01932200 0.00850000
v 0.02732800 0.02165200 0.00850000
v 0.02544600 0.02383500 0.00850000
v 0.02339100 0.02585500 0.00850000
v 0.02117600 0.02769800 0.00850000
v 0.01881700 0.02935300 0.00850000
v 0.01632800 0.03080600 0.00850000
v 0.01372900 0.03204900 0.00850000
v 0.01103500 0.03307400 0.00850000
v 0.00826600 0.03387200 0.00850000
v 0.00544100 0.03443900 0.00850000
v 0.00257800 0.03477100 0.00850000
v -0.00030200 0.03486500 0.00850000
v -0.00318000 0.03472100 0.00850000
v -0.00603600 0.03434000 0.00850000
v -0.00885100 0.03372400 0.00850000
v -0.01160600 0.03287800 0.00850000
v -0.01428100 0.03180700 0.00850000
v -0.01685900 0.03051900 0.00850000
v -0.01932200 0.02902300 0.00850000
v -0.02165200 0.02732800 0.00850000
v -0.02383500 0.02544600 0.00850000
v -0.02585500 0.02339100 0.00850000
v -0.02769800 0.02117600 0.00850000
v -0.02935300 0.01881700 0.00850000
v -0.03080600 0.01632800 0.00850000
v -0.03204900 0.01372900 0.00850000
v -0.03307400 0.01103500 0.00850000
v -0.03387200 0.00826600 0.00850000
v -0.03443900 0.00544100 0.00850000
v -0.03477100 0.00257800 0.00850000
v -0.03486500 -0.00030200 0.00850000
v -0.03472100 -0.00318000 0.00850000
v -0.03434000 -0.00603600 0.00850000
v -0.03372400 -0.00885100 0.00850000
v -0.03287800 -0.01160600 0.00850000
v -0.03180700 -0.01428100 0.00850000
v -0.03051900 -0.01685900 0.00850000
v -0.02902300 -0.01932200 0.00850000
v -0.02732800 -0.02165200 0.00850000
v -0.02544600 -0.02383500 0.00850000
v -0.02339100 -0.02585500 0.00850000
v -0.02117600 -0.02769800 0.00850000
v -0.01881700 -0.02935300 0.00850000
v -0.01632800 -0.03080600 0.00850000
v -0.01372900 -0.03204900 0.00850000
v -0.01103500 -0.03307400 0.00850000
v -0.00826600 -0.03387200 0.00850000
v -0.00544100 -0.03443900 0.00850000
v -0.00257800 -0.03477100 0.00850000
v 0.00030200 -0.03486500 0.00850000
v 0.00318000 -0.03472100 0.00850000
v 0.00603600 -0.03434000 0.00850000
v 0.00885100 -0.03372400 0.00850000
v 0.01160600 -0.03287800 0.00850000
v 0.01428100 -0.03180700 0.00850000
v 0.01685900 -0.03051900 0.00850000
v 0.01932200 -0.02902300 0.00850000
v 0.02165200 -0.02732800 0.00850000
v 0.02383500 -0.02544600 0.00850000
v 0.02585500 -0.02339100 0.00850000
v 0.02769800 -0.02117600 0.00850000
v 0.02935300 -0.01881700 0.00850000
v 0.03080600 -0.01632800 0.00850000
v 0.03204900 -0.01372900 0.00850000
v 0.03307400 -0.01103500 0.00850000
v 0.03387200 -0.00826600 0.00850000
v 0.03443900 -0.00544100 0.00850000
v 0.03477100 -0.00257800 0.00850000
v 0.03486500 0.00030200 0.00850000
v 0.03472100 0.00318000 0.00850000
v 0.03434000 0.00603600 0.00850000
v 0.03372400 0.00885100 0.00850000
v 0.03287800 0.01160600 0.00850000
f 1 2 3
f 4 5 3
f 3 5 6
f 3 6 1
f 7 8 4
f 4 8 9
f 4 9 5
f 10 11 7
f 7 11 12
f 7 12 8
f 13 14 10
f 10 14 15
f 10 15 11
f 16 17 13
f 13 17 18
f 13 18 14
f 19 20 16
f 16 20 21
f 16 21 17
f 22 23 19
f 19 23 24
f 19 24 20
f 25 26 22
f 22 26 27
f 22 27 23
f 28 29 25
f 25 29 30
f 25 30 26
f 31 32 28
f 28 32 33
f 28 33 29
f 34 35 31
f 31 35 36
f 31 36 32
f 37 38 34
f 34 38 39
f 34 39 35
f 40 41 37
f 37 41 42
f 37 42 38
f 43 44 40
f 40 44 45
f 40 45 41
f 46 47 43
f 43 47 48
f 43 48 44
f 49 50 46
f 46 50 51
f 46 51 47
f 52 53 49
f 49 53 54
f 49 54 50
f 55 56 52
f 52 56 57
f 52 57 53
f 58 59 55
f 55 59 60
f 55 60 56
f 61 62 58
f 58 62 63
f 58 63 59
f 64 65 61
f 61 65 66
f 61 66 62
f 67 68 64
f 64 68 69
f 64 69 65
f 70 71 67
f 67 71 72
f 67 72 68
f 73 74 70
f 70 74 75
f 70 75 71
f 76 77 73
f 73 77 78
f 73 78 74
f 79 80 76
f 76 80 81
f 76 81 77
f 82 83 79
f 79 83 84
f 79 84 80
f 85 86 82
f 82 86 87
f 82 87 83
f 88 89 85
f 85 89 90
f 85 90 86
f 91 92 88
f 88 92 93
f 88 93 89
f 94 95 91
f 91 95 96
f 91 96 92
f 97 98 94
f 94 98 99
f 94 99 95
f 100 101 97
f 97 101 102
f 97 102 98
f 103 104 100
f 100 104 105
f 100 105 101
f 106 107 103
f 103 107 108
f 103 108 104
f 109 110 106
f 106 110 111
f 106 111 107
f 1 112 2
f 2 112 113
f 2 113 109
f 109 113 114
f 109 114 110
f 115 116 117
f 118 119 117
f 117 119 120
f 117 120 115
f 121 122 117
f 117 122 123
f 117 123 118
f 124 125 117
f 117 125 126
f 117 126 121
f 127 128 117
f 117 128 129
f 117 129 124
f 130 131 117
f 117 131 132
f 117 132 127
f 133 134 117
f 117 134 135
f 117 135 130
f 136 137 117
f 117 137 138
f 117 138 133
f 139 140 117
f 117 140 141
f 117 141 136
f 142 143 117
f 117 143 144
f 117 144 139
f 145 146 117
f 117 146 147
f 117 147 142
f 148 149 117
f 117 149 150
f 117 150 145
f 151 152 117
f 117 152 153
f 117 153 148
f 154 155 117
f 117 155 156
f 117 156 151
f 157 158 117
f 117 158 159
f 117 159 154
f 160 161 117
f 117 161 162
f 117 162 157
f 163 164 117
f 117 164 165
f 117 165 160
f 166 167 117
f 117 167 168
f 117 168 163
f 169 170 117
f 117 170 171
f 117 171 166
f 172 173 117
f 117 173 174
f 117 174 169
f 175 176 117
f 117 176 177
f 117 177 172
f 178 179 117
f 117 179 180
f 117 180 175
f 181 182 117
f 117 182 183
f 117 183 178
f 184 185 117
f 117 185 186
f 117 186 181
f 187 188 117
f 117 188 189
f 117 189 184
f 116 190 117
f 117 190 191
f 117 191 187
f 55 52 192
f 55 192 58
f 67 64 192
f 192 64 61
f 192 61 58
f 76 73 192
f 192 73 70
f 192 70 67
f 85 82 192
f 192 82 79
f 192 79 76
f 94 91 192
f 192 91 88
f 192 88 85
f 103 100 192
f 192 100 97
f 192 97 94
f 2 109 192
f 192 109 106
f 192 106 103
f 7 4 192
f 192 4 3
f 192 3 2
f 16 13 192
f 192 13 10
f 192 10 7
f 25 22 192
f 192 22 19
f 192 19 16
f 34 31 192
f 192 31 28
f 192 28 25
f 43 40 192
f 192 40 37
f 192 37 34
f 52 49 192
f 192 49 46
f 192 46 43
f 115 193 116
f 116 193 194
f 116 194 190
f 190 194 195
f 190 195 191
f 191 195 196
f 191 196 187
f 187 196 197
f 187 197 188
f 188 197 198
f 188 198 189
f 189 198 199
f 189 199 184
f 184 199 200
f 184 200 185
f 185 200 201
f 185 201 186
f 186 201 202
f 186 202 181
f 181 202 203
f 181 203 182
f 182 203 204
f 182 204 183
f 183 204 205
f 183 205 178
f 178 205 206
f 178 206 179
f 179 206 207
f 179 207 180
f 180 207 208
f 180 208 175
f 175 208 209
f 175 209 176
f 176 209 210
f 176 210 177
f 177 210 211
f 177 211 172
f 172 211 212
f 172 212 173
f 173 212 213
f 173 213 174
f 174 213 214
f 174 214 169
f 169 214 215
f 169 215 170
f 170 215 216
f 170 216 171
f 171 216 217
f 171 217 166
f 166 217 218
f 166 218 167
f 167 218 219
f 167 219 168
f 168 219 220
f 168 220 163
f 163 220 221
f 163 221 164
f 164 221 222
f 164 222 165
f 165 222 223
f 165 223 160
f 160 223 224
f 160 224 161
f 161 224 225
f 161 225 162
f 162 225 226
f 162 226 157
f 157 226 227
f 157 227 158
f 158 227 228
f 158 228 159
f 159 228 229
f 159 229 154
f 154 229 230
f 154 230 155
f 155 230 231
f 155 231 156
f 156 231 232
f 156 232 151
f 151 232 233
f 151 233 152
f 152 233 234
f 152 234 153
f 153 234 235
f 153 235 148
f 148 235 236
f 148 236 149
f 149 236 237
f 149 237 150
f 150 237 238
f 150 238 145
f 145 238 239
f 145 239 146
f 146 239 240
f 146 240 147
f 147 240 241
f 147 241 142
f 142 241 242
f 142 242 143
f 143 242 243
f 143 243 144
f 144 243 244
f 144 244 139
f 139 244 245
f 139 245 140
f 140 245 246
f 140 246 141
f 141 246 247
f 141 247 136
f 136 247 248
f 136 248 137
f 137 248 249
f 137 249 138
f 138 249 250
f 138 250 133
f 133 250 251
f 133 251 134
f 134 251 252
f 134 252 135
f 135 252 253
f 135 253 130
f 130 253 254
f 130 254 131
f 131 254 255
f 131 255 132
f 132 255 256
f 132 256 127
f 127 256 257
f 127 257 128
f 128 257 258
f 128 258 129
f 129 258 259
f 129 259 124
f 124 259 260
f 124 260 125
f 125 260 261
f 125 261 126
f 126 261 262
f 126 262 121
f 121 262 263
f 121 263 122
f 122 263 264
f 122 264 123
f 123 264 265
f 123 265 118
f 118 265 266
f 118 266 119
f 119 266 267
f 119 267 120
f 120 267 268
f 120 268 115
f 115 268 193
f 268 269 193
f 193 269 270
f 193 270 194
f 194 270 271
f 194 271 195
f 195 271 272
f 195 272 196
f 196 272 273
f 196 273 197
f 197 273 274
f 197 274 198
f 198 274 275
f 198 275 199
f 199 275 276
f 199 276 200
f 200 276 277
f 200 277 201
f 201 277 278
f 201 278 202
f 202 278 279
f 202 279 203
f 203 279 280
f 203 280 204
f 204 280 281
f 204 281 205
f 205 281 282
f 205 282 206
f 206 282 283
f 206 283 207
f 207 283 284
f 207 284 208
f 208 284 285
f 208 285 209
f 209 285 286
f 209 286 210
f 210 286 287
f 210 287 211
f 211 287 288
f 211 288 212
f 212 288 289
f 212 289 213
f 213 289 290
f 213 290 214
f 214 290 291
f 214 291 215
f 215 291 292
f 215 292 216
f 216 292 293
f 216 293 217
f 217 293 294
f 217 294 218
f 218 294 295
f 218 295 219
f 219 295 296
f 219 296 220
f 220 296 297
f 220 297 221
f 221 297 298
f 221 298 222
f 222 298 299
f 222 299 223
f 223 299 300
f 223 300 224
f 224 300 301
f 224 301 225
f 225 301 302
f 225 302 226
f 226 302 303
f 226 303 227
f 227 303 304
f 227 304 228
f 228 304 305
f 228 305 229
f 229 305 306
f 229 306 230
f 230 306 307
f 230 307 231
f 231 307 308
f 231 308 232
f 232 308 309
f 232 309 233
f 233 309 310
f 233 310 234
f 234 310 311
f 234 311 235
f 235 311 312
f 235 312 236
f 236 312 313
f 236 313 237
f 237 313 314
f 237 314 238
f 238 314 315
f 238 315 239
f 239 315 316
f 239 316 240
f 240 316 317
f 240 317 241
f 241 317 318
f 241 318 242
f 242 318 319
f 242 319 243
f 243 319 320
f 243 320 244
f 244 320 321
f 244 321 245
f 245 321 322
f 245 322 246
f 246 322 323
f 246 323 247
f 247 323 324
f 247 324 248
f 248 324 325
f 248 325 249
f 249 325 326
f 249 326 250
f 250 326 327
f 250 327 251
f 251 327 328
f 251 328 252
f 252 328 329
f 252 329 253
f 253 329 330
f 253 330 254
f 254 330 331
f 254 331 255
f 255 331 332
f 255 332 256
f 256 332 333
f 256 333 257
f 257 333 334
f 257 334 258
f 258 334 335
f 258 335 259
f 259 335 336
f 259 336 260
f 260 336 337
f 260 337 261
f 261 337 338
f 261 338 262
f 262 338 339
f 262 339 263
f 263 339 340
f 263 340 264
f 264 340 341
f 264 341 265
f 265 341 342
f 265 342 266
f 266 342 343
f 266 343 267
f 267 343 344
f 267 344 268
f 268 344 269
f 344 59 269
f 269 59 63
f 269 63 270
f 270 63 62
f 270 62 271
f 271 62 66
f 271 66 272
f 272 66 65
f 272 65 273
f 273 65 69
f 273 69 274
f 274 69 68
f 274 68 275
f 275 68 72
f 275 72 276
f 276 72 71
f 276 71 277
f 277 71 75
f 277 75 278
f 278 75 74
f 278 74 279
f 279 74 78
f 279 78 280
f 280 78 77
f 280 77 281
f 281 77 81
f 281 81 282
f 282 81 80
f 282 80 283
f 283 80 84
f 283 84 284
f 284 84 83
f 284 83 285
f 285 83 87
f 285 87 286
f 286 87 86
f 286 86 287
f 287 86 90
f 287 90 288
f 288 90 89
f 288 89 289
f 289 89 93
f 289 93 290
f 290 93 92
f 290 92 291
f 291 92 96
f 291 96 292
f 292 96 95
f 292 95 293
f 293 95 99
f 293 99 294
f 294 99 98
f 294 98 295
f 295 98 102
f 295 102 296
f 296 102 101
f 296 101 297
f 297 101 105
f 297 105 298
f 298 105 104
f 298 104 299
f 299 104 108
f 299 108 300
f 300 108 107
f 300 107 301
f 301 107 111
f 301 111 302
f 302 111 110
f 302 110 303
f 303 110 114
f 303 114 304
f 304 114 113
f 304 113 305
f 305 113 112
f 305 112 306
f 306 112 1
f 306 1 307
f 307 1 6
f 307 6 308
f 308 6 5
f 308 5 309
f 309 5 9
f 309 9 310
f 310 9 8
f 310 8 311
f 311 8 12
f 311 12 312
f 312 12 11
f 312 11 313
f 313 11 15
f 313 15 314
f 314 15 14
f 314 14 315
f 315 14 18
f 315 18 316
f 316 18 17
f 316 17 317
f 317 17 21
f 317 21 318
f 318 21 20
f 318 20 319
f 319 20 24
f 319 24 320
f 320 24 23
f 320 23 321
f 321 23 27
f 321 27 322
f 322 27 26
f 322 26 323
f 323 26 30
f 323 30 324
f 324 30 29
f 324 29 325
f 325 29 33
f 325 33 326
f 326 33 32
f 326 32 327
f 327 32 36
f 327 36 328
f 328 36 35
f 328 35 329
f 329 35 39
f 329 39 330
f 330 39 38
f 330 38 331
f 331 38 42
f 331 42 332
f 332 42 41
f 332 41 333
f 333 41 45
f 333 45 334
f 334 45 44
f 334 44 335
f 335 44 48
f 335 48 336
f 336 48 47
f 336 47 337
f 337 47 51
f 337 51 338
f 338 51 50
f 338 50 339
f 339 50 54
f 339 54 340
f 340 54 53
f 340 53 341
f 341 53 57
f 341 57 342
f 342 57 56
f 342 56 343
f 343 56 60
f 343 60 344
f 344 60 59

