# https://github.com/mikedh/trimesh

o link_arm_l4_1.obj
v 0.01850000 -0.02300000 -0.00900000
v -0.01850000 -0.02300000 -0.00900000
v 0.02075000 -0.02239700 -0.00900000
v 0.02239700 -0.02075000 -0.00900000
v 0.02300000 -0.01850000 -0.00900000
v 0.02300000 0.01850000 -0.00900000
v 0.02239700 0.02075000 -0.00900000
v 0.02075000 0.02239700 -0.00900000
v 0.01850000 0.02300000 -0.00900000
v -0.01850000 0.02300000 -0.00900000
v -0.02075000 0.02239700 -0.00900000
v -0.02239700 0.02075000 -0.00900000
v -0.02300000 0.01850000 -0.00900000
v -0.02300000 -0.01850000 -0.00900000
v 0.02150000 -0.01850000 -0.00900000
v 0.02109800 -0.02000000 -0.00900000
v 0.02000000 -0.02109800 -0.00900000
v 0.01850000 -0.02150000 -0.00900000
v -0.01850000 -0.02150000 -0.00900000
v -0.02000000 -0.02109800 -0.00900000
v -0.02109800 -0.02000000 -0.00900000
v -0.02150000 -0.01850000 -0.00900000
v -0.02150000 0.01850000 -0.00900000
v -0.02109800 0.02000000 -0.00900000
v -0.02000000 0.02109800 -0.00900000
v -0.01850000 0.02150000 -0.00900000
v 0.01850000 0.02150000 -0.00900000
v 0.02000000 0.02109800 -0.00900000
v 0.02109800 0.02000000 -0.00900000
v 0.02150000 0.01850000 -0.00900000
v -0.02239700 -0.02075000 -0.00900000
v -0.02075000 -0.02239700 -0.00900000
v -0.02333400 0.02972500 -0.00400000
v -0.02333400 0.02605200 -0.00400000
v -0.02349300 0.02972000 -0.00379300
v -0.02370000 0.02589600 -0.00363400
v -0.02370000 0.02970800 -0.00363400
v -0.02372200 0.02589100 -0.00362500
v -0.02394200 0.02969800 -0.00353400
v -0.02394800 0.02583400 -0.00353200
v -0.02420000 0.02969400 -0.00350000
v -0.02420000 0.02581100 -0.00350000
v -0.02445900 0.02969800 -0.00353400
v -0.02470000 0.02589600 -0.00536600
v -0.02467900 0.02589100 -0.00537500
v -0.02420000 0.02972500 -0.00550000
v -0.02445300 0.02583300 -0.00546800
v -0.02420000 0.02581100 -0.00550000
v -0.02470000 0.02972500 -0.00536600
v -0.02506600 0.02972500 -0.00500000
v -0.02506600 0.02605200 -0.00500000
v -0.02445300 0.02583400 -0.00353300
v -0.02468400 0.02589100 -0.00362500
v -0.02470000 0.02970800 -0.00363400
v -0.02470000 0.02589600 -0.00363400
v -0.02490700 0.02972000 -0.00379300
v -0.02506600 0.02605200 -0.00400000
v -0.02506600 0.02972500 -0.00400000
v -0.02516600 0.02610600 -0.00423900
v -0.02520000 0.02972500 -0.00450000
v -0.02520000 0.02612500 -0.00450000
v -0.02516600 0.02610600 -0.00476100
v -0.02370000 0.02972500 -0.00536600
v -0.02333400 0.02605200 -0.00500000
v -0.02333400 0.02972500 -0.00500000
v -0.02323500 0.02610600 -0.00476100
v -0.02320000 0.02972500 -0.00450000
v -0.02320000 0.02612500 -0.00450000
v -0.02323500 0.02610600 -0.00423900
v -0.02394700 0.02583400 -0.00546700
v -0.02371600 0.02589100 -0.00537500
v -0.02370000 0.02589600 -0.00536600
v -0.02572500 0.02972500 -0.00535900
v -0.02593900 0.02971900 -0.00469500
v -0.02595000 0.02972500 -0.00450000
v -0.02592200 0.02972000 -0.00450200
v -0.02587700 0.02972500 -0.00400000
v -0.02587700 0.02972200 -0.00400000
v -0.02572500 0.02970900 -0.00364100
v 0.02506600 0.02972500 -0.00400000
v 0.02506600 0.02605200 -0.00400000
v 0.02490800 0.02972000 -0.00379300
v 0.02470000 0.02589600 -0.00363400
v 0.02470000 0.02970800 -0.00363400
v 0.02467900 0.02589100 -0.00362500
v 0.02445900 0.02969800 -0.00353400
v 0.02445300 0.02583400 -0.00353200
v 0.02420000 0.02969400 -0.00350000
v 0.02420000 0.02581100 -0.00350000
v 0.02394200 0.02969800 -0.00353400
v 0.02370000 0.02589600 -0.00536600
v 0.02372200 0.02589100 -0.00537500
v 0.02420000 0.02972500 -0.00550000
v 0.02394800 0.02583300 -0.00546800
v 0.02420000 0.02581100 -0.00550000
v 0.02370000 0.02972500 -0.00536600
v 0.02333400 0.02972500 -0.00500000
v 0.02333400 0.02605200 -0.00500000
v 0.02394700 0.02583400 -0.00353300
v 0.02371600 0.02589100 -0.00362500
v 0.02370000 0.02970800 -0.00363400
v 0.02370000 0.02589600 -0.00363400
v 0.02349300 0.02972000 -0.00379300
v 0.02333400 0.02605200 -0.00400000
v 0.02333400 0.02972500 -0.00400000
v 0.02323500 0.02610600 -0.00423900
v 0.02320000 0.02972500 -0.00450000
v 0.02320000 0.02612500 -0.00450000
v 0.02323500 0.02610600 -0.00476100
v 0.02470000 0.02972500 -0.00536600
v 0.02506600 0.02605200 -0.00500000
v 0.02506600 0.02972500 -0.00500000
v 0.02516600 0.02610600 -0.00476100
v 0.02520000 0.02972500 -0.00450000
v 0.02520000 0.02612500 -0.00450000
v 0.02516600 0.02610600 -0.00423900
v 0.02445300 0.02583400 -0.00546700
v 0.02468400 0.02589100 -0.00537500
v 0.02470000 0.02589600 -0.00536600
v 0.02572500 0.02970900 -0.00364100
v 0.02587700 0.02972200 -0.00400000
v 0.02587700 0.02972500 -0.00400000
v 0.02592200 0.02972000 -0.00450200
v 0.02595000 0.02972500 -0.00450000
v 0.02593900 0.02971900 -0.00469500
v 0.02572500 0.02972500 -0.00535900
v -0.02572500 -0.02572500 -0.01300000
v -0.02572500 0.02572500 -0.01300000
v -0.02505700 0.02255000 -0.01300000
v -0.02548100 0.02572500 -0.01300000
v -0.02223500 0.02322500 -0.01300000
v -0.02189900 0.02572500 -0.01300000
v 0.02322500 0.02322500 -0.01300000
v 0.02572500 0.02572500 -0.01300000
v 0.02322500 -0.02322500 -0.01300000
v 0.02572500 -0.02572500 -0.01300000
v -0.02322500 -0.02322500 -0.01300000
v -0.02489600 0.02255000 -0.01300000
v -0.02322500 0.02322500 -0.01300000
v -0.02369200 0.02507400 -0.01300000
v -0.02281000 0.02322500 -0.01300000
v -0.02230300 0.02572500 -0.01300000
v -0.02258500 0.02348600 -0.01300000
v -0.02361500 0.02572500 -0.01300000
v -0.02376900 0.02572500 -0.01300000
v -0.02479600 0.02348600 -0.01300000
v -0.02507800 0.02572500 -0.01300000
v -0.02223500 0.02322500 -0.01225000
v 0.02322500 0.02322500 -0.00900000
v -0.02322500 0.02322500 -0.00900000
v -0.02281000 0.02322500 -0.01225000
v 0.02420000 0.01800000 -0.00845000
v 0.02420000 0.00600000 -0.00845000
v 0.02591400 0.01800000 -0.00805900
v 0.02591400 0.00600000 -0.00805900
v 0.02728900 0.01800000 -0.00696300
v 0.02728900 0.00600000 -0.00696300
v 0.02805200 0.01800000 -0.00537900
v 0.02805200 0.00600000 -0.00537900
v 0.02805200 0.01800000 -0.00362100
v 0.02805200 0.00600000 -0.00362100
v 0.02728900 0.01800000 -0.00203700
v 0.02728900 0.00600000 -0.00203700
v 0.02591400 0.01800000 -0.00094100
v 0.02591400 0.00600000 -0.00094100
v 0.02420000 0.01800000 -0.00055000
v 0.02420000 0.00600000 -0.00055000
v 0.02170000 0.00600000 -0.00845000
v 0.02170000 0.01800000 -0.00845000
v 0.02170000 0.01800000 -0.00055000
v 0.02170000 0.00600000 -0.00055000
v -0.02420000 0.01800000 -0.00055000
v -0.02420000 0.00600000 -0.00055000
v -0.02591400 0.01800000 -0.00094100
v -0.02591400 0.00600000 -0.00094100
v -0.02728900 0.01800000 -0.00203700
v -0.02728900 0.00600000 -0.00203700
v -0.02805200 0.01800000 -0.00362100
v -0.02805200 0.00600000 -0.00362100
v -0.02805200 0.01800000 -0.00537900
v -0.02805200 0.00600000 -0.00537900
v -0.02728900 0.01800000 -0.00696300
v -0.02728900 0.00600000 -0.00696300
v -0.02591400 0.01800000 -0.00805900
v -0.02591400 0.00600000 -0.00805900
v -0.02420000 0.01800000 -0.00845000
v -0.02420000 0.00600000 -0.00845000
v -0.02170000 0.00600000 -0.00055000
v -0.02170000 0.01800000 -0.00055000
v -0.02170000 0.01800000 -0.00845000
v -0.02170000 0.00600000 -0.00845000
v -0.01800000 -0.02437500 -0.00055000
v -0.00600000 -0.02437500 -0.00055000
v -0.01800000 -0.02608900 -0.00094100
v -0.00600000 -0.02608900 -0.00094100
v -0.01800000 -0.02746400 -0.00203700
v -0.00600000 -0.02746400 -0.00203700
v -0.01800000 -0.02822700 -0.00362100
v -0.00600000 -0.02822700 -0.00362100
v -0.01800000 -0.02822700 -0.00537900
v -0.00600000 -0.02822700 -0.00537900
v -0.01800000 -0.02746400 -0.00696300
v -0.00600000 -0.02746400 -0.00696300
v -0.01800000 -0.02608900 -0.00805900
v -0.00600000 -0.02608900 -0.00805900
v -0.01800000 -0.02437500 -0.00845000
v -0.00600000 -0.02437500 -0.00845000
v -0.00600000 -0.02170000 -0.00055000
v -0.01800000 -0.02170000 -0.00055000
v -0.01800000 -0.02170000 -0.00845000
v -0.00600000 -0.02170000 -0.00845000
v -0.01800000 0.02437500 -0.00845000
v -0.00600000 0.02437500 -0.00845000
v -0.01800000 0.02608900 -0.00805900
v -0.00600000 0.02608900 -0.00805900
v -0.01800000 0.02746400 -0.00696300
v -0.00600000 0.02746400 -0.00696300
v -0.01800000 0.02822700 -0.00537900
v -0.00600000 0.02822700 -0.00537900
v -0.01800000 0.02822700 -0.00362100
v -0.00600000 0.02822700 -0.00362100
v -0.01800000 0.02746400 -0.00203700
v -0.00600000 0.02746400 -0.00203700
v -0.01800000 0.02608900 -0.00094100
v -0.00600000 0.02608900 -0.00094100
v -0.01800000 0.02437500 -0.00055000
v -0.00600000 0.02437500 -0.00055000
v -0.00600000 0.02170000 -0.00845000
v -0.01800000 0.02170000 -0.00845000
v -0.01800000 0.02170000 -0.00055000
v -0.00600000 0.02170000 -0.00055000
v 0.02971000 0.02606600 -0.00495300
v 0.02938800 0.02723900 -0.00400000
v 0.02970500 0.02612500 -0.00450000
v 0.02952900 0.02696100 -0.00400000
v 0.02971200 0.02605200 -0.00400000
v 0.02972500 0.02572500 -0.00561400
v 0.02972500 0.02572500 -0.00900000
v 0.02971900 0.02585700 -0.00535800
v 0.02952900 0.02696100 -0.00900000
v 0.02723900 0.02938800 -0.00400000
v 0.02696100 0.02952900 -0.00900000
v 0.02572500 0.02972500 -0.00900000
v 0.02696100 0.02952900 -0.00400000
v 0.02938800 0.02723900 -0.00900000
v 0.02896100 0.02807600 -0.00400000
v 0.02896100 0.02807600 -0.00900000
v 0.02851900 0.02851900 -0.00400000
v 0.02851900 0.02851900 -0.00900000
v 0.02807600 0.02896100 -0.00400000
v 0.02807600 0.02896100 -0.00900000
v 0.02723900 0.02938800 -0.00900000
v 0.02880300 0.02796100 -0.00276400
v 0.02796100 0.02880300 -0.00276400
v 0.02572500 0.02572500 0.00000000
v 0.02610700 0.02690100 -0.00019600
v 0.02572500 0.02696100 -0.00019600
v 0.02969200 0.02586100 -0.00364100
v 0.02934300 0.02690100 -0.00276400
v 0.02967800 0.02572500 -0.00338600
v 0.02690100 0.02934300 -0.00276400
v 0.02696100 0.02572500 -0.00019600
v 0.02690100 0.02610700 -0.00019600
v 0.02723900 0.02572500 -0.00033700
v 0.02796100 0.02645200 -0.00076400
v 0.02672500 0.02880300 -0.00164900
v 0.02572500 0.02851900 -0.00120600
v 0.02645200 0.02796100 -0.00076400
v 0.02572500 0.02807600 -0.00076400
v 0.02572500 0.02723900 -0.00033700
v 0.02807600 0.02572500 -0.00076400
v 0.02851900 0.02572500 -0.00120600
v 0.02880300 0.02672500 -0.00164900
v 0.02572500 0.02952900 -0.00276400
v 0.02572500 0.02938800 -0.00248600
v 0.02572500 0.02896100 -0.00164900
v 0.02896100 0.02572500 -0.00164900
v 0.02938800 0.02572500 -0.00248600
v 0.02952900 0.02572500 -0.00276400
v 0.02762700 0.02834300 -0.00164900
v 0.02710700 0.02762700 -0.00076400
v 0.02645200 0.02672500 -0.00019600
v 0.02834300 0.02762700 -0.00164900
v 0.02762700 0.02710700 -0.00076400
v 0.02672500 0.02645200 -0.00019600
v -0.02572500 0.02972500 -0.00900000
v 0.02572500 -0.02972500 -0.00900000
v 0.02572500 -0.02972500 -0.00535900
v 0.02571600 -0.02972500 -0.00537500
v -0.02332500 -0.02972500 -0.00601600
v -0.02420000 -0.02972500 -0.00625000
v -0.02572500 -0.02972500 -0.00900000
v -0.02507500 -0.02972500 -0.00601600
v -0.02571600 -0.02972500 -0.00537500
v -0.02572500 -0.02972500 -0.00535900
v -0.02268500 -0.02972500 -0.00537500
v 0.02332500 -0.02972500 -0.00601600
v 0.02420000 -0.02972500 -0.00625000
v 0.02507500 -0.02972500 -0.00601600
v 0.02245000 -0.02972500 -0.00450000
v 0.02252300 -0.02972500 -0.00400000
v -0.02252300 -0.02972500 -0.00400000
v 0.02268500 -0.02972500 -0.00537500
v -0.02245000 -0.02972500 -0.00450000
v 0.02971900 -0.02585700 -0.00535800
v 0.02971000 -0.02606600 -0.00495300
v 0.02938800 -0.02723900 -0.00400000
v 0.02970500 -0.02612500 -0.00450000
v 0.02952900 -0.02696100 -0.00400000
v 0.02971200 -0.02605200 -0.00400000
v 0.02696100 -0.02952900 -0.00400000
v 0.02587700 -0.02972200 -0.00400000
v 0.02595000 -0.02971900 -0.00450000
v 0.02723900 -0.02938800 -0.00400000
v 0.02589300 -0.02972100 -0.00494300
v 0.02972500 -0.02572500 -0.00900000
v 0.02972500 -0.02572500 -0.00561400
v 0.02952900 -0.02696100 -0.00900000
v 0.02938800 -0.02723900 -0.00900000
v 0.02896100 -0.02807600 -0.00900000
v 0.02896100 -0.02807600 -0.00400000
v 0.02851900 -0.02851900 -0.00900000
v 0.02851900 -0.02851900 -0.00400000
v 0.02807600 -0.02896100 -0.00900000
v 0.02807600 -0.02896100 -0.00400000
v 0.02723900 -0.02938800 -0.00900000
v 0.02696100 -0.02952900 -0.00900000
v -0.02572500 0.02572500 0.00000000
v -0.02572500 0.02696100 -0.00019600
v -0.02572500 0.02723900 -0.00033700
v -0.02572500 0.02807600 -0.00076400
v -0.02572500 0.02851900 -0.00120600
v -0.02572500 0.02896100 -0.00164900
v -0.02572500 0.02938800 -0.00248600
v -0.02572500 0.02952900 -0.00276400
v 0.02796100 -0.02880300 -0.00276400
v 0.02880300 -0.02796100 -0.00276400
v 0.02723900 -0.02572500 -0.00033700
v 0.02696100 -0.02572500 -0.00019600
v 0.02690100 -0.02610700 -0.00019600
v 0.02572500 -0.02572500 0.00000000
v 0.02934300 -0.02690100 -0.00276400
v 0.02969200 -0.02586100 -0.00364100
v 0.02572500 -0.02970900 -0.00364100
v 0.02690100 -0.02934300 -0.00276400
v 0.02572500 -0.02696100 -0.00019600
v 0.02610700 -0.02690100 -0.00019600
v 0.02572500 -0.02723900 -0.00033700
v 0.02645200 -0.02796100 -0.00076400
v 0.02807600 -0.02572500 -0.00076400
v 0.02796100 -0.02645200 -0.00076400
v 0.02851900 -0.02572500 -0.00120600
v 0.02880300 -0.02672500 -0.00164900
v 0.02896100 -0.02572500 -0.00164900
v 0.02572500 -0.02807600 -0.00076400
v 0.02572500 -0.02851900 -0.00120600
v 0.02672500 -0.02880300 -0.00164900
v 0.02938800 -0.02572500 -0.00248600
v 0.02952900 -0.02572500 -0.00276400
v 0.02967800 -0.02572500 -0.00338600
v 0.02572500 -0.02896100 -0.00164900
v 0.02572500 -0.02938800 -0.00248600
v 0.02572500 -0.02952900 -0.00276400
v 0.02834300 -0.02762700 -0.00164900
v 0.02762700 -0.02710700 -0.00076400
v 0.02672500 -0.02645200 -0.00019600
v 0.02762700 -0.02834300 -0.00164900
v 0.02710700 -0.02762700 -0.00076400
v 0.02645200 -0.02672500 -0.00019600
v 0.02571400 -0.02970700 -0.00362600
v -0.02507500 -0.02959400 -0.00298400
v -0.02572500 -0.02938800 -0.00248600
v -0.02543800 -0.02965600 -0.00326300
v -0.02572500 -0.02952900 -0.00276400
v -0.02571400 -0.02970700 -0.00362600
v -0.02572500 -0.02970900 -0.00364100
v -0.02465400 -0.02954400 -0.00281000
v -0.02420000 -0.02952500 -0.00275000
v 0.02374700 -0.02954400 -0.00281000
v -0.02374700 -0.02954400 -0.00281000
v 0.02332500 -0.02959400 -0.00298400
v 0.02296300 -0.02965600 -0.00326200
v -0.02332500 -0.02959400 -0.00298400
v 0.02268500 -0.02970700 -0.00362500
v -0.02296300 -0.02965600 -0.00326200
v -0.02268500 -0.02970700 -0.00362500
v 0.02420000 -0.02952500 -0.00275000
v 0.02465400 -0.02954400 -0.00281000
v 0.02507500 -0.02959400 -0.00298400
v 0.02543800 -0.02965600 -0.00326300
v -0.02572500 -0.02572500 0.00000000
v -0.02572500 -0.02696100 -0.00019600
v -0.02572500 -0.02723900 -0.00033700
v -0.02572500 -0.02807600 -0.00076400
v -0.02572500 -0.02851900 -0.00120600
v -0.02572500 -0.02896100 -0.00164900
v 0.02972500 0.02525000 -0.00601600
v 0.01800000 0.02589100 -0.00537500
v 0.01800000 0.02525000 -0.00601600
v 0.02954400 0.02392200 -0.00281000
v 0.02507500 0.02350000 -0.00298400
v 0.02952500 0.02437500 -0.00275000
v 0.02420000 0.02437500 -0.00275000
v 0.02954400 0.02482900 -0.00281000
v 0.01800000 0.02525000 -0.00298400
v 0.02959400 0.02525000 -0.00298400
v 0.01800000 0.02589100 -0.00362500
v 0.01800000 0.02612500 -0.00450000
v 0.01800000 0.02437500 -0.00275000
v 0.02332500 0.02350000 -0.00298400
v 0.01800000 0.02350000 -0.00298400
v 0.02268500 0.02286000 -0.00362500
v 0.01800000 0.02286000 -0.00362500
v 0.02251000 0.02268500 -0.00404700
v 0.01800000 0.02262500 -0.00450000
v 0.02245000 0.02262500 -0.00450000
v 0.01800000 0.02286000 -0.00537500
v 0.02251000 0.02268500 -0.00495300
v 0.02959400 0.02350000 -0.00298400
v 0.02965600 0.02313800 -0.00326200
v 0.02571600 0.02286000 -0.00362500
v 0.02970700 0.02286000 -0.00362500
v 0.02589100 0.02268500 -0.00404700
v 0.02972500 0.02269800 -0.00400000
v 0.02595000 0.02262500 -0.00450000
v 0.02972500 0.02262500 -0.00450000
v 0.02589100 0.02268500 -0.00495300
v 0.02972500 0.02286000 -0.00537500
v 0.02571600 0.02286000 -0.00537500
v 0.02972500 0.02350000 -0.00601600
v 0.02507500 0.02350000 -0.00601600
v 0.02972500 0.02437500 -0.00625000
v 0.02420000 0.02437500 -0.00625000
v 0.02268500 0.02286000 -0.00537500
v 0.02332500 0.02350000 -0.00601600
v 0.01800000 0.02350000 -0.00601600
v 0.01800000 0.02437500 -0.00625000
v 0.02251000 -0.02268500 -0.00404700
v 0.01800000 -0.02286000 -0.00362500
v 0.02245000 -0.02262500 -0.00450000
v 0.01800000 -0.02262500 -0.00450000
v 0.02251000 -0.02268500 -0.00495300
v 0.01800000 -0.02286000 -0.00537500
v 0.02268500 -0.02286000 -0.00537500
v 0.01800000 -0.02350000 -0.00601600
v 0.02332500 -0.02350000 -0.00601600
v 0.01800000 -0.02437500 -0.00625000
v 0.02420000 -0.02437500 -0.00625000
v 0.01800000 -0.02525000 -0.00601600
v 0.02332500 -0.02525000 -0.00601600
v 0.01800000 -0.02589100 -0.00537500
v 0.02268500 -0.02589100 -0.00537500
v 0.02268500 -0.02286000 -0.00362500
v 0.02332500 -0.02350000 -0.00298400
v 0.01800000 -0.02350000 -0.00298400
v 0.02420000 -0.02437500 -0.00275000
v 0.01800000 -0.02437500 -0.00275000
v 0.02332500 -0.02525000 -0.00298400
v 0.01800000 -0.02525000 -0.00298400
v 0.02268500 -0.02589100 -0.00362500
v 0.01800000 -0.02589100 -0.00362500
v 0.02251000 -0.02606600 -0.00404700
v 0.01800000 -0.02612500 -0.00450000
v 0.02245000 -0.02612500 -0.00450000
v 0.02251000 -0.02606600 -0.00495300
v 0.02571600 -0.02589100 -0.00362500
v 0.02507500 -0.02525000 -0.00298400
v 0.02959400 -0.02525000 -0.00298400
v 0.02589100 -0.02606600 -0.00404700
v 0.02595000 -0.02612500 -0.00450000
v 0.02589100 -0.02606600 -0.00495300
v 0.02571600 -0.02589100 -0.00537500
v 0.02507500 -0.02525000 -0.00601600
v 0.02972500 -0.02286000 -0.00537500
v 0.02507500 -0.02350000 -0.00601600
v 0.02972500 -0.02350000 -0.00601600
v 0.02972500 -0.02437500 -0.00625000
v 0.02972500 -0.02525000 -0.00601600
v 0.02595000 -0.02262500 -0.00450000
v 0.02589100 -0.02268500 -0.00495300
v 0.02571600 -0.02286000 -0.00537500
v 0.02972500 -0.02262500 -0.00450000
v 0.02972500 -0.02269800 -0.00400000
v 0.02589100 -0.02268500 -0.00404700
v 0.02970700 -0.02286000 -0.00362500
v 0.02571600 -0.02286000 -0.00362500
v 0.02965600 -0.02313800 -0.00326200
v 0.02507500 -0.02350000 -0.00298400
v 0.02959400 -0.02350000 -0.00298400
v 0.02954400 -0.02392200 -0.00281000
v 0.02952500 -0.02437500 -0.00275000
v 0.02954400 -0.02482900 -0.00281000
v -0.02251000 -0.02268500 -0.00495300
v -0.01800000 -0.02286000 -0.00537500
v -0.02245000 -0.02262500 -0.00450000
v -0.01800000 -0.02262500 -0.00450000
v -0.02251000 -0.02268500 -0.00404700
v -0.01800000 -0.02286000 -0.00362500
v -0.02268500 -0.02286000 -0.00362500
v -0.01800000 -0.02350000 -0.00298400
v -0.02332500 -0.02350000 -0.00298400
v -0.01800000 -0.02437500 -0.00275000
v -0.02420000 -0.02437500 -0.00275000
v -0.01800000 -0.02525000 -0.00298400
v -0.02332500 -0.02525000 -0.00298400
v -0.01800000 -0.02589100 -0.00362500
v -0.02268500 -0.02589100 -0.00362500
v -0.02268500 -0.02286000 -0.00537500
v -0.02332500 -0.02350000 -0.00601600
v -0.01800000 -0.02350000 -0.00601600
v -0.02420000 -0.02437500 -0.00625000
v -0.01800000 -0.02437500 -0.00625000
v -0.02332500 -0.02525000 -0.00601600
v -0.01800000 -0.02525000 -0.00601600
v -0.02268500 -0.02589100 -0.00537500
v -0.01800000 -0.02589100 -0.00537500
v -0.02251000 -0.02606600 -0.00495300
v -0.01800000 -0.02612500 -0.00450000
v -0.02245000 -0.02612500 -0.00450000
v -0.02251000 -0.02606600 -0.00404700
v -0.02972500 0.02572500 -0.00900000
v -0.02972500 -0.02572500 -0.00900000
v -0.02972500 0.02350000 -0.00601600
v -0.02972500 0.02437500 -0.00625000
v -0.02972500 0.02525000 -0.00601600
v -0.02972500 0.02572500 -0.00561400
v -0.02972500 -0.02572500 -0.00561400
v -0.02972500 -0.02525000 -0.00601600
v -0.02972500 -0.02262500 -0.00450000
v -0.02972500 -0.02269800 -0.00400000
v -0.02972500 0.02269800 -0.00400000
v -0.02972500 -0.02437500 -0.00625000
v -0.02972500 -0.02350000 -0.00601600
v -0.02972500 -0.02286000 -0.00537500
v -0.02972500 0.02286000 -0.00537500
v -0.02972500 0.02262500 -0.00450000
v -0.02972200 0.02589100 -0.00537500
v -0.02971000 0.02606600 -0.00495300
v -0.02938800 0.02723900 -0.00400000
v -0.02970500 0.02612500 -0.00450000
v -0.02952900 0.02696100 -0.00400000
v -0.02971200 0.02605200 -0.00400000
v -0.02696100 0.02952900 -0.00400000
v -0.02723900 0.02938800 -0.00400000
v -0.02952900 0.02696100 -0.00900000
v -0.02938800 0.02723900 -0.00900000
v -0.02896100 0.02807600 -0.00900000
v -0.02896100 0.02807600 -0.00400000
v -0.02851900 0.02851900 -0.00900000
v -0.02851900 0.02851900 -0.00400000
v -0.02807600 0.02896100 -0.00900000
v -0.02807600 0.02896100 -0.00400000
v -0.02723900 0.02938800 -0.00900000
v -0.02696100 0.02952900 -0.00900000
v -0.02796100 0.02880300 -0.00276400
v -0.02880300 0.02796100 -0.00276400
v -0.02723900 0.02572500 -0.00033700
v -0.02696100 0.02572500 -0.00019600
v -0.02690100 0.02610700 -0.00019600
v -0.02934300 0.02690100 -0.00276400
v -0.02969200 0.02586100 -0.00364100
v -0.02690100 0.02934300 -0.00276400
v -0.02610700 0.02690100 -0.00019600
v -0.02645200 0.02796100 -0.00076400
v -0.02807600 0.02572500 -0.00076400
v -0.02796100 0.02645200 -0.00076400
v -0.02851900 0.02572500 -0.00120600
v -0.02880300 0.02672500 -0.00164900
v -0.02896100 0.02572500 -0.00164900
v -0.02672500 0.02880300 -0.00164900
v -0.02938800 0.02572500 -0.00248600
v -0.02952900 0.02572500 -0.00276400
v -0.02967800 0.02572500 -0.00338600
v -0.02834300 0.02762700 -0.00164900
v -0.02762700 0.02710700 -0.00076400
v -0.02672500 0.02645200 -0.00019600
v -0.02762700 0.02834300 -0.00164900
v -0.02710700 0.02762700 -0.00076400
v -0.02645200 0.02672500 -0.00019600
v -0.02954400 0.02483000 -0.00281000
v -0.02959400 0.02525000 -0.00298400
v -0.02959400 -0.02350000 -0.00298400
v -0.02954400 -0.02392100 -0.00281000
v -0.02954400 0.02392100 -0.00281000
v -0.02965600 -0.02313800 -0.00326200
v -0.02959400 0.02350000 -0.00298400
v -0.02970700 -0.02286000 -0.00362500
v -0.02965600 0.02313800 -0.00326200
v -0.02970700 0.02286000 -0.00362500
v -0.02952500 -0.02437500 -0.00275000
v -0.02938800 -0.02572500 -0.00248600
v -0.02952500 0.02437500 -0.00275000
v -0.02954400 -0.02483000 -0.00281000
v -0.02959400 -0.02525000 -0.00298400
v -0.02952900 -0.02572500 -0.00276400
v -0.02967800 -0.02572500 -0.00338600
v -0.02696100 -0.02572500 -0.00019600
v -0.02723900 -0.02572500 -0.00033700
v -0.02807600 -0.02572500 -0.00076400
v -0.02851900 -0.02572500 -0.00120600
v -0.02896100 -0.02572500 -0.00164900
v 0.02322500 -0.02322500 -0.00900000
v -0.02322500 -0.02322500 -0.00900000
v -0.02070000 -0.02143200 0.00000000
v -0.02143200 -0.02070000 0.00000000
v -0.02170000 -0.01970000 0.00000000
v -0.02170000 0.01970000 0.00000000
v -0.02143200 0.02070000 0.00000000
v -0.02070000 0.02143200 0.00000000
v -0.01970000 0.02170000 0.00000000
v 0.01970000 0.02170000 0.00000000
v 0.02070000 0.02143200 0.00000000
v 0.02143200 0.02070000 0.00000000
v 0.02170000 0.01970000 0.00000000
v 0.02170000 -0.01970000 0.00000000
v 0.02143200 -0.02070000 0.00000000
v 0.02070000 -0.02143200 0.00000000
v 0.01970000 -0.02170000 0.00000000
v -0.01970000 -0.02170000 0.00000000
v 0.02070000 -0.02143200 -0.00900000
v 0.02143200 -0.02070000 -0.00900000
v 0.02170000 -0.01970000 -0.00900000
v 0.02170000 0.01970000 -0.00900000
v 0.02143200 0.02070000 -0.00900000
v -0.02070000 0.02143200 -0.00900000
v -0.02143200 0.02070000 -0.00900000
v -0.02170000 0.01970000 -0.00900000
v -0.02170000 -0.01970000 -0.00900000
v -0.02143200 -0.02070000 -0.00900000
v -0.02070000 -0.02143200 -0.00900000
v -0.01970000 -0.02170000 -0.00900000
v 0.01970000 -0.02170000 -0.00900000
v 0.02070000 0.02143200 -0.00900000
v 0.01970000 0.02170000 -0.00900000
v -0.01970000 0.02170000 -0.00900000
v -0.02971200 -0.02605200 -0.00400000
v -0.02970500 -0.02612500 -0.00450000
v -0.02952900 -0.02696100 -0.00400000
v -0.02938800 -0.02723900 -0.00400000
v -0.02971000 -0.02606600 -0.00495300
v -0.02972200 -0.02589100 -0.00537500
v -0.02938800 -0.02723900 -0.00900000
v -0.02952900 -0.02696100 -0.00900000
v -0.02696100 -0.02952900 -0.00900000
v -0.02723900 -0.02938800 -0.00400000
v -0.02589300 -0.02972100 -0.00494300
v -0.02595000 -0.02971900 -0.00450000
v -0.02696100 -0.02952900 -0.00400000
v -0.02587700 -0.02972200 -0.00400000
v -0.02896100 -0.02807600 -0.00400000
v -0.02896100 -0.02807600 -0.00900000
v -0.02851900 -0.02851900 -0.00400000
v -0.02851900 -0.02851900 -0.00900000
v -0.02807600 -0.02896100 -0.00400000
v -0.02807600 -0.02896100 -0.00900000
v -0.02723900 -0.02938800 -0.00900000
v -0.02880300 -0.02796100 -0.00276400
v -0.02796100 -0.02880300 -0.00276400
v -0.02610700 -0.02690100 -0.00019600
v -0.02969200 -0.02586100 -0.00364100
v -0.02934300 -0.02690100 -0.00276400
v -0.02690100 -0.02934300 -0.00276400
v -0.02690100 -0.02610700 -0.00019600
v -0.02796100 -0.02645200 -0.00076400
v -0.02672500 -0.02880300 -0.00164900
v -0.02645200 -0.02796100 -0.00076400
v -0.02880300 -0.02672500 -0.00164900
v -0.02762700 -0.02834300 -0.00164900
v -0.02710700 -0.02762700 -0.00076400
v -0.02645200 -0.02672500 -0.00019600
v -0.02834300 -0.02762700 -0.00164900
v -0.02762700 -0.02710700 -0.00076400
v -0.02672500 -0.02645200 -0.00019600
v 0.02796100 0.02880300 -0.01023600
v 0.02880300 0.02796100 -0.01023600
v 0.02934300 0.02690100 -0.01023600
v 0.02690100 0.02610700 -0.01280400
v 0.02696100 0.02572500 -0.01280400
v 0.02572500 0.02696100 -0.01280400
v 0.02610700 0.02690100 -0.01280400
v 0.02572500 0.02723900 -0.01266300
v 0.02645200 0.02796100 -0.01223600
v 0.02880300 0.02672500 -0.01135100
v 0.02851900 0.02572500 -0.01179400
v 0.02796100 0.02645200 -0.01223600
v 0.02807600 0.02572500 -0.01223600
v 0.02723900 0.02572500 -0.01266300
v 0.02572500 0.02807600 -0.01223600
v 0.02572500 0.02851900 -0.01179400
v 0.02672500 0.02880300 -0.01135100
v 0.02938800 0.02572500 -0.01051400
v 0.02896100 0.02572500 -0.01135100
v 0.02952900 0.02572500 -0.01023600
v 0.02834300 0.02762700 -0.01135100
v 0.02762700 0.02710700 -0.01223600
v 0.02672500 0.02645200 -0.01280400
v 0.02762700 0.02834300 -0.01135100
v 0.02710700 0.02762700 -0.01223600
v 0.02645200 0.02672500 -0.01280400
v 0.02690100 0.02934300 -0.01023600
v 0.02572500 0.02896100 -0.01135100
v 0.02572500 0.02938800 -0.01051400
v 0.02572500 0.02952900 -0.01023600
v 0.02952900 -0.02572500 -0.01023600
v 0.02938800 -0.02572500 -0.01051400
v 0.02896100 -0.02572500 -0.01135100
v 0.02851900 -0.02572500 -0.01179400
v 0.02807600 -0.02572500 -0.01223600
v 0.02723900 -0.02572500 -0.01266300
v 0.02696100 -0.02572500 -0.01280400
v -0.02572500 0.02952900 -0.01023600
v -0.02572500 0.02938800 -0.01051400
v -0.02572500 0.02896100 -0.01135100
v -0.02572500 0.02851900 -0.01179400
v -0.02572500 0.02807600 -0.01223600
v -0.02572500 0.02723900 -0.01266300
v -0.02572500 0.02696100 -0.01280400
v 0.02880300 -0.02796100 -0.01023600
v 0.02796100 -0.02880300 -0.01023600
v 0.02690100 -0.02934300 -0.01023600
v 0.02610700 -0.02690100 -0.01280400
v 0.02572500 -0.02696100 -0.01280400
v 0.02690100 -0.02610700 -0.01280400
v 0.02796100 -0.02645200 -0.01223600
v 0.02672500 -0.02880300 -0.01135100
v 0.02572500 -0.02851900 -0.01179400
v 0.02645200 -0.02796100 -0.01223600
v 0.02572500 -0.02807600 -0.01223600
v 0.02572500 -0.02723900 -0.01266300
v 0.02880300 -0.02672500 -0.01135100
v 0.02572500 -0.02938800 -0.01051400
v 0.02572500 -0.02896100 -0.01135100
v 0.02572500 -0.02952900 -0.01023600
v 0.02762700 -0.02834300 -0.01135100
v 0.02710700 -0.02762700 -0.01223600
v 0.02645200 -0.02672500 -0.01280400
v 0.02834300 -0.02762700 -0.01135100
v 0.02762700 -0.02710700 -0.01223600
v 0.02672500 -0.02645200 -0.01280400
v 0.02934300 -0.02690100 -0.01023600
v -0.02880300 0.02796100 -0.01023600
v -0.02796100 0.02880300 -0.01023600
v -0.02690100 0.02934300 -0.01023600
v -0.02610700 0.02690100 -0.01280400
v -0.02696100 0.02572500 -0.01280400
v -0.02690100 0.02610700 -0.01280400
v -0.02723900 0.02572500 -0.01266300
v -0.02796100 0.02645200 -0.01223600
v -0.02672500 0.02880300 -0.01135100
v -0.02645200 0.02796100 -0.01223600
v -0.02807600 0.02572500 -0.01223600
v -0.02851900 0.02572500 -0.01179400
v -0.02880300 0.02672500 -0.01135100
v -0.02762700 0.02834300 -0.01135100
v -0.02710700 0.02762700 -0.01223600
v -0.02645200 0.02672500 -0.01280400
v -0.02834300 0.02762700 -0.01135100
v -0.02762700 0.02710700 -0.01223600
v -0.02672500 0.02645200 -0.01280400
v -0.02934300 0.02690100 -0.01023600
v -0.02896100 0.02572500 -0.01135100
v -0.02938800 0.02572500 -0.01051400
v -0.02952900 0.02572500 -0.01023600
v -0.02572500 -0.02952900 -0.01023600
v -0.02572500 -0.02938800 -0.01051400
v -0.02572500 -0.02896100 -0.01135100
v -0.02572500 -0.02851900 -0.01179400
v -0.02572500 -0.02807600 -0.01223600
v -0.02572500 -0.02723900 -0.01266300
v -0.02572500 -0.02696100 -0.01280400
v -0.02952900 -0.02572500 -0.01023600
v -0.02938800 -0.02572500 -0.01051400
v -0.02896100 -0.02572500 -0.01135100
v -0.02851900 -0.02572500 -0.01179400
v -0.02807600 -0.02572500 -0.01223600
v -0.02723900 -0.02572500 -0.01266300
v -0.02696100 -0.02572500 -0.01280400
v -0.02796100 -0.02880300 -0.01023600
v -0.02880300 -0.02796100 -0.01023600
v -0.02934300 -0.02690100 -0.01023600
v -0.02690100 -0.02610700 -0.01280400
v -0.02610700 -0.02690100 -0.01280400
v -0.02645200 -0.02796100 -0.01223600
v -0.02880300 -0.02672500 -0.01135100
v -0.02796100 -0.02645200 -0.01223600
v -0.02672500 -0.02880300 -0.01135100
v -0.02834300 -0.02762700 -0.01135100
v -0.02762700 -0.02710700 -0.01223600
v -0.02672500 -0.02645200 -0.01280400
v -0.02762700 -0.02834300 -0.01135100
v -0.02710700 -0.02762700 -0.01223600
v -0.02645200 -0.02672500 -0.01280400
v -0.02690100 -0.02934300 -0.01023600
v 0.00600000 -0.02437500 -0.00055000
v 0.01800000 -0.02437500 -0.00055000
v 0.00600000 -0.02608900 -0.00094100
v 0.01800000 -0.02608900 -0.00094100
v 0.00600000 -0.02746400 -0.00203700
v 0.01800000 -0.02746400 -0.00203700
v 0.00600000 -0.02822700 -0.00362100
v 0.01800000 -0.02822700 -0.00362100
v 0.00600000 -0.02822700 -0.00537900
v 0.01800000 -0.02822700 -0.00537900
v 0.00600000 -0.02746400 -0.00696300
v 0.01800000 -0.02746400 -0.00696300
v 0.00600000 -0.02608900 -0.00805900
v 0.01800000 -0.02608900 -0.00805900
v 0.00600000 -0.02437500 -0.00845000
v 0.01800000 -0.02437500 -0.00845000
v 0.01800000 -0.02170000 -0.00055000
v 0.00600000 -0.02170000 -0.00055000
v 0.00600000 -0.02170000 -0.00845000
v 0.01800000 -0.02170000 -0.00845000
v 0.00600000 0.02437500 -0.00845000
v 0.01800000 0.02437500 -0.00845000
v 0.00600000 0.02608900 -0.00805900
v 0.01800000 0.02608900 -0.00805900
v 0.00600000 0.02746400 -0.00696300
v 0.01800000 0.02746400 -0.00696300
v 0.00600000 0.02822700 -0.00537900
v 0.01800000 0.02822700 -0.00537900
v 0.00600000 0.02822700 -0.00362100
v 0.01800000 0.02822700 -0.00362100
v 0.00600000 0.02746400 -0.00203700
v 0.01800000 0.02746400 -0.00203700
v 0.00600000 0.02608900 -0.00094100
v 0.01800000 0.02608900 -0.00094100
v 0.00600000 0.02437500 -0.00055000
v 0.01800000 0.02437500 -0.00055000
v 0.01800000 0.02170000 -0.00845000
v 0.00600000 0.02170000 -0.00845000
v 0.00600000 0.02170000 -0.00055000
v 0.01800000 0.02170000 -0.00055000
v -0.01800000 0.02350000 -0.00601600
v -0.01800000 0.02286000 -0.00537500
v -0.01800000 0.02262500 -0.00450000
v -0.01800000 0.02612500 -0.00450000
v -0.01800000 0.02589100 -0.00362500
v -0.01800000 0.02525000 -0.00298400
v -0.01800000 0.02437500 -0.00275000
v -0.01800000 0.02350000 -0.00298400
v -0.01800000 0.02286000 -0.00362500
v -0.01800000 0.02437500 -0.00625000
v -0.01800000 0.02525000 -0.00601600
v -0.01800000 0.02589100 -0.00537500
v -0.02420000 0.02437500 -0.00275000
v -0.02507500 0.02350000 -0.00298400
v -0.02595000 0.02262500 -0.00450000
v -0.02589100 0.02268500 -0.00404700
v -0.02571600 0.02286000 -0.00362500
v -0.02589100 0.02268500 -0.00495300
v -0.02332500 0.02350000 -0.00298400
v -0.02268500 0.02286000 -0.00362500
v -0.02571600 0.02286000 -0.00537500
v -0.02507500 0.02350000 -0.00601600
v -0.02420000 0.02437500 -0.00625000
v -0.02332500 0.02350000 -0.00601600
v -0.02268500 0.02286000 -0.00537500
v -0.02251000 0.02268500 -0.00495300
v -0.02245000 0.02262500 -0.00450000
v -0.02251000 0.02268500 -0.00404700
v -0.02507500 -0.02350000 -0.00298400
v -0.02507500 -0.02525000 -0.00298400
v -0.02595000 -0.02612500 -0.00450000
v -0.02589100 -0.02606600 -0.00404700
v -0.02571600 -0.02589100 -0.00362500
v -0.02571600 -0.02589100 -0.00537500
v -0.02589100 -0.02606600 -0.00495300
v -0.02507500 -0.02525000 -0.00601600
v -0.02507500 -0.02350000 -0.00601600
v -0.02571600 -0.02286000 -0.00537500
v -0.02589100 -0.02268500 -0.00495300
v -0.02595000 -0.02262500 -0.00450000
v -0.02589100 -0.02268500 -0.00404700
v -0.02571600 -0.02286000 -0.00362500
v -0.02420000 -0.00600000 -0.00055000
v -0.02420000 -0.01800000 -0.00055000
v -0.02591400 -0.00600000 -0.00094100
v -0.02591400 -0.01800000 -0.00094100
v -0.02728900 -0.00600000 -0.00203700
v -0.02728900 -0.01800000 -0.00203700
v -0.02805200 -0.00600000 -0.00362100
v -0.02805200 -0.01800000 -0.00362100
v -0.02805200 -0.00600000 -0.00537900
v -0.02805200 -0.01800000 -0.00537900
v -0.02728900 -0.00600000 -0.00696300
v -0.02728900 -0.01800000 -0.00696300
v -0.02591400 -0.00600000 -0.00805900
v -0.02591400 -0.01800000 -0.00805900
v -0.02420000 -0.00600000 -0.00845000
v -0.02420000 -0.01800000 -0.00845000
v -0.02170000 -0.01800000 -0.00055000
v -0.02170000 -0.00600000 -0.00055000
v -0.02170000 -0.00600000 -0.00845000
v -0.02170000 -0.01800000 -0.00845000
v -0.02332500 0.01800000 -0.00298400
v -0.02420000 0.01800000 -0.00275000
v -0.02507500 0.01800000 -0.00298400
v -0.02571600 0.01800000 -0.00362500
v -0.02595000 0.01800000 -0.00450000
v -0.02332500 0.01800000 -0.00601600
v -0.02420000 0.01800000 -0.00625000
v -0.02507500 0.01800000 -0.00601600
v -0.02571600 0.01800000 -0.00537500
v -0.02268500 0.01800000 -0.00362500
v -0.02245000 0.01800000 -0.00450000
v -0.02268500 0.01800000 -0.00537500
v -0.02595000 -0.01800000 -0.00450000
v -0.02571600 -0.01800000 -0.00362500
v -0.02507500 -0.01800000 -0.00298400
v -0.02420000 -0.01800000 -0.00275000
v -0.02332500 -0.01800000 -0.00298400
v -0.02332500 -0.01800000 -0.00601600
v -0.02420000 -0.01800000 -0.00625000
v -0.02507500 -0.01800000 -0.00601600
v -0.02571600 -0.01800000 -0.00537500
v -0.02268500 -0.01800000 -0.00537500
v -0.02245000 -0.01800000 -0.00450000
v -0.02268500 -0.01800000 -0.00362500
v 0.02420000 -0.00600000 -0.00845000
v 0.02420000 -0.01800000 -0.00845000
v 0.02591400 -0.00600000 -0.00805900
v 0.02591400 -0.01800000 -0.00805900
v 0.02728900 -0.00600000 -0.00696300
v 0.02728900 -0.01800000 -0.00696300
v 0.02805200 -0.00600000 -0.00537900
v 0.02805200 -0.01800000 -0.00537900
v 0.02805200 -0.00600000 -0.00362100
v 0.02805200 -0.01800000 -0.00362100
v 0.02728900 -0.00600000 -0.00203700
v 0.02728900 -0.01800000 -0.00203700
v 0.02591400 -0.00600000 -0.00094100
v 0.02591400 -0.01800000 -0.00094100
v 0.02420000 -0.00600000 -0.00055000
v 0.02420000 -0.01800000 -0.00055000
v 0.02170000 -0.01800000 -0.00845000
v 0.02170000 -0.00600000 -0.00845000
v 0.02170000 -0.00600000 -0.00055000
v 0.02170000 -0.01800000 -0.00055000
v 0.02332500 0.01800000 -0.00601600
v 0.02420000 0.01800000 -0.00625000
v 0.02507500 0.01800000 -0.00601600
v 0.02571600 0.01800000 -0.00537500
v 0.02595000 0.01800000 -0.00450000
v 0.02268500 0.01800000 -0.00537500
v 0.02245000 0.01800000 -0.00450000
v 0.02268500 0.01800000 -0.00362500
v 0.02332500 0.01800000 -0.00298400
v 0.02420000 0.01800000 -0.00275000
v 0.02507500 0.01800000 -0.00298400
v 0.02571600 0.01800000 -0.00362500
v 0.02332500 -0.01800000 -0.00298400
v 0.02268500 -0.01800000 -0.00362500
v 0.02245000 -0.01800000 -0.00450000
v 0.02420000 -0.01800000 -0.00275000
v 0.02507500 -0.01800000 -0.00298400
v 0.02571600 -0.01800000 -0.00362500
v 0.02595000 -0.01800000 -0.00450000
v 0.02268500 -0.01800000 -0.00537500
v 0.02332500 -0.01800000 -0.00601600
v 0.02420000 -0.01800000 -0.00625000
v 0.02507500 -0.01800000 -0.00601600
v 0.02571600 -0.01800000 -0.00537500
v -0.00600000 0.02437500 -0.00275000
v 0.00600000 0.02437500 -0.00275000
v -0.00600000 0.02350000 -0.00298400
v 0.00600000 0.02350000 -0.00298400
v -0.00600000 0.02286000 -0.00362500
v 0.00600000 0.02286000 -0.00362500
v -0.00600000 0.02262500 -0.00450000
v 0.00600000 0.02262500 -0.00450000
v -0.00600000 0.02286000 -0.00537500
v 0.00600000 0.02286000 -0.00537500
v -0.00600000 0.02350000 -0.00601600
v 0.00600000 0.02350000 -0.00601600
v -0.00600000 0.02437500 -0.00625000
v 0.00600000 0.02437500 -0.00625000
v -0.00600000 0.02525000 -0.00601600
v 0.00600000 0.02525000 -0.00601600
v -0.00600000 0.02589100 -0.00537500
v 0.00600000 0.02589100 -0.00537500
v -0.00600000 0.02612500 -0.00450000
v 0.00600000 0.02612500 -0.00450000
v -0.00600000 0.02589100 -0.00362500
v 0.00600000 0.02589100 -0.00362500
v -0.00600000 0.02525000 -0.00298400
v 0.00600000 0.02525000 -0.00298400
v -0.00600000 -0.02437500 -0.00275000
v 0.00600000 -0.02437500 -0.00275000
v -0.00600000 -0.02525000 -0.00298400
v 0.00600000 -0.02525000 -0.00298400
v -0.00600000 -0.02589100 -0.00362500
v 0.00600000 -0.02589100 -0.00362500
v -0.00600000 -0.02612500 -0.00450000
v 0.00600000 -0.02612500 -0.00450000
v -0.00600000 -0.02589100 -0.00537500
v 0.00600000 -0.02589100 -0.00537500
v -0.00600000 -0.02525000 -0.00601600
v 0.00600000 -0.02525000 -0.00601600
v -0.00600000 -0.02437500 -0.00625000
v 0.00600000 -0.02437500 -0.00625000
v -0.00600000 -0.02350000 -0.00601600
v 0.00600000 -0.02350000 -0.00601600
v -0.00600000 -0.02286000 -0.00537500
v 0.00600000 -0.02286000 -0.00537500
v -0.00600000 -0.02262500 -0.00450000
v 0.00600000 -0.02262500 -0.00450000
v -0.00600000 -0.02286000 -0.00362500
v 0.00600000 -0.02286000 -0.00362500
v -0.00600000 -0.02350000 -0.00298400
v 0.00600000 -0.02350000 -0.00298400
v -0.02332500 0.00600000 -0.00601600
v -0.02420000 0.00600000 -0.00625000
v -0.02507500 0.00600000 -0.00601600
v -0.02571600 0.00600000 -0.00537500
v -0.02595000 0.00600000 -0.00450000
v -0.02268500 0.00600000 -0.00537500
v -0.02245000 0.00600000 -0.00450000
v -0.02268500 0.00600000 -0.00362500
v -0.02332500 0.00600000 -0.00298400
v -0.02420000 0.00600000 -0.00275000
v -0.02507500 0.00600000 -0.00298400
v -0.02571600 0.00600000 -0.00362500
v -0.02420000 -0.00600000 -0.00275000
v -0.02507500 -0.00600000 -0.00298400
v -0.02571600 -0.00600000 -0.00362500
v -0.02595000 -0.00600000 -0.00450000
v -0.02571600 -0.00600000 -0.00537500
v -0.02507500 -0.00600000 -0.00601600
v -0.02420000 -0.00600000 -0.00625000
v -0.02332500 -0.00600000 -0.00601600
v -0.02268500 -0.00600000 -0.00537500
v -0.02245000 -0.00600000 -0.00450000
v -0.02268500 -0.00600000 -0.00362500
v -0.02332500 -0.00600000 -0.00298400
v 0.02332500 0.00600000 -0.00298400
v 0.02268500 0.00600000 -0.00362500
v 0.02245000 0.00600000 -0.00450000
v 0.02420000 0.00600000 -0.00275000
v 0.02507500 0.00600000 -0.00298400
v 0.02571600 0.00600000 -0.00362500
v 0.02595000 0.00600000 -0.00450000
v 0.02268500 0.00600000 -0.00537500
v 0.02332500 0.00600000 -0.00601600
v 0.02420000 0.00600000 -0.00625000
v 0.02507500 0.00600000 -0.00601600
v 0.02571600 0.00600000 -0.00537500
v 0.02420000 -0.00600000 -0.00275000
v 0.02332500 -0.00600000 -0.00298400
v 0.02268500 -0.00600000 -0.00362500
v 0.02245000 -0.00600000 -0.00450000
v 0.02268500 -0.00600000 -0.00537500
v 0.02332500 -0.00600000 -0.00601600
v 0.02420000 -0.00600000 -0.00625000
v 0.02507500 -0.00600000 -0.00601600
v 0.02571600 -0.00600000 -0.00537500
v 0.02595000 -0.00600000 -0.00450000
v 0.02571600 -0.00600000 -0.00362500
v 0.02507500 -0.00600000 -0.00298400
v -0.02507800 0.02572500 -0.01225000
v -0.02548100 0.02572500 -0.01225000
v -0.02505700 0.02255000 -0.01225000
v -0.02489600 0.02255000 -0.01225000
v -0.02369200 0.02507400 -0.01225000
v -0.02189900 0.02572500 -0.01225000
v -0.02230300 0.02572500 -0.01225000
v -0.02258500 0.02348600 -0.01225000
v -0.02361500 0.02572500 -0.01225000
v -0.02376900 0.02572500 -0.01225000
v -0.02479600 0.02348600 -0.01225000
f 19 2 18
f 18 2 1
f 18 1 17
f 17 1 3
f 17 3 16
f 16 3 4
f 16 4 15
f 15 4 5
f 15 5 30
f 30 5 6
f 30 6 29
f 29 6 7
f 29 7 28
f 28 7 8
f 28 8 27
f 27 8 9
f 27 9 26
f 26 9 10
f 26 10 25
f 25 10 11
f 25 11 24
f 24 11 12
f 24 12 23
f 23 12 13
f 23 13 22
f 22 13 14
f 22 14 21
f 21 14 31
f 21 31 20
f 20 31 32
f 20 32 19
f 19 32 2
f 33 34 35
f 35 34 36
f 35 36 37
f 37 36 38
f 37 38 39
f 39 38 40
f 39 40 41
f 41 40 42
f 41 42 43
f 44 45 46
f 46 45 47
f 46 47 48
f 46 49 44
f 44 49 50
f 44 50 51
f 42 52 43
f 43 52 53
f 43 53 54
f 54 53 55
f 54 55 56
f 56 55 57
f 56 57 58
f 58 57 59
f 58 59 60
f 60 59 61
f 60 61 50
f 50 61 62
f 50 62 51
f 63 64 65
f 65 64 66
f 65 66 67
f 67 66 68
f 67 68 33
f 33 68 69
f 33 69 34
f 48 70 46
f 46 70 71
f 46 71 63
f 63 71 72
f 63 72 64
f 73 74 75
f 75 74 76
f 75 76 77
f 77 76 78
f 77 78 79
f 80 81 82
f 82 81 83
f 82 83 84
f 84 83 85
f 84 85 86
f 86 85 87
f 86 87 88
f 88 87 89
f 88 89 90
f 91 92 93
f 93 92 94
f 93 94 95
f 93 96 91
f 91 96 97
f 91 97 98
f 89 99 90
f 90 99 100
f 90 100 101
f 101 100 102
f 101 102 103
f 103 102 104
f 103 104 105
f 105 104 106
f 105 106 107
f 107 106 108
f 107 108 97
f 97 108 109
f 97 109 98
f 110 111 112
f 112 111 113
f 112 113 114
f 114 113 115
f 114 115 80
f 80 115 116
f 80 116 81
f 95 117 93
f 93 117 118
f 93 118 110
f 110 118 119
f 110 119 111
f 120 121 122
f 122 121 123
f 122 123 124
f 124 123 125
f 124 125 126
f 127 128 129
f 129 128 130
f 131 132 133
f 133 132 134
f 133 134 135
f 135 134 136
f 135 136 137
f 137 136 127
f 127 129 137
f 137 129 138
f 137 138 139
f 139 138 140
f 139 140 141
f 142 143 144
f 145 146 147
f 148 131 133
f 133 149 148
f 148 149 150
f 148 150 151
f 151 150 139
f 151 139 141
f 152 153 154
f 154 153 155
f 154 155 156
f 156 155 157
f 156 157 158
f 158 157 159
f 158 159 160
f 160 159 161
f 160 161 162
f 162 161 163
f 162 163 164
f 164 163 165
f 164 165 166
f 166 165 167
f 153 152 168
f 168 152 169
f 170 166 171
f 171 166 167
f 172 173 174
f 174 173 175
f 174 175 176
f 176 175 177
f 176 177 178
f 178 177 179
f 178 179 180
f 180 179 181
f 180 181 182
f 182 181 183
f 182 183 184
f 184 183 185
f 184 185 186
f 186 185 187
f 173 172 188
f 188 172 189
f 190 186 191
f 191 186 187
f 192 193 194
f 194 193 195
f 194 195 196
f 196 195 197
f 196 197 198
f 198 197 199
f 198 199 200
f 200 199 201
f 200 201 202
f 202 201 203
f 202 203 204
f 204 203 205
f 204 205 206
f 206 205 207
f 193 192 208
f 208 192 209
f 210 206 211
f 211 206 207
f 212 213 214
f 214 213 215
f 214 215 216
f 216 215 217
f 216 217 218
f 218 217 219
f 218 219 220
f 220 219 221
f 220 221 222
f 222 221 223
f 222 223 224
f 224 223 225
f 224 225 226
f 226 225 227
f 213 212 228
f 228 212 229
f 230 226 231
f 231 226 227
f 232 233 234
f 234 233 235
f 234 235 236
f 237 238 239
f 239 238 240
f 239 240 232
f 241 242 243
f 243 126 241
f 241 126 125
f 241 125 244
f 244 125 123
f 244 123 121
f 232 240 233
f 233 240 245
f 233 245 246
f 246 245 247
f 246 247 248
f 248 247 249
f 248 249 250
f 250 249 251
f 250 251 241
f 241 251 252
f 241 252 242
f 233 246 253
f 248 250 254
f 255 256 257
f 236 235 258
f 258 235 259
f 258 259 260
f 121 120 244
f 244 120 261
f 244 261 241
f 255 262 263
f 263 262 264
f 263 264 265
f 266 267 268
f 268 267 269
f 268 269 256
f 256 269 270
f 256 270 257
f 264 271 265
f 265 271 272
f 265 272 273
f 120 274 261
f 261 274 275
f 261 275 266
f 266 275 276
f 266 276 267
f 272 277 273
f 273 277 278
f 273 278 259
f 259 278 279
f 259 279 260
f 250 241 254
f 254 241 261
f 254 261 280
f 280 261 266
f 280 266 281
f 281 266 268
f 281 268 282
f 282 268 256
f 282 256 255
f 246 248 253
f 253 248 254
f 253 254 283
f 283 254 280
f 283 280 284
f 284 280 281
f 284 281 285
f 285 281 282
f 285 282 255
f 235 233 259
f 259 233 253
f 259 253 273
f 273 253 283
f 273 283 265
f 265 283 284
f 265 284 263
f 263 284 285
f 263 285 255
f 77 58 75
f 75 58 60
f 75 60 73
f 73 60 50
f 73 50 286
f 63 243 46
f 46 243 286
f 46 286 49
f 49 286 50
f 33 105 67
f 67 105 107
f 67 107 65
f 65 107 97
f 65 97 63
f 63 97 96
f 63 96 243
f 80 122 114
f 114 122 124
f 114 124 112
f 112 124 126
f 112 126 110
f 110 126 243
f 110 243 93
f 93 243 96
f 287 288 289
f 290 291 292
f 291 293 292
f 292 293 294
f 292 294 295
f 296 290 297
f 297 290 292
f 297 292 298
f 298 292 287
f 298 287 299
f 299 287 289
f 300 301 302
f 297 303 296
f 296 303 300
f 296 300 304
f 304 300 302
f 305 306 307
f 307 306 308
f 307 308 309
f 309 308 310
f 311 312 313
f 311 313 314
f 314 313 315
f 314 315 288
f 316 317 318
f 318 317 305
f 318 305 319
f 319 305 307
f 319 307 320
f 320 307 321
f 320 321 322
f 322 321 323
f 322 323 324
f 324 323 325
f 324 325 326
f 326 325 314
f 326 314 327
f 327 314 288
f 327 288 287
f 328 255 329
f 329 255 257
f 329 257 330
f 330 257 270
f 330 270 331
f 331 270 269
f 331 269 332
f 332 269 267
f 332 267 333
f 333 267 276
f 333 276 334
f 275 88 90
f 103 105 33
f 35 37 90
f 35 90 33
f 33 90 101
f 33 101 103
f 276 275 334
f 334 275 90
f 334 90 39
f 39 90 37
f 39 41 334
f 334 41 43
f 334 43 54
f 58 77 56
f 56 77 79
f 56 79 54
f 54 79 335
f 54 335 334
f 122 80 120
f 120 80 82
f 120 82 274
f 274 82 84
f 274 84 275
f 275 84 86
f 275 86 88
f 314 325 336
f 323 321 337
f 338 339 340
f 340 339 341
f 307 309 342
f 342 309 310
f 342 310 343
f 312 311 344
f 344 311 345
f 341 346 347
f 347 346 348
f 347 348 349
f 338 340 350
f 350 340 351
f 350 351 352
f 352 351 353
f 352 353 354
f 348 355 349
f 349 355 356
f 349 356 357
f 354 353 358
f 358 353 342
f 358 342 359
f 359 342 343
f 359 343 360
f 356 361 357
f 357 361 362
f 357 362 345
f 345 362 363
f 345 363 344
f 321 307 337
f 337 307 342
f 337 342 364
f 364 342 353
f 364 353 365
f 365 353 351
f 365 351 366
f 366 351 340
f 366 340 341
f 325 323 336
f 336 323 337
f 336 337 367
f 367 337 364
f 367 364 368
f 368 364 365
f 368 365 369
f 369 365 366
f 369 366 341
f 311 314 345
f 345 314 336
f 345 336 357
f 357 336 367
f 357 367 349
f 349 367 368
f 349 368 347
f 347 368 369
f 347 369 341
f 370 344 363
f 371 372 373
f 373 372 374
f 373 374 375
f 375 374 376
f 371 377 372
f 372 377 378
f 372 378 379
f 379 378 380
f 379 380 381
f 381 380 382
f 383 301 380
f 380 301 384
f 380 384 382
f 383 385 301
f 301 385 386
f 301 386 302
f 387 388 362
f 362 388 389
f 362 389 363
f 363 389 390
f 363 390 370
f 341 391 346
f 346 391 392
f 346 392 348
f 348 392 393
f 348 393 355
f 355 393 394
f 355 394 356
f 356 394 395
f 356 395 361
f 361 395 396
f 361 396 362
f 362 396 372
f 362 372 387
f 387 372 379
f 81 234 83
f 83 234 236
f 83 236 85
f 81 116 234
f 234 116 115
f 234 115 232
f 232 115 113
f 232 113 239
f 239 113 111
f 111 119 239
f 239 119 118
f 239 118 237
f 237 118 117
f 237 117 397
f 397 117 95
f 398 399 94
f 400 401 402
f 402 401 403
f 402 403 404
f 405 89 406
f 406 89 87
f 406 87 260
f 260 87 85
f 260 85 258
f 258 85 236
f 104 102 407
f 407 102 100
f 407 100 405
f 405 100 99
f 405 99 89
f 94 92 398
f 398 92 91
f 398 91 408
f 408 91 98
f 98 109 408
f 408 109 108
f 408 108 407
f 407 108 106
f 407 106 104
f 406 404 405
f 405 404 403
f 405 403 409
f 409 403 410
f 409 410 411
f 411 410 412
f 411 412 413
f 413 412 414
f 413 414 415
f 415 414 416
f 415 416 417
f 417 416 418
f 400 419 401
f 401 419 420
f 401 420 421
f 421 420 422
f 421 422 423
f 423 422 424
f 423 424 425
f 425 424 426
f 425 426 427
f 427 426 428
f 427 428 429
f 429 428 430
f 429 430 431
f 431 430 432
f 431 432 433
f 433 432 397
f 433 397 399
f 399 397 95
f 399 95 94
f 418 434 417
f 417 434 435
f 417 435 436
f 436 435 433
f 436 433 437
f 437 433 399
f 438 439 440
f 440 439 441
f 440 441 442
f 442 441 443
f 442 443 444
f 444 443 445
f 444 445 446
f 446 445 447
f 446 447 448
f 448 447 449
f 448 449 450
f 450 449 451
f 450 451 452
f 438 453 439
f 439 453 454
f 439 454 455
f 455 454 456
f 455 456 457
f 457 456 458
f 457 458 459
f 459 458 460
f 459 460 461
f 461 460 462
f 461 462 463
f 463 462 464
f 463 464 451
f 451 464 465
f 451 465 452
f 466 467 468
f 468 360 466
f 466 360 343
f 466 343 469
f 469 343 310
f 469 310 470
f 470 310 308
f 470 308 471
f 308 306 471
f 471 306 305
f 471 305 472
f 472 305 317
f 472 317 473
f 474 475 476
f 476 475 448
f 476 448 477
f 477 448 473
f 477 473 478
f 478 473 317
f 479 480 474
f 474 480 481
f 474 481 475
f 474 482 479
f 479 482 483
f 479 483 484
f 484 483 485
f 484 485 486
f 486 485 487
f 486 487 488
f 487 489 488
f 488 489 490
f 488 490 456
f 456 490 491
f 456 491 467
f 467 491 492
f 467 492 468
f 493 494 495
f 495 494 496
f 495 496 497
f 497 496 498
f 497 498 499
f 499 498 500
f 499 500 501
f 501 500 502
f 501 502 503
f 503 502 504
f 503 504 505
f 505 504 506
f 505 506 507
f 493 508 494
f 494 508 509
f 494 509 510
f 510 509 511
f 510 511 512
f 512 511 513
f 512 513 514
f 514 513 515
f 514 515 516
f 516 515 517
f 516 517 518
f 518 517 519
f 518 519 506
f 506 519 520
f 506 520 507
f 478 317 316
f 430 316 432
f 432 316 238
f 432 238 397
f 397 238 237
f 424 483 426
f 426 483 482
f 426 482 428
f 428 482 474
f 428 474 430
f 430 474 476
f 430 476 316
f 316 476 477
f 316 477 478
f 521 522 523
f 523 524 521
f 521 524 525
f 521 525 526
f 522 527 528
f 529 530 531
f 528 532 522
f 522 532 533
f 522 533 523
f 523 533 534
f 523 534 535
f 535 534 529
f 535 529 536
f 536 529 531
f 537 538 539
f 539 538 540
f 539 540 541
f 541 540 542
f 543 78 76
f 543 76 544
f 544 76 74
f 544 74 73
f 521 526 545
f 545 526 537
f 545 537 546
f 546 537 539
f 546 539 547
f 547 539 548
f 547 548 549
f 549 548 550
f 549 550 551
f 551 550 552
f 551 552 553
f 553 552 544
f 553 544 554
f 554 544 73
f 554 73 286
f 544 552 555
f 550 548 556
f 557 558 559
f 559 558 328
f 539 541 560
f 560 541 542
f 560 542 561
f 78 543 79
f 79 543 562
f 328 329 563
f 563 329 330
f 563 330 564
f 557 559 565
f 565 559 566
f 565 566 567
f 567 566 568
f 567 568 569
f 330 331 564
f 564 331 332
f 564 332 570
f 569 568 571
f 571 568 560
f 571 560 572
f 572 560 561
f 572 561 573
f 332 333 570
f 570 333 334
f 570 334 562
f 562 334 335
f 562 335 79
f 548 539 556
f 556 539 560
f 556 560 574
f 574 560 568
f 574 568 575
f 575 568 566
f 575 566 576
f 576 566 559
f 576 559 328
f 552 550 555
f 555 550 556
f 555 556 577
f 577 556 574
f 577 574 578
f 578 574 575
f 578 575 579
f 579 575 576
f 579 576 328
f 543 544 562
f 562 544 555
f 562 555 570
f 570 555 577
f 570 577 564
f 564 577 578
f 564 578 563
f 563 578 579
f 563 579 328
f 580 571 581
f 581 571 572
f 581 572 573
f 582 583 584
f 582 584 585
f 586 530 584
f 584 530 587
f 584 587 585
f 586 588 530
f 530 588 589
f 530 589 531
f 583 590 584
f 584 590 591
f 584 591 592
f 590 593 591
f 591 593 594
f 591 594 595
f 595 594 596
f 391 328 597
f 597 328 558
f 597 558 598
f 598 558 557
f 598 557 599
f 599 557 565
f 599 565 600
f 600 565 567
f 600 567 601
f 601 567 569
f 601 569 591
f 591 569 571
f 591 571 592
f 592 571 580
f 492 358 468
f 468 358 359
f 468 359 360
f 419 400 490
f 419 490 420
f 489 424 490
f 490 424 422
f 490 422 420
f 489 487 424
f 424 487 485
f 424 485 483
f 400 402 490
f 490 402 278
f 490 278 491
f 402 404 278
f 278 404 406
f 278 406 279
f 279 406 260
f 255 341 262
f 262 341 339
f 262 339 264
f 264 339 338
f 264 338 271
f 271 338 350
f 271 350 272
f 272 350 352
f 272 352 277
f 277 352 354
f 277 354 278
f 278 354 358
f 278 358 491
f 491 358 492
f 602 149 135
f 135 149 133
f 150 603 139
f 139 603 137
f 603 602 137
f 137 602 135
f 604 605 391
f 391 605 606
f 391 606 328
f 328 606 607
f 328 607 608
f 608 609 328
f 328 609 610
f 328 610 255
f 255 610 611
f 255 611 612
f 612 613 255
f 255 613 614
f 255 614 341
f 341 614 615
f 341 615 616
f 616 617 341
f 341 617 618
f 341 618 391
f 391 618 619
f 391 619 604
f 620 621 602
f 602 621 622
f 602 622 149
f 149 622 623
f 149 623 624
f 625 626 150
f 150 626 627
f 150 627 603
f 603 627 628
f 603 628 629
f 629 630 603
f 603 630 631
f 603 631 602
f 602 631 632
f 602 632 620
f 624 633 149
f 149 633 634
f 149 634 150
f 150 634 635
f 150 635 625
f 636 637 638
f 638 637 639
f 640 641 642
f 527 522 641
f 641 522 643
f 641 643 642
f 644 292 645
f 645 292 295
f 295 646 645
f 645 646 647
f 645 647 648
f 648 647 649
f 637 640 639
f 639 640 642
f 639 642 650
f 650 642 651
f 650 651 652
f 652 651 653
f 652 653 654
f 654 653 655
f 654 655 645
f 645 655 656
f 645 656 644
f 639 650 657
f 652 654 658
f 391 659 392
f 636 638 660
f 660 638 661
f 660 661 596
f 649 376 648
f 648 376 662
f 648 662 645
f 391 597 663
f 663 597 598
f 663 598 664
f 665 395 666
f 666 395 394
f 666 394 659
f 659 394 393
f 659 393 392
f 598 599 664
f 664 599 600
f 664 600 667
f 376 374 662
f 662 374 372
f 662 372 665
f 665 372 396
f 665 396 395
f 600 601 667
f 667 601 591
f 667 591 661
f 661 591 595
f 661 595 596
f 654 645 658
f 658 645 662
f 658 662 668
f 668 662 665
f 668 665 669
f 669 665 666
f 669 666 670
f 670 666 659
f 670 659 391
f 650 652 657
f 657 652 658
f 657 658 671
f 671 658 668
f 671 668 672
f 672 668 669
f 672 669 673
f 673 669 670
f 673 670 391
f 638 639 661
f 661 639 657
f 661 657 667
f 667 657 671
f 667 671 664
f 664 671 672
f 664 672 663
f 663 672 673
f 663 673 391
f 252 251 674
f 249 247 675
f 245 240 676
f 134 677 678
f 134 679 680
f 680 679 681
f 680 681 682
f 683 684 685
f 685 684 686
f 685 686 677
f 677 686 687
f 677 687 678
f 681 688 682
f 682 688 689
f 682 689 690
f 676 691 683
f 683 691 692
f 683 692 684
f 240 238 676
f 676 238 693
f 676 693 691
f 247 245 675
f 675 245 676
f 675 676 694
f 694 676 683
f 694 683 695
f 695 683 685
f 695 685 696
f 696 685 677
f 696 677 134
f 251 249 674
f 674 249 675
f 674 675 697
f 697 675 694
f 697 694 698
f 698 694 695
f 698 695 699
f 699 695 696
f 699 696 134
f 242 252 700
f 700 252 674
f 700 674 690
f 690 674 697
f 690 697 682
f 682 697 698
f 682 698 680
f 680 698 699
f 680 699 134
f 689 701 690
f 690 701 702
f 690 702 700
f 700 702 703
f 700 703 242
f 242 703 243
f 238 316 693
f 693 316 704
f 693 704 691
f 691 704 705
f 691 705 692
f 692 705 706
f 692 706 684
f 684 706 707
f 684 707 686
f 686 707 708
f 686 708 687
f 687 708 709
f 687 709 678
f 678 709 710
f 678 710 134
f 134 710 136
f 286 243 711
f 711 243 703
f 711 703 712
f 712 703 702
f 712 702 713
f 713 702 701
f 713 701 714
f 714 701 689
f 714 689 715
f 715 689 688
f 715 688 716
f 134 132 679
f 679 132 716
f 679 716 681
f 681 716 688
f 132 142 716
f 716 142 144
f 716 144 145
f 145 147 716
f 716 147 130
f 716 130 717
f 717 130 128
f 319 320 718
f 322 324 719
f 326 327 720
f 136 721 722
f 136 710 723
f 723 710 709
f 723 709 724
f 725 726 727
f 727 726 728
f 727 728 721
f 721 728 729
f 721 729 722
f 709 708 724
f 724 708 707
f 724 707 730
f 720 731 725
f 725 731 732
f 725 732 726
f 327 287 720
f 720 287 733
f 720 733 731
f 324 326 719
f 719 326 720
f 719 720 734
f 734 720 725
f 734 725 735
f 735 725 727
f 735 727 736
f 736 727 721
f 736 721 136
f 320 322 718
f 718 322 719
f 718 719 737
f 737 719 734
f 737 734 738
f 738 734 735
f 738 735 739
f 739 735 736
f 739 736 136
f 318 319 740
f 740 319 718
f 740 718 730
f 730 718 737
f 730 737 724
f 724 737 738
f 724 738 723
f 723 738 739
f 723 739 136
f 707 706 730
f 730 706 705
f 730 705 740
f 740 705 704
f 740 704 318
f 318 704 316
f 546 547 741
f 549 551 742
f 553 554 743
f 128 744 717
f 128 745 746
f 746 745 747
f 746 747 748
f 749 714 750
f 750 714 715
f 750 715 744
f 744 715 716
f 744 716 717
f 747 751 748
f 748 751 752
f 748 752 753
f 743 712 749
f 749 712 713
f 749 713 714
f 554 286 743
f 743 286 711
f 743 711 712
f 551 553 742
f 742 553 743
f 742 743 754
f 754 743 749
f 754 749 755
f 755 749 750
f 755 750 756
f 756 750 744
f 756 744 128
f 547 549 741
f 741 549 742
f 741 742 757
f 757 742 754
f 757 754 758
f 758 754 755
f 758 755 759
f 759 755 756
f 759 756 128
f 545 546 760
f 760 546 741
f 760 741 753
f 753 741 757
f 753 757 748
f 748 757 758
f 748 758 746
f 746 758 759
f 746 759 128
f 752 761 753
f 753 761 762
f 753 762 760
f 760 762 763
f 760 763 545
f 545 763 521
f 287 292 733
f 733 292 764
f 733 764 731
f 731 764 765
f 731 765 732
f 732 765 766
f 732 766 726
f 726 766 767
f 726 767 728
f 728 767 768
f 728 768 729
f 729 768 769
f 729 769 722
f 722 769 770
f 722 770 136
f 136 770 127
f 522 521 771
f 771 521 763
f 771 763 772
f 772 763 762
f 772 762 773
f 773 762 761
f 773 761 774
f 774 761 752
f 774 752 775
f 775 752 751
f 775 751 776
f 776 751 747
f 776 747 777
f 777 747 745
f 777 745 127
f 127 745 128
f 656 655 778
f 653 651 779
f 642 643 780
f 127 781 777
f 127 770 782
f 782 770 769
f 782 769 783
f 784 774 785
f 785 774 775
f 785 775 781
f 781 775 776
f 781 776 777
f 769 768 783
f 783 768 767
f 783 767 786
f 780 772 784
f 784 772 773
f 784 773 774
f 643 522 780
f 780 522 771
f 780 771 772
f 651 642 779
f 779 642 780
f 779 780 787
f 787 780 784
f 787 784 788
f 788 784 785
f 788 785 789
f 789 785 781
f 789 781 127
f 655 653 778
f 778 653 779
f 778 779 790
f 790 779 787
f 790 787 791
f 791 787 788
f 791 788 792
f 792 788 789
f 792 789 127
f 644 656 793
f 793 656 778
f 793 778 786
f 786 778 790
f 786 790 783
f 783 790 791
f 783 791 782
f 782 791 792
f 782 792 127
f 767 766 786
f 786 766 765
f 786 765 793
f 793 765 764
f 793 764 644
f 644 764 292
f 794 795 796
f 796 795 797
f 796 797 798
f 798 797 799
f 798 799 800
f 800 799 801
f 800 801 802
f 802 801 803
f 802 803 804
f 804 803 805
f 804 805 806
f 806 805 807
f 806 807 808
f 808 807 809
f 810 795 811
f 811 795 794
f 808 809 812
f 812 809 813
f 500 498 209
f 209 498 496
f 209 496 210
f 500 209 502
f 502 209 192
f 502 192 504
f 504 192 194
f 504 194 506
f 506 194 196
f 506 196 518
f 496 494 210
f 210 494 510
f 210 510 206
f 206 510 512
f 206 512 204
f 204 512 514
f 204 514 202
f 202 514 516
f 202 516 200
f 200 516 518
f 200 518 198
f 198 518 196
f 445 443 813
f 813 443 441
f 813 441 810
f 445 813 447
f 447 813 809
f 447 809 449
f 449 809 807
f 449 807 451
f 451 807 805
f 451 805 463
f 441 439 810
f 810 439 455
f 810 455 795
f 795 455 457
f 795 457 797
f 797 457 459
f 797 459 799
f 799 459 461
f 799 461 801
f 801 461 463
f 801 463 803
f 803 463 805
f 814 815 816
f 816 815 817
f 816 817 818
f 818 817 819
f 818 819 820
f 820 819 821
f 820 821 822
f 822 821 823
f 822 823 824
f 824 823 825
f 824 825 826
f 826 825 827
f 826 827 828
f 828 827 829
f 830 815 831
f 831 815 814
f 828 829 832
f 832 829 833
f 834 835 229
f 229 835 836
f 229 836 230
f 837 220 838
f 838 220 222
f 838 222 839
f 839 222 224
f 839 224 840
f 840 224 226
f 840 226 841
f 841 226 230
f 841 230 842
f 842 230 836
f 834 229 843
f 843 229 212
f 843 212 844
f 844 212 214
f 844 214 845
f 845 214 216
f 845 216 837
f 837 216 218
f 837 218 220
f 411 413 833
f 833 413 415
f 833 415 830
f 415 417 830
f 830 417 436
f 830 436 815
f 815 436 437
f 815 437 817
f 817 437 399
f 817 399 819
f 819 399 398
f 819 398 821
f 821 398 408
f 411 833 409
f 409 833 829
f 409 829 405
f 405 829 827
f 405 827 407
f 407 827 825
f 407 825 408
f 408 825 823
f 408 823 821
f 526 525 47
f 47 525 48
f 64 72 845
f 845 72 71
f 845 71 844
f 844 71 70
f 844 70 48
f 34 837 36
f 36 837 838
f 36 838 38
f 34 69 837
f 837 69 68
f 837 68 845
f 845 68 66
f 845 66 64
f 53 52 581
f 38 838 40
f 40 838 839
f 40 839 42
f 581 573 53
f 53 573 561
f 53 561 55
f 55 561 57
f 57 561 59
f 59 561 542
f 59 542 61
f 61 542 540
f 61 540 62
f 526 47 537
f 537 47 45
f 537 45 538
f 538 45 44
f 538 44 540
f 540 44 51
f 540 51 62
f 52 42 581
f 581 42 839
f 581 839 580
f 580 839 846
f 847 584 846
f 846 584 592
f 846 592 580
f 848 531 849
f 849 531 589
f 849 589 850
f 850 589 588
f 850 588 847
f 847 588 586
f 847 586 584
f 851 535 848
f 848 535 536
f 848 536 531
f 839 840 846
f 846 840 841
f 846 841 852
f 852 841 842
f 852 842 853
f 851 854 535
f 535 854 855
f 535 855 523
f 523 855 856
f 523 856 524
f 524 856 525
f 48 525 844
f 844 525 856
f 844 856 843
f 843 856 857
f 843 857 834
f 834 857 858
f 834 858 835
f 835 858 859
f 835 859 836
f 836 859 860
f 836 860 842
f 842 860 861
f 842 861 853
f 583 862 590
f 590 862 503
f 590 503 593
f 593 503 863
f 864 636 865
f 865 636 660
f 865 660 866
f 866 660 596
f 866 596 863
f 863 596 594
f 863 594 593
f 528 527 867
f 867 527 641
f 867 641 868
f 868 641 640
f 868 640 864
f 864 640 637
f 864 637 636
f 867 869 528
f 528 869 511
f 528 511 532
f 532 511 870
f 532 870 533
f 533 870 871
f 533 871 534
f 534 871 872
f 534 872 529
f 529 872 873
f 529 873 530
f 530 873 874
f 530 874 587
f 587 874 875
f 587 875 585
f 585 875 862
f 585 862 582
f 582 862 583
f 876 877 878
f 878 877 879
f 878 879 880
f 880 879 881
f 880 881 882
f 882 881 883
f 882 883 884
f 884 883 885
f 884 885 886
f 886 885 887
f 886 887 888
f 888 887 889
f 888 889 890
f 890 889 891
f 892 877 893
f 893 877 876
f 890 891 894
f 894 891 895
f 896 189 897
f 897 189 172
f 897 172 898
f 898 172 174
f 898 174 899
f 899 174 176
f 899 176 900
f 190 901 186
f 186 901 902
f 186 902 184
f 184 902 903
f 184 903 182
f 182 903 904
f 182 904 180
f 180 904 900
f 180 900 178
f 178 900 176
f 896 905 189
f 189 905 906
f 189 906 190
f 190 906 907
f 190 907 901
f 908 883 909
f 909 883 881
f 909 881 910
f 910 881 879
f 910 879 911
f 911 879 877
f 911 877 912
f 912 877 892
f 913 895 914
f 914 895 891
f 914 891 915
f 915 891 889
f 915 889 916
f 916 889 887
f 916 887 908
f 908 887 885
f 908 885 883
f 913 917 895
f 895 917 918
f 895 918 892
f 892 918 919
f 892 919 912
f 920 921 922
f 922 921 923
f 922 923 924
f 924 923 925
f 924 925 926
f 926 925 927
f 926 927 928
f 928 927 929
f 928 929 930
f 930 929 931
f 930 931 932
f 932 931 933
f 932 933 934
f 934 933 935
f 936 921 937
f 937 921 920
f 934 935 938
f 938 935 939
f 940 169 941
f 941 169 152
f 941 152 942
f 942 152 154
f 942 154 943
f 943 154 156
f 943 156 944
f 940 945 169
f 169 945 946
f 169 946 170
f 946 947 170
f 170 947 948
f 170 948 166
f 166 948 949
f 166 949 164
f 164 949 950
f 164 950 162
f 162 950 951
f 162 951 160
f 160 951 944
f 160 944 158
f 158 944 156
f 952 953 939
f 939 953 954
f 939 954 936
f 952 939 955
f 955 939 935
f 955 935 956
f 956 935 933
f 956 933 957
f 957 933 931
f 957 931 958
f 954 959 936
f 936 959 960
f 936 960 921
f 921 960 961
f 921 961 923
f 923 961 962
f 923 962 925
f 925 962 963
f 925 963 927
f 927 963 958
f 927 958 929
f 929 958 931
f 442 959 440
f 440 959 954
f 440 954 438
f 438 954 953
f 438 953 453
f 453 953 952
f 453 952 454
f 454 952 955
f 454 955 456
f 456 955 956
f 456 956 488
f 488 956 957
f 488 957 486
f 442 444 959
f 959 444 446
f 959 446 960
f 960 446 448
f 960 448 961
f 961 448 475
f 961 475 962
f 962 475 481
f 962 481 963
f 963 481 480
f 963 480 958
f 958 480 479
f 958 479 957
f 957 479 484
f 957 484 486
f 414 947 416
f 416 947 946
f 416 946 418
f 418 946 945
f 418 945 434
f 434 945 940
f 434 940 435
f 435 940 941
f 435 941 433
f 433 941 942
f 433 942 431
f 431 942 943
f 431 943 429
f 414 412 947
f 947 412 410
f 947 410 948
f 948 410 403
f 948 403 949
f 949 403 401
f 949 401 950
f 950 401 421
f 950 421 951
f 951 421 423
f 951 423 944
f 944 423 425
f 944 425 943
f 943 425 427
f 943 427 429
f 497 919 495
f 495 919 918
f 495 918 493
f 493 918 917
f 493 917 508
f 508 917 913
f 508 913 509
f 509 913 914
f 509 914 511
f 511 914 915
f 511 915 870
f 870 915 916
f 870 916 871
f 497 499 919
f 919 499 501
f 919 501 912
f 912 501 503
f 912 503 911
f 911 503 862
f 911 862 910
f 910 862 875
f 910 875 909
f 909 875 874
f 909 874 908
f 908 874 873
f 908 873 916
f 916 873 872
f 916 872 871
f 859 907 860
f 860 907 906
f 860 906 861
f 861 906 905
f 861 905 853
f 853 905 896
f 853 896 852
f 852 896 897
f 852 897 846
f 846 897 898
f 846 898 847
f 847 898 899
f 847 899 850
f 859 858 907
f 907 858 857
f 907 857 901
f 901 857 856
f 901 856 902
f 902 856 855
f 902 855 903
f 903 855 854
f 903 854 904
f 904 854 851
f 904 851 900
f 900 851 848
f 900 848 899
f 899 848 849
f 899 849 850
f 865 866 375
f 375 866 373
f 373 866 863
f 373 863 371
f 375 376 865
f 865 376 649
f 865 649 864
f 864 649 647
f 864 647 868
f 868 647 646
f 296 513 290
f 290 513 511
f 290 511 291
f 291 511 869
f 291 869 293
f 293 869 867
f 293 867 294
f 294 867 868
f 294 868 295
f 295 868 646
f 519 517 296
f 296 517 515
f 296 515 513
f 296 304 519
f 519 304 302
f 519 302 520
f 520 302 386
f 520 386 507
f 507 386 385
f 507 385 505
f 385 383 505
f 505 383 380
f 505 380 503
f 503 380 378
f 503 378 863
f 863 378 377
f 863 377 371
f 289 288 471
f 471 288 315
f 471 315 470
f 470 315 313
f 470 313 469
f 469 313 312
f 312 344 469
f 469 344 370
f 469 370 466
f 466 370 390
f 466 390 467
f 390 389 467
f 467 389 388
f 467 388 456
f 456 388 387
f 456 387 458
f 458 387 379
f 471 472 289
f 289 472 473
f 289 473 299
f 299 473 448
f 299 448 298
f 298 448 450
f 298 450 297
f 297 450 452
f 297 452 303
f 303 452 465
f 303 465 300
f 300 465 464
f 300 464 301
f 301 464 462
f 301 462 384
f 384 462 460
f 384 460 382
f 382 460 458
f 382 458 381
f 381 458 379
f 811 619 618
f 812 813 632
f 632 813 618
f 618 813 810
f 618 810 811
f 632 631 812
f 812 631 211
f 812 211 811
f 811 211 208
f 811 208 619
f 619 208 209
f 619 209 631
f 631 209 210
f 631 210 211
f 230 610 229
f 229 610 635
f 229 635 228
f 635 634 228
f 228 634 831
f 228 831 231
f 231 831 832
f 230 231 610
f 610 231 832
f 610 832 611
f 611 832 833
f 611 833 634
f 634 833 830
f 634 830 831
f 893 607 606
f 894 895 628
f 628 895 606
f 606 895 892
f 606 892 893
f 628 627 894
f 894 627 191
f 894 191 893
f 893 191 188
f 893 188 607
f 607 188 189
f 607 189 627
f 627 189 190
f 627 190 191
f 170 614 169
f 169 614 623
f 169 623 168
f 623 622 168
f 168 622 937
f 168 937 171
f 171 937 938
f 170 171 614
f 614 171 938
f 614 938 615
f 615 938 939
f 615 939 622
f 622 939 936
f 622 936 937
f 964 965 966
f 966 965 967
f 966 967 968
f 968 967 969
f 968 969 970
f 970 969 971
f 970 971 972
f 972 971 973
f 972 973 974
f 974 973 975
f 974 975 976
f 976 975 977
f 976 977 978
f 978 977 979
f 978 979 980
f 980 979 981
f 980 981 982
f 982 981 983
f 982 983 984
f 984 983 985
f 984 985 986
f 986 985 987
f 986 987 964
f 964 987 965
f 966 231 964
f 964 231 227
f 964 227 986
f 986 227 225
f 986 225 984
f 984 225 223
f 984 223 982
f 966 968 231
f 231 968 970
f 231 970 228
f 970 972 228
f 228 972 974
f 228 974 213
f 213 974 976
f 213 976 215
f 215 976 978
f 215 978 217
f 217 978 980
f 217 980 219
f 219 980 982
f 219 982 221
f 221 982 223
f 975 831 977
f 977 831 814
f 977 814 979
f 979 814 816
f 979 816 981
f 981 816 818
f 981 818 983
f 975 973 831
f 831 973 971
f 831 971 832
f 971 969 832
f 832 969 967
f 832 967 828
f 828 967 965
f 828 965 826
f 826 965 987
f 826 987 824
f 824 987 985
f 824 985 822
f 822 985 983
f 822 983 820
f 820 983 818
f 988 989 990
f 990 989 991
f 990 991 992
f 992 991 993
f 992 993 994
f 994 993 995
f 994 995 996
f 996 995 997
f 996 997 998
f 998 997 999
f 998 999 1000
f 1000 999 1001
f 1000 1001 1002
f 1002 1001 1003
f 1002 1003 1004
f 1004 1003 1005
f 1004 1005 1006
f 1006 1005 1007
f 1006 1007 1008
f 1008 1007 1009
f 1008 1009 1010
f 1010 1009 1011
f 1010 1011 988
f 988 1011 989
f 1002 211 1000
f 1000 211 207
f 1000 207 998
f 998 207 205
f 998 205 996
f 996 205 203
f 996 203 994
f 1002 1004 211
f 211 1004 1006
f 211 1006 208
f 1006 1008 208
f 208 1008 1010
f 208 1010 193
f 193 1010 988
f 193 988 195
f 195 988 990
f 195 990 197
f 197 990 992
f 197 992 199
f 199 992 994
f 199 994 201
f 201 994 203
f 1011 1009 811
f 811 1009 1007
f 811 1007 812
f 1011 811 989
f 989 811 794
f 989 794 991
f 991 794 796
f 991 796 993
f 993 796 798
f 993 798 995
f 1007 1005 812
f 812 1005 1003
f 812 1003 808
f 808 1003 1001
f 808 1001 806
f 806 1001 999
f 806 999 804
f 804 999 997
f 804 997 802
f 802 997 995
f 802 995 800
f 800 995 798
f 1012 191 1013
f 1013 191 187
f 1013 187 1014
f 1014 187 185
f 1014 185 1015
f 1015 185 183
f 1015 183 1016
f 1012 1017 191
f 191 1017 1018
f 191 1018 188
f 1018 1019 188
f 188 1019 1020
f 188 1020 173
f 173 1020 1021
f 173 1021 175
f 175 1021 1022
f 175 1022 177
f 177 1022 1023
f 177 1023 179
f 179 1023 1016
f 179 1016 181
f 181 1016 183
f 1021 1024 1022
f 1022 1024 1025
f 1022 1025 1023
f 1023 1025 1026
f 1023 1026 1016
f 1016 1026 1027
f 1016 1027 1015
f 1015 1027 1028
f 1015 1028 1014
f 1014 1028 1029
f 1014 1029 1013
f 1013 1029 1030
f 1013 1030 1012
f 1012 1030 1031
f 1012 1031 1017
f 1017 1031 1032
f 1017 1032 1018
f 1018 1032 1033
f 1018 1033 1019
f 1019 1033 1034
f 1019 1034 1020
f 1020 1034 1035
f 1020 1035 1021
f 1021 1035 1024
f 1035 893 1024
f 1024 893 876
f 1024 876 1025
f 1025 876 878
f 1025 878 1026
f 1026 878 880
f 1026 880 1027
f 894 1031 890
f 890 1031 1030
f 890 1030 888
f 888 1030 1029
f 888 1029 886
f 886 1029 1028
f 886 1028 884
f 884 1028 1027
f 884 1027 882
f 882 1027 880
f 1035 1034 893
f 893 1034 1033
f 893 1033 894
f 894 1033 1032
f 894 1032 1031
f 1036 1037 171
f 171 1037 1038
f 171 1038 168
f 1036 171 1039
f 1039 171 167
f 1039 167 1040
f 1040 167 165
f 1040 165 1041
f 1041 165 163
f 1041 163 1042
f 1038 1043 168
f 168 1043 1044
f 168 1044 153
f 153 1044 1045
f 153 1045 155
f 155 1045 1046
f 155 1046 157
f 157 1046 1047
f 157 1047 159
f 159 1047 1042
f 159 1042 161
f 161 1042 163
f 1039 1048 1036
f 1036 1048 1049
f 1036 1049 1037
f 1037 1049 1050
f 1037 1050 1038
f 1038 1050 1051
f 1038 1051 1043
f 1043 1051 1052
f 1043 1052 1044
f 1044 1052 1053
f 1044 1053 1045
f 1045 1053 1054
f 1045 1054 1046
f 1046 1054 1055
f 1046 1055 1047
f 1047 1055 1056
f 1047 1056 1042
f 1042 1056 1057
f 1042 1057 1041
f 1041 1057 1058
f 1041 1058 1040
f 1040 1058 1059
f 1040 1059 1039
f 1039 1059 1048
f 1053 937 1054
f 1054 937 920
f 1054 920 1055
f 1055 920 922
f 1055 922 1056
f 1056 922 924
f 1056 924 1057
f 1053 1052 937
f 937 1052 1051
f 937 1051 938
f 1051 1050 938
f 938 1050 1049
f 938 1049 934
f 934 1049 1048
f 934 1048 932
f 932 1048 1059
f 932 1059 930
f 930 1059 1058
f 930 1058 928
f 928 1058 1057
f 928 1057 926
f 926 1057 924
f 611 634 612
f 612 634 633
f 612 633 613
f 613 633 624
f 613 624 614
f 614 624 623
f 615 622 616
f 616 622 621
f 616 621 617
f 617 621 620
f 617 620 618
f 618 620 632
f 619 631 604
f 604 631 630
f 604 630 605
f 605 630 629
f 605 629 606
f 606 629 628
f 607 627 608
f 608 627 626
f 608 626 609
f 609 626 625
f 609 625 610
f 610 625 635
f 1060 1061 147
f 147 1061 130
f 1061 1062 130
f 130 1062 129
f 1062 1063 129
f 129 1063 138
f 1063 1064 138
f 138 1064 140
f 1064 151 140
f 140 151 141
f 132 131 1065
f 1065 131 148
f 1065 1066 132
f 132 1066 142
f 1066 1067 142
f 142 1067 143
f 1067 1068 143
f 143 1068 144
f 1068 1069 144
f 144 1069 145
f 1069 1070 145
f 145 1070 146
f 1070 1060 146
f 146 1060 147
f 1067 1066 1065
f 1064 1063 1070
f 1063 1062 1070
f 1070 1062 1061
f 1070 1061 1060
f 1065 148 1067
f 1067 148 151
f 1067 151 1068
f 1068 151 1064
f 1068 1064 1069
f 1069 1064 1070

