# https://github.com/mikedh/trimesh

o link_right_wheel_0.obj
v -0.02295600 -0.03976100 0.02540000
v -0.02317800 -0.04014500 0.01270000
v -0.01625400 -0.04341200 0.01270000
v -0.01609800 -0.04299700 0.02540000
v -0.00888700 -0.04549500 0.01270000
v -0.00880200 -0.04506000 0.02540000
v -0.00127700 -0.04633700 0.01270000
v -0.00126500 -0.04589400 0.02540000
v 0.00636700 -0.04591600 0.01270000
v 0.00630600 -0.04547600 0.02540000
v 0.01383800 -0.04424100 0.01270000
v 0.01370500 -0.04381800 0.02540000
v 0.02093100 -0.04136000 0.01270000
v 0.02073100 -0.04096500 0.02540000
v 0.02745300 -0.03735100 0.01270000
v 0.02719000 -0.03699400 0.02540000
v 0.03322600 -0.03232300 0.01270000
v 0.03290900 -0.03201400 0.02540000
v 0.03809300 -0.02641300 0.01270000
v 0.03772900 -0.02616100 0.02540000
v 0.04192100 -0.01978300 0.01270000
v 0.04152000 -0.01959400 0.02540000
v 0.04460600 -0.01261300 0.01270000
v 0.04417900 -0.01249300 0.02540000
v 0.04607400 -0.00509900 0.01270000
v 0.04563300 -0.00505100 0.02540000
v 0.04628500 0.00255400 0.01270000
v 0.04584200 0.00252900 0.02540000
v 0.04523300 0.01013700 0.01270000
v 0.04480000 0.01004000 0.02540000
v 0.04294800 0.01744400 0.01270000
v 0.04253700 0.01727700 0.02540000
v 0.03949100 0.02427500 0.01270000
v 0.03911300 0.02404300 0.02540000
v 0.03495700 0.03044400 0.01270000
v 0.03462200 0.03015200 0.02540000
v 0.02946900 0.03578200 0.01270000
v 0.02918700 0.03544000 0.02540000
v 0.02317700 0.04014500 0.01270000
v 0.02295600 0.03976100 0.02540000
v 0.01609800 0.04299700 0.02540000
v 0.00880200 0.04506000 0.02540000
v 0.00126500 0.04589400 0.02540000
v -0.00630600 0.04547600 0.02540000
v -0.01370500 0.04381800 0.02540000
v -0.02073100 0.04096500 0.02540000
v -0.02719000 0.03699400 0.02540000
v -0.03290900 0.03201400 0.02540000
v -0.03772900 0.02616100 0.02540000
v -0.04152000 0.01959400 0.02540000
v -0.04417900 0.01249300 0.02540000
v -0.04563300 0.00505100 0.02540000
v -0.04584200 -0.00252900 0.02540000
v -0.04480000 -0.01004000 0.02540000
v -0.04253700 -0.01727700 0.02540000
v -0.03911300 -0.02404300 0.02540000
v -0.03462200 -0.03015200 0.02540000
v -0.02918700 -0.03544000 0.02540000
v 0.01625400 0.04341200 0.01270000
v 0.00888700 0.04549500 0.01270000
v 0.00127700 0.04633700 0.01270000
v -0.00636700 0.04591600 0.01270000
v -0.01383800 0.04424100 0.01270000
v -0.02093100 0.04136000 0.01270000
v -0.02745300 0.03735100 0.01270000
v -0.03322600 0.03232300 0.01270000
v -0.03809300 0.02641300 0.01270000
v -0.04192100 0.01978300 0.01270000
v -0.04460600 0.01261300 0.01270000
v -0.04607400 0.00509900 0.01270000
v -0.04628500 -0.00255400 0.01270000
v -0.04523300 -0.01013700 0.01270000
v -0.04294800 -0.01744400 0.01270000
v -0.03949100 -0.02427500 0.01270000
v -0.03495700 -0.03044400 0.01270000
v -0.02946900 -0.03578200 0.01270000
v -0.02451000 -0.03868300 0.00000000
v -0.02295600 -0.03976100 0.00000000
v -0.04584200 -0.00252900 0.00000000
v -0.04480000 -0.01004000 0.00000000
v -0.04253700 -0.01727700 0.00000000
v -0.03911300 -0.02404300 0.00000000
v -0.03462200 -0.03015200 0.00000000
v -0.03408200 -0.03067800 0.00000000
v -0.02918700 -0.03544000 0.00000000
v -0.02543700 -0.03804000 0.00000000
v -0.04551500 0.00565600 0.00000000
v -0.04563300 0.00505100 0.00000000
v -0.04152000 0.01959400 0.00000000
v -0.04199400 0.01832800 0.00000000
v -0.04366300 0.01387100 0.00000000
v -0.04417900 0.01249300 0.00000000
v -0.04106200 0.02038800 0.00000000
v -0.03818700 0.02536700 0.00000000
v -0.03384400 0.03087700 0.00000000
v -0.03772900 0.02616100 0.00000000
v -0.02073100 0.04096500 0.00000000
v -0.02719000 0.03699400 0.00000000
v -0.02765500 0.03658900 0.00000000
v -0.03290900 0.03201400 0.00000000
v 0.00126500 0.04589400 0.00000000
v -0.00630600 0.04547600 0.00000000
v -0.00682300 0.04536000 0.00000000
v -0.01370500 0.04381800 0.00000000
v 0.00952700 0.04485500 0.00000000
v 0.00880200 0.04506000 0.00000000
v 0.02295600 0.03976100 0.00000000
v 0.02124500 0.04056800 0.00000000
v 0.02022500 0.04104900 0.00000000
v 0.01609800 0.04299700 0.00000000
v 0.02451000 0.03868300 0.00000000
v 0.02718200 0.03683000 0.00000000
v 0.03911300 0.02404300 0.00000000
v 0.03462200 0.03015200 0.00000000
v 0.03408200 0.03067800 0.00000000
v 0.02918700 0.03544000 0.00000000
v 0.04584200 0.00252900 0.00000000
v 0.04480000 0.01004000 0.00000000
v 0.04269500 0.01677100 0.00000000
v 0.04253700 0.01727700 0.00000000
v 0.04551500 -0.00565600 0.00000000
v 0.04563300 -0.00505100 0.00000000
v 0.04106200 -0.02038800 0.00000000
v 0.04152000 -0.01959400 0.00000000
v 0.04366300 -0.01387100 0.00000000
v 0.04417900 -0.01249300 0.00000000
v 0.03818700 -0.02536700 0.00000000
v 0.03772900 -0.02616100 0.00000000
v 0.03384400 -0.03087700 0.00000000
v 0.03686900 -0.02720400 0.00000000
v -0.00126500 -0.04589400 0.00000000
v 0.00630600 -0.04547600 0.00000000
v 0.01370500 -0.04381800 0.00000000
v 0.02073100 -0.04096500 0.00000000
v 0.02719000 -0.03699400 0.00000000
v 0.02765500 -0.03658900 0.00000000
v 0.03290900 -0.03201400 0.00000000
v -0.01830500 -0.04195500 0.00000000
v -0.01609800 -0.04299700 0.00000000
v -0.00952700 -0.04485500 0.00000000
v -0.00880200 -0.04506000 0.00000000
v -0.02124500 -0.04056800 0.00000000
v -0.03976100 0.02295600 0.00000000
v -0.04014500 0.02317800 0.01270000
v -0.04299700 0.01609800 0.00000000
v -0.04341200 0.01625400 0.01270000
v -0.04506000 0.00880200 0.00000000
v -0.04549500 0.00888700 0.01270000
v -0.04589400 0.00126500 0.00000000
v -0.04633700 0.00127700 0.01270000
v -0.04547600 -0.00630600 0.00000000
v -0.04591600 -0.00636700 0.01270000
v -0.04381800 -0.01370500 0.00000000
v -0.04424100 -0.01383800 0.01270000
v -0.04096500 -0.02073100 0.00000000
v -0.04136000 -0.02093100 0.01270000
v -0.03699400 -0.02719000 0.00000000
v -0.03735100 -0.02745300 0.01270000
v -0.03201400 -0.03290900 0.00000000
v -0.03232300 -0.03322600 0.01270000
v -0.02616100 -0.03772900 0.00000000
v -0.02641300 -0.03809300 0.01270000
v -0.01959400 -0.04152000 0.00000000
v -0.01978300 -0.04192100 0.01270000
v -0.01249300 -0.04417900 0.00000000
v -0.01261300 -0.04460600 0.01270000
v -0.00505100 -0.04563300 0.00000000
v -0.00509900 -0.04607400 0.01270000
v 0.00252900 -0.04584200 0.00000000
v 0.00255400 -0.04628500 0.01270000
v 0.01004000 -0.04480000 0.00000000
v 0.01013700 -0.04523300 0.01270000
v 0.01727700 -0.04253700 0.00000000
v 0.01744400 -0.04294800 0.01270000
v 0.02404300 -0.03911300 0.00000000
v 0.02427500 -0.03949100 0.01270000
v 0.03015200 -0.03462200 0.00000000
v 0.03044400 -0.03495700 0.01270000
v 0.03544000 -0.02918700 0.00000000
v 0.03578200 -0.02946900 0.01270000
v 0.03976100 -0.02295600 0.00000000
v 0.04014500 -0.02317800 0.01270000
v 0.04299700 -0.01609800 0.00000000
v 0.04341200 -0.01625400 0.01270000
v 0.04506000 -0.00880200 0.00000000
v 0.04549500 -0.00888700 0.01270000
v 0.04589400 -0.00126500 0.00000000
v 0.04633700 -0.00127700 0.01270000
v 0.04547600 0.00630600 0.00000000
v 0.04591600 0.00636700 0.01270000
v 0.04381800 0.01370500 0.00000000
v 0.04424100 0.01383800 0.01270000
v 0.04096500 0.02073100 0.00000000
v 0.04136000 0.02093100 0.01270000
v 0.03699400 0.02719000 0.00000000
v 0.03735100 0.02745300 0.01270000
v 0.03201400 0.03290900 0.00000000
v 0.03232300 0.03322600 0.01270000
v 0.02616100 0.03772900 0.00000000
v 0.02641300 0.03809300 0.01270000
v 0.01959400 0.04152000 0.00000000
v 0.01978300 0.04192100 0.01270000
v 0.01249300 0.04417900 0.00000000
v 0.01261300 0.04460600 0.01270000
v 0.00505100 0.04563300 0.00000000
v 0.00509900 0.04607400 0.01270000
v -0.00252900 0.04584200 0.00000000
v -0.00255400 0.04628500 0.01270000
v -0.01004000 0.04480000 0.00000000
v -0.01013700 0.04523300 0.01270000
v -0.01727700 0.04253700 0.00000000
v -0.01744400 0.04294800 0.01270000
v -0.02404300 0.03911300 0.00000000
v -0.02427500 0.03949100 0.01270000
v -0.03015200 0.03462200 0.00000000
v -0.03044400 0.03495700 0.01270000
v -0.03544000 0.02918700 0.00000000
v -0.03578200 0.02946900 0.01270000
v 0.01895000 -0.04665500 0.00000000
v 0.01101200 -0.04913800 0.00000000
v 0.00277400 -0.05028000 0.00000000
v -0.00554000 -0.05005100 0.00000000
v -0.01370200 -0.04845600 0.00000000
v -0.02149100 -0.04554000 0.00000000
v -0.02869300 -0.04138200 0.00000000
v -0.03511300 -0.03609500 0.00000000
v -0.04057600 -0.02982300 0.00000000
v -0.04493100 -0.02273800 0.00000000
v -0.04806000 -0.01503200 0.00000000
v -0.04987900 -0.00691700 0.00000000
v -0.05033700 0.00138800 0.00000000
v -0.04942200 0.00965400 0.00000000
v -0.04715900 0.01765700 0.00000000
v -0.04361000 0.02517800 0.00000000
v -0.03887100 0.03201300 0.00000000
v -0.03307200 0.03797400 0.00000000
v -0.02637000 0.04290000 0.00000000
v -0.01895000 0.04665500 0.00000000
v -0.01101200 0.04913800 0.00000000
v -0.00277400 0.05028000 0.00000000
v 0.00554000 0.05005100 0.00000000
v 0.01370200 0.04845600 0.00000000
v 0.02149100 0.04554000 0.00000000
v 0.02869300 0.04138200 0.00000000
v 0.03511300 0.03609500 0.00000000
v 0.04057600 0.02982300 0.00000000
v 0.04493100 0.02273800 0.00000000
v 0.04806000 0.01503200 0.00000000
v 0.04987900 0.00691700 0.00000000
v 0.05033700 -0.00138800 0.00000000
v 0.04942200 -0.00965400 0.00000000
v 0.04715900 -0.01765700 0.00000000
v 0.04361000 -0.02517800 0.00000000
v 0.03887100 -0.03201300 0.00000000
v 0.03307200 -0.03797400 0.00000000
v 0.02637000 -0.04290000 0.00000000
v -0.04399400 0.02540000 0.01270000
v -0.03921300 0.03229500 0.01270000
v -0.03336300 0.03830900 0.01270000
v -0.02660300 0.04327800 0.01270000
v -0.01911700 0.04706600 0.01270000
v -0.01110900 0.04957000 0.01270000
v -0.00279800 0.05072300 0.01270000
v 0.00558800 0.05049200 0.01270000
v 0.01382300 0.04888300 0.01270000
v 0.02168000 0.04594100 0.01270000
v 0.02894600 0.04174600 0.01270000
v 0.03542300 0.03641300 0.01270000
v 0.04093300 0.03008600 0.01270000
v 0.04532600 0.02293800 0.01270000
v 0.04848400 0.01516500 0.01270000
v 0.05031800 0.00697800 0.01270000
v 0.05078100 -0.00140000 0.01270000
v 0.04985800 -0.00973900 0.01270000
v 0.04757500 -0.01781200 0.01270000
v 0.04399400 -0.02540000 0.01270000
v 0.03921300 -0.03229500 0.01270000
v 0.03336300 -0.03830900 0.01270000
v 0.02660300 -0.04327800 0.01270000
v 0.01911600 -0.04706600 0.01270000
v 0.01110900 -0.04957000 0.01270000
v 0.00279800 -0.05072300 0.01270000
v -0.00558800 -0.05049200 0.01270000
v -0.01382300 -0.04888300 0.01270000
v -0.02168000 -0.04594100 0.01270000
v -0.02894600 -0.04174600 0.01270000
v -0.03542300 -0.03641300 0.01270000
v -0.04093300 -0.03008600 0.01270000
v -0.04532600 -0.02293800 0.01270000
v -0.04848400 -0.01516500 0.01270000
v -0.05031800 -0.00697800 0.01270000
v -0.05078100 0.00140000 0.01270000
v -0.04985800 0.00973900 0.01270000
v -0.04757500 0.01781200 0.01270000
v -0.04361000 0.02517800 0.02540000
v -0.04715900 0.01765700 0.02540000
v -0.04942200 0.00965400 0.02540000
v -0.05033700 0.00138800 0.02540000
v -0.04987900 -0.00691700 0.02540000
v -0.04806000 -0.01503200 0.02540000
v -0.04493100 -0.02273800 0.02540000
v -0.04057600 -0.02982300 0.02540000
v -0.03511300 -0.03609500 0.02540000
v -0.02869300 -0.04138200 0.02540000
v -0.02149100 -0.04554000 0.02540000
v -0.01370200 -0.04845600 0.02540000
v -0.00554000 -0.05005100 0.02540000
v 0.00277400 -0.05028000 0.02540000
v 0.01101200 -0.04913800 0.02540000
v 0.01895000 -0.04665500 0.02540000
v 0.02637000 -0.04290000 0.02540000
v 0.03307200 -0.03797400 0.02540000
v 0.03887100 -0.03201300 0.02540000
v 0.04361000 -0.02517800 0.02540000
v 0.01959400 0.04152000 0.02540000
v 0.02149100 0.04554000 0.02540000
v 0.01249300 0.04417900 0.02540000
v 0.01370200 0.04845600 0.02540000
v 0.00505100 0.04563300 0.02540000
v 0.00554000 0.05005100 0.02540000
v -0.00252900 0.04584200 0.02540000
v -0.00277400 0.05028000 0.02540000
v -0.01004000 0.04480000 0.02540000
v -0.01101200 0.04913800 0.02540000
v -0.01727700 0.04253700 0.02540000
v -0.01895000 0.04665500 0.02540000
v -0.02404300 0.03911300 0.02540000
v -0.02637000 0.04290000 0.02540000
v -0.03015200 0.03462200 0.02540000
v -0.03307200 0.03797400 0.02540000
v -0.03544000 0.02918700 0.02540000
v -0.03887100 0.03201300 0.02540000
v -0.03976100 0.02295600 0.02540000
v -0.04299700 0.01609800 0.02540000
v -0.04506000 0.00880200 0.02540000
v -0.04589400 0.00126500 0.02540000
v -0.04547600 -0.00630600 0.02540000
v -0.04381800 -0.01370500 0.02540000
v -0.04096500 -0.02073100 0.02540000
v -0.03699400 -0.02719000 0.02540000
v -0.03201400 -0.03290900 0.02540000
v -0.02616100 -0.03772900 0.02540000
v -0.01959400 -0.04152000 0.02540000
v -0.01249300 -0.04417900 0.02540000
v -0.00505100 -0.04563300 0.02540000
v 0.00252900 -0.04584200 0.02540000
v 0.01004000 -0.04480000 0.02540000
v 0.01727700 -0.04253700 0.02540000
v 0.02404300 -0.03911300 0.02540000
v 0.03015200 -0.03462200 0.02540000
v 0.03544000 -0.02918700 0.02540000
v 0.03976100 -0.02295600 0.02540000
v 0.04299700 -0.01609800 0.02540000
v 0.04715900 -0.01765700 0.02540000
v 0.04506000 -0.00880200 0.02540000
v 0.04942200 -0.00965400 0.02540000
v 0.04589400 -0.00126500 0.02540000
v 0.05033700 -0.00138800 0.02540000
v 0.04547600 0.00630600 0.02540000
v 0.04987900 0.00691700 0.02540000
v 0.04381800 0.01370500 0.02540000
v 0.04806000 0.01503200 0.02540000
v 0.04096500 0.02073100 0.02540000
v 0.04493100 0.02273800 0.02540000
v 0.03699400 0.02719000 0.02540000
v 0.04057600 0.02982300 0.02540000
v 0.03201400 0.03290900 0.02540000
v 0.03511300 0.03609500 0.02540000
v 0.02616100 0.03772900 0.02540000
v 0.02869300 0.04138200 0.02540000
f 1 2 3
f 1 3 4
f 4 3 5
f 4 5 6
f 6 5 7
f 6 7 8
f 8 7 9
f 8 9 10
f 10 9 11
f 10 11 12
f 12 11 13
f 12 13 14
f 14 13 15
f 14 15 16
f 16 15 17
f 16 17 18
f 18 17 19
f 18 19 20
f 20 19 21
f 20 21 22
f 22 21 23
f 22 23 24
f 24 23 25
f 24 25 26
f 26 25 27
f 26 27 28
f 28 27 29
f 28 29 30
f 30 29 31
f 30 31 32
f 32 31 33
f 32 33 34
f 34 33 35
f 34 35 36
f 36 35 37
f 36 37 38
f 38 37 39
f 38 39 40
f 40 39 59
f 40 59 41
f 41 59 60
f 41 60 42
f 42 60 61
f 42 61 43
f 43 61 62
f 43 62 44
f 44 62 63
f 44 63 45
f 45 63 64
f 45 64 46
f 46 64 65
f 46 65 47
f 47 65 66
f 47 66 48
f 48 66 67
f 48 67 49
f 49 67 68
f 49 68 50
f 50 68 69
f 50 69 51
f 51 69 70
f 51 70 52
f 52 70 71
f 52 71 53
f 53 71 72
f 53 72 54
f 54 72 73
f 54 73 55
f 55 73 74
f 55 74 56
f 56 74 75
f 56 75 57
f 57 75 76
f 57 76 58
f 58 76 2
f 58 2 1
f 77 78 2
f 70 79 71
f 71 79 80
f 71 80 72
f 72 80 81
f 72 81 73
f 73 81 82
f 73 82 74
f 74 82 83
f 74 83 75
f 75 83 84
f 75 84 76
f 76 84 85
f 76 85 2
f 2 85 86
f 2 86 77
f 69 87 70
f 70 87 88
f 70 88 79
f 89 90 68
f 68 90 91
f 68 91 69
f 69 91 92
f 69 92 87
f 89 68 93
f 93 68 67
f 93 67 94
f 66 95 67
f 67 95 96
f 67 96 94
f 63 97 64
f 64 97 98
f 64 98 65
f 65 98 99
f 65 99 66
f 66 99 100
f 66 100 95
f 60 101 61
f 61 101 102
f 61 102 62
f 62 102 103
f 62 103 63
f 63 103 104
f 63 104 97
f 59 105 60
f 60 105 106
f 60 106 101
f 107 108 39
f 39 108 109
f 39 109 59
f 59 109 110
f 59 110 105
f 107 39 111
f 111 39 37
f 111 37 112
f 31 113 33
f 33 113 114
f 33 114 35
f 35 114 115
f 35 115 37
f 37 115 116
f 37 116 112
f 25 117 27
f 27 117 118
f 27 118 29
f 29 118 119
f 29 119 31
f 31 119 120
f 31 120 113
f 23 121 25
f 25 121 122
f 25 122 117
f 123 124 21
f 21 124 125
f 21 125 23
f 23 125 126
f 23 126 121
f 123 21 127
f 127 21 19
f 127 19 128
f 17 129 19
f 19 129 130
f 19 130 128
f 5 131 7
f 7 131 132
f 7 132 9
f 9 132 133
f 9 133 11
f 11 133 134
f 11 134 13
f 13 134 135
f 13 135 15
f 15 135 136
f 15 136 17
f 17 136 137
f 17 137 129
f 138 139 3
f 3 139 140
f 3 140 5
f 5 140 141
f 5 141 131
f 138 3 142
f 142 3 2
f 142 2 78
f 143 144 145
f 145 144 146
f 145 146 147
f 147 146 148
f 147 148 149
f 149 148 150
f 149 150 151
f 151 150 152
f 151 152 153
f 153 152 154
f 153 154 155
f 155 154 156
f 155 156 157
f 157 156 158
f 157 158 159
f 159 158 160
f 159 160 161
f 161 160 162
f 161 162 163
f 163 162 164
f 163 164 165
f 165 164 166
f 165 166 167
f 167 166 168
f 167 168 169
f 169 168 170
f 169 170 171
f 171 170 172
f 171 172 173
f 173 172 174
f 173 174 175
f 175 174 176
f 175 176 177
f 177 176 178
f 177 178 179
f 179 178 180
f 179 180 181
f 181 180 182
f 181 182 183
f 183 182 184
f 183 184 185
f 185 184 186
f 185 186 187
f 187 186 188
f 187 188 189
f 189 188 190
f 189 190 191
f 191 190 192
f 191 192 193
f 193 192 194
f 193 194 195
f 195 194 196
f 195 196 197
f 197 196 198
f 197 198 199
f 199 198 200
f 199 200 201
f 201 200 202
f 201 202 203
f 203 202 204
f 203 204 205
f 205 204 206
f 205 206 207
f 207 206 208
f 207 208 209
f 209 208 210
f 209 210 211
f 211 210 212
f 211 212 213
f 213 212 214
f 213 214 215
f 215 214 216
f 215 216 217
f 217 216 218
f 217 218 143
f 143 218 144
f 173 219 171
f 171 219 220
f 171 220 169
f 169 220 221
f 169 221 167
f 167 221 222
f 167 222 165
f 165 222 223
f 165 223 163
f 163 223 224
f 163 224 161
f 161 224 225
f 161 225 159
f 159 225 226
f 159 226 157
f 157 226 227
f 157 227 155
f 155 227 228
f 155 228 153
f 153 228 229
f 153 229 151
f 151 229 230
f 151 230 149
f 149 230 231
f 149 231 147
f 147 231 232
f 147 232 145
f 145 232 233
f 145 233 143
f 143 233 234
f 143 234 217
f 217 234 235
f 217 235 215
f 215 235 236
f 215 236 213
f 213 236 237
f 213 237 211
f 211 237 238
f 211 238 209
f 209 238 239
f 209 239 207
f 207 239 240
f 207 240 205
f 205 240 241
f 205 241 203
f 203 241 242
f 203 242 201
f 201 242 243
f 201 243 199
f 199 243 244
f 199 244 197
f 197 244 245
f 197 245 195
f 195 245 246
f 195 246 193
f 193 246 247
f 193 247 191
f 191 247 248
f 191 248 189
f 189 248 249
f 189 249 187
f 187 249 250
f 187 250 185
f 185 250 251
f 185 251 183
f 183 251 252
f 183 252 181
f 181 252 253
f 181 253 179
f 179 253 254
f 179 254 177
f 177 254 255
f 177 255 175
f 175 255 256
f 175 256 173
f 173 256 219
f 234 257 258
f 234 258 235
f 235 258 259
f 235 259 236
f 236 259 260
f 236 260 237
f 237 260 261
f 237 261 238
f 238 261 262
f 238 262 239
f 239 262 263
f 239 263 240
f 240 263 264
f 240 264 241
f 241 264 265
f 241 265 242
f 242 265 266
f 242 266 243
f 243 266 267
f 243 267 244
f 244 267 268
f 244 268 245
f 245 268 269
f 245 269 246
f 246 269 270
f 246 270 247
f 247 270 271
f 247 271 248
f 248 271 272
f 248 272 249
f 249 272 273
f 249 273 250
f 250 273 274
f 250 274 251
f 251 274 275
f 251 275 252
f 252 275 276
f 252 276 253
f 253 276 277
f 253 277 254
f 254 277 278
f 254 278 255
f 255 278 279
f 255 279 256
f 256 279 280
f 256 280 219
f 219 280 281
f 219 281 220
f 220 281 282
f 220 282 221
f 221 282 283
f 221 283 222
f 222 283 284
f 222 284 223
f 223 284 285
f 223 285 224
f 224 285 286
f 224 286 225
f 225 286 287
f 225 287 226
f 226 287 288
f 226 288 227
f 227 288 289
f 227 289 228
f 228 289 290
f 228 290 229
f 229 290 291
f 229 291 230
f 230 291 292
f 230 292 231
f 231 292 293
f 231 293 232
f 232 293 294
f 232 294 233
f 233 294 257
f 233 257 234
f 295 257 294
f 295 294 296
f 296 294 293
f 296 293 297
f 297 293 292
f 297 292 298
f 298 292 291
f 298 291 299
f 299 291 290
f 299 290 300
f 300 290 289
f 300 289 301
f 301 289 288
f 301 288 302
f 302 288 287
f 302 287 303
f 303 287 286
f 303 286 304
f 304 286 285
f 304 285 305
f 305 285 284
f 305 284 306
f 306 284 283
f 306 283 307
f 307 283 282
f 307 282 308
f 308 282 281
f 308 281 309
f 309 281 280
f 309 280 310
f 310 280 279
f 310 279 311
f 311 279 278
f 311 278 312
f 312 278 277
f 312 277 313
f 313 277 276
f 313 276 314
f 315 316 317
f 317 316 318
f 317 318 319
f 319 318 320
f 319 320 321
f 321 320 322
f 321 322 323
f 323 322 324
f 323 324 325
f 325 324 326
f 325 326 327
f 327 326 328
f 327 328 329
f 329 328 330
f 329 330 331
f 331 330 332
f 331 332 333
f 333 332 295
f 333 295 334
f 334 295 296
f 334 296 335
f 335 296 297
f 335 297 336
f 336 297 298
f 336 298 337
f 337 298 299
f 337 299 338
f 338 299 300
f 338 300 339
f 339 300 301
f 339 301 340
f 340 301 302
f 340 302 341
f 341 302 303
f 341 303 342
f 342 303 304
f 342 304 343
f 343 304 305
f 343 305 344
f 344 305 306
f 344 306 345
f 345 306 307
f 345 307 346
f 346 307 308
f 346 308 347
f 347 308 309
f 347 309 348
f 348 309 310
f 348 310 349
f 349 310 311
f 349 311 350
f 350 311 312
f 350 312 351
f 351 312 313
f 351 313 352
f 352 313 314
f 352 314 353
f 353 314 354
f 353 354 355
f 355 354 356
f 355 356 357
f 357 356 358
f 357 358 359
f 359 358 360
f 359 360 361
f 361 360 362
f 361 362 363
f 363 362 364
f 363 364 365
f 365 364 366
f 365 366 367
f 367 366 368
f 367 368 369
f 369 368 370
f 369 370 315
f 315 370 316
f 314 276 275
f 314 275 354
f 354 275 274
f 354 274 356
f 356 274 273
f 356 273 358
f 358 273 272
f 358 272 360
f 360 272 271
f 360 271 362
f 362 271 270
f 362 270 364
f 364 270 269
f 364 269 366
f 366 269 268
f 366 268 368
f 368 268 267
f 368 267 370
f 370 267 266
f 370 266 316
f 316 266 265
f 316 265 318
f 318 265 264
f 318 264 320
f 320 264 263
f 320 263 322
f 322 263 262
f 322 262 324
f 324 262 261
f 324 261 326
f 326 261 260
f 326 260 328
f 328 260 259
f 328 259 330
f 330 259 258
f 330 258 332
f 332 258 257
f 332 257 295
f 352 182 351
f 351 182 180
f 351 180 350
f 350 180 178
f 350 178 349
f 349 178 176
f 349 176 348
f 348 176 174
f 348 174 347
f 347 174 172
f 347 172 346
f 346 172 170
f 346 170 345
f 345 170 168
f 345 168 344
f 344 168 166
f 344 166 343
f 343 166 164
f 343 164 342
f 342 164 162
f 342 162 341
f 341 162 160
f 341 160 340
f 340 160 158
f 340 158 339
f 339 158 156
f 339 156 338
f 338 156 154
f 338 154 337
f 337 154 152
f 337 152 336
f 336 152 150
f 336 150 335
f 335 150 148
f 335 148 334
f 334 148 146
f 334 146 333
f 333 146 144
f 333 144 331
f 331 144 218
f 331 218 329
f 329 218 216
f 329 216 327
f 327 216 214
f 327 214 325
f 325 214 212
f 325 212 323
f 323 212 210
f 323 210 321
f 321 210 208
f 321 208 319
f 319 208 206
f 319 206 317
f 317 206 204
f 317 204 315
f 315 204 202
f 315 202 369
f 369 202 200
f 369 200 367
f 367 200 198
f 367 198 365
f 365 198 196
f 365 196 363
f 363 196 194
f 363 194 361
f 361 194 192
f 361 192 359
f 359 192 190
f 359 190 357
f 357 190 188
f 357 188 355
f 355 188 186
f 355 186 353
f 353 186 184
f 353 184 352
f 352 184 182

