# https://github.com/mikedh/trimesh

o link_arm_l0_1.obj
v 0.01500000 0.01480000 0.01375000
v 0.01350000 0.01349000 0.01375000
v 0.01500000 -0.01480000 0.01375000
v 0.01350000 -0.01349000 0.01375000
v 0.01498500 -0.01487600 0.01375000
v 0.01349900 -0.01349500 0.01375000
v 0.01494100 -0.01494100 0.01375000
v 0.01487600 -0.01498500 0.01375000
v 0.01498500 0.01487600 0.01375000
v 0.01349500 0.01349900 0.01375000
v 0.01349900 0.01349500 0.01375000
v 0.01494100 0.01494100 0.01375000
v 0.01487600 0.01498500 0.01375000
v 0.01480000 0.01500000 0.01375000
v 0.01349000 -0.01350000 0.01375000
v -0.01480000 -0.01500000 0.01375000
v 0.01480000 -0.01500000 0.01375000
v 0.01349500 -0.01349900 0.01375000
v -0.01349000 -0.01350000 0.01375000
v -0.01349500 -0.01349900 0.01375000
v -0.01487600 -0.01498500 0.01375000
v -0.01349900 -0.01349500 0.01375000
v -0.01494100 -0.01494100 0.01375000
v -0.01498500 -0.01487600 0.01375000
v -0.01500000 -0.01480000 0.01375000
v -0.01350000 -0.01349000 0.01375000
v -0.01500000 0.01480000 0.01375000
v -0.01350000 0.01349000 0.01375000
v -0.01349900 0.01349400 0.01375000
v -0.01498500 0.01487600 0.01375000
v -0.01349700 0.01349700 0.01375000
v -0.01494100 0.01494100 0.01375000
v -0.01487600 0.01498500 0.01375000
v -0.01349400 0.01349900 0.01375000
v -0.01480000 0.01500000 0.01375000
v -0.01349000 0.01350000 0.01375000
v 0.01349000 0.01350000 0.01375000
v -0.01350000 -0.01349000 -0.19975000
v -0.01349900 -0.01349500 -0.19975000
v -0.01500000 -0.01480000 -0.19975000
v 0.01500000 0.01480000 -0.19975000
v 0.01349900 0.01349500 -0.19975000
v 0.01498500 0.01487600 -0.19975000
v 0.01349500 0.01349900 -0.19975000
v -0.01350000 0.01349000 -0.19975000
v -0.01500000 0.01480000 -0.19975000
v -0.01349900 0.01349400 -0.19975000
v -0.01498500 0.01487600 -0.19975000
v -0.01349700 0.01349700 -0.19975000
v 0.01480000 -0.01500000 -0.19975000
v 0.01349500 -0.01349900 -0.19975000
v 0.01487600 -0.01498500 -0.19975000
v 0.01349900 -0.01349500 -0.19975000
v 0.01494100 0.01494100 -0.19975000
v 0.01487600 0.01498500 -0.19975000
v 0.01480000 0.01500000 -0.19975000
v 0.01349000 0.01350000 -0.19975000
v -0.01480000 0.01500000 -0.19975000
v -0.01349000 0.01350000 -0.19975000
v -0.01349400 0.01349900 -0.19975000
v -0.01487600 0.01498500 -0.19975000
v -0.01494100 0.01494100 -0.19975000
v 0.01494100 -0.01494100 -0.19975000
v 0.01498500 -0.01487600 -0.19975000
v 0.01500000 -0.01480000 -0.19975000
v 0.01350000 -0.01349000 -0.19975000
v 0.01350000 0.01349000 -0.19975000
v -0.01498500 -0.01487600 -0.19975000
v -0.01494100 -0.01494100 -0.19975000
v -0.01487600 -0.01498500 -0.19975000
v -0.01349500 -0.01349900 -0.19975000
v -0.01480000 -0.01500000 -0.19975000
v -0.01349000 -0.01350000 -0.19975000
v 0.01349000 -0.01350000 -0.19975000
f 38 39 40
f 41 42 43
f 43 42 44
f 38 40 45
f 45 40 46
f 45 46 47
f 47 46 48
f 47 48 49
f 50 51 52
f 52 51 53
f 54 43 55
f 55 43 44
f 55 44 56
f 56 44 57
f 56 57 58
f 57 59 58
f 58 59 60
f 58 60 61
f 61 60 49
f 61 49 62
f 62 49 48
f 63 52 64
f 64 52 53
f 64 53 65
f 65 53 66
f 65 66 41
f 41 66 67
f 41 67 42
f 68 40 69
f 69 40 39
f 69 39 70
f 70 39 71
f 70 71 72
f 72 71 73
f 72 73 50
f 50 73 74
f 50 74 51
f 17 50 52
f 17 52 8
f 8 52 63
f 8 63 7
f 7 63 64
f 7 64 5
f 5 64 65
f 5 65 3
f 1 3 41
f 41 3 65
f 1 41 43
f 1 43 9
f 9 43 54
f 9 54 12
f 12 54 55
f 12 55 13
f 13 55 56
f 13 56 14
f 35 14 58
f 58 14 56
f 35 58 61
f 35 61 33
f 33 61 62
f 33 62 32
f 32 62 48
f 32 48 30
f 30 48 46
f 30 46 27
f 25 27 40
f 40 27 46
f 25 40 68
f 25 68 24
f 24 68 69
f 24 69 23
f 23 69 70
f 23 70 21
f 21 70 72
f 21 72 16
f 17 16 50
f 50 16 72
f 4 66 6
f 6 66 53
f 6 53 18
f 18 53 51
f 18 51 15
f 15 51 74
f 4 2 66
f 66 2 67
f 37 57 10
f 10 57 44
f 10 44 11
f 11 44 42
f 11 42 2
f 2 42 67
f 37 36 57
f 57 36 59
f 28 45 29
f 29 45 47
f 29 47 31
f 31 47 49
f 31 49 34
f 34 49 60
f 34 60 36
f 36 60 59
f 28 26 45
f 45 26 38
f 19 73 20
f 20 73 71
f 20 71 22
f 22 71 39
f 22 39 26
f 26 39 38
f 19 15 73
f 73 15 74

