# https://github.com/mikedh/trimesh

o link_arm_l3_0.obj
v -0.01725000 0.02100000 -0.00900000
v 0.01725000 0.02100000 -0.00900000
v -0.01725000 0.02100000 -0.22650000
v 0.01725000 0.02100000 -0.22650000
v -0.01912500 0.02049800 -0.22650000
v -0.01912500 0.02049800 -0.00900000
v -0.02049800 0.01912500 -0.22650000
v -0.02049800 0.01912500 -0.00900000
v -0.02100000 0.01725000 -0.22650000
v -0.02100000 0.01725000 -0.00900000
v -0.02100000 -0.01725000 -0.00900000
v -0.02100000 -0.01725000 -0.22650000
v -0.02049800 -0.01912500 -0.22650000
v -0.02049800 -0.01912500 -0.00900000
v -0.01912500 -0.02049800 -0.22650000
v -0.01912500 -0.02049800 -0.00900000
v -0.01725000 -0.02100000 -0.22650000
v -0.01725000 -0.02100000 -0.00900000
v 0.01725000 -0.02100000 -0.00900000
v 0.01725000 -0.02100000 -0.22650000
v 0.01912500 -0.02049800 -0.22650000
v 0.01912500 -0.02049800 -0.00900000
v 0.02049800 -0.01912500 -0.22650000
v 0.02049800 -0.01912500 -0.00900000
v 0.02100000 -0.01725000 -0.22650000
v 0.02100000 -0.01725000 -0.00900000
v 0.02100000 0.01725000 -0.00900000
v 0.02100000 0.01725000 -0.22650000
v -0.01950000 0.01725000 -0.00900000
v -0.01950000 0.01725000 -0.22650000
v -0.01919900 0.01837500 -0.00900000
v -0.01919900 0.01837500 -0.22650000
v -0.01837500 0.01919900 -0.00900000
v -0.01837500 0.01919900 -0.22650000
v -0.01725000 0.01950000 -0.00900000
v -0.01725000 0.01950000 -0.22650000
v 0.01725000 0.01950000 -0.00900000
v 0.01725000 0.01950000 -0.22650000
v 0.01837500 0.01919900 -0.00900000
v 0.01837500 0.01919900 -0.22650000
v 0.01919900 0.01837500 -0.00900000
v 0.01919900 0.01837500 -0.22650000
v 0.01950000 0.01725000 -0.00900000
v 0.01950000 0.01725000 -0.22650000
v 0.01950000 -0.01725000 -0.00900000
v 0.01950000 -0.01725000 -0.22650000
v 0.01919900 -0.01837500 -0.00900000
v 0.01919900 -0.01837500 -0.22650000
v 0.01837500 -0.01919900 -0.00900000
v 0.01837500 -0.01919900 -0.22650000
v 0.01725000 -0.01950000 -0.00900000
v 0.01725000 -0.01950000 -0.22650000
v -0.01725000 -0.01950000 -0.00900000
v -0.01725000 -0.01950000 -0.22650000
v -0.01837500 -0.01919900 -0.00900000
v -0.01837500 -0.01919900 -0.22650000
v -0.01919900 -0.01837500 -0.00900000
v -0.01919900 -0.01837500 -0.22650000
v -0.01950000 -0.01725000 -0.00900000
v -0.01950000 -0.01725000 -0.22650000
v 0.02049800 0.01912500 -0.22650000
v 0.02049800 0.01912500 -0.00900000
v 0.01912500 0.02049800 -0.22650000
v 0.01912500 0.02049800 -0.00900000
f 1 2 3
f 3 2 4
f 1 3 5
f 1 5 6
f 6 5 7
f 6 7 8
f 8 7 9
f 8 9 10
f 11 10 12
f 12 10 9
f 11 12 13
f 11 13 14
f 14 13 15
f 14 15 16
f 16 15 17
f 16 17 18
f 19 18 20
f 20 18 17
f 19 20 21
f 19 21 22
f 22 21 23
f 22 23 24
f 24 23 25
f 24 25 26
f 27 26 28
f 28 26 25
f 29 30 31
f 31 30 32
f 31 32 33
f 33 32 34
f 33 34 35
f 35 34 36
f 37 35 38
f 38 35 36
f 37 38 39
f 39 38 40
f 39 40 41
f 41 40 42
f 41 42 43
f 43 42 44
f 45 43 46
f 46 43 44
f 45 46 47
f 47 46 48
f 47 48 49
f 49 48 50
f 49 50 51
f 51 50 52
f 53 51 54
f 54 51 52
f 53 54 55
f 55 54 56
f 55 56 57
f 57 56 58
f 57 58 59
f 59 58 60
f 29 59 30
f 30 59 60
f 27 28 61
f 27 61 62
f 62 61 63
f 62 63 64
f 64 63 4
f 64 4 2
f 44 28 46
f 46 28 25
f 46 25 48
f 48 25 23
f 48 23 50
f 50 23 21
f 50 21 52
f 52 21 20
f 52 20 54
f 54 20 17
f 54 17 56
f 56 17 15
f 56 15 58
f 58 15 13
f 58 13 60
f 60 13 12
f 60 12 30
f 30 12 9
f 30 9 32
f 32 9 7
f 32 7 34
f 34 7 5
f 34 5 36
f 36 5 3
f 36 3 38
f 38 3 4
f 38 4 40
f 40 4 63
f 40 63 42
f 42 63 61
f 42 61 44
f 44 61 28

