# https://github.com/mikedh/trimesh

o link_gripper_finger_right_1.obj
v -0.18196500 -0.01025900 -0.00650000
v -0.18219900 -0.00965000 -0.00650000
v -0.16686200 -0.01743500 -0.00650000
v -0.15067100 -0.02144300 -0.00650000
v -0.06841700 -0.02618600 -0.00650000
v -0.08491200 -0.02893100 -0.00650000
v -0.06891200 -0.02446200 -0.00650000
v -0.10160000 -0.02999100 -0.00650000
v -0.11805300 -0.02750600 -0.00650000
v -0.05228500 -0.02178600 -0.00650000
v -0.03747600 -0.01405400 -0.00650000
v -0.03668100 -0.01577600 -0.00650000
v -0.00781000 0.00142900 -0.00650000
v -0.00769100 0.00081300 -0.00650000
v -0.02176500 -0.00821700 -0.00650000
v -0.11831000 -0.02935600 -0.00650000
v -0.13487000 -0.02703300 -0.00650000
v -0.15110900 -0.02304600 -0.00650000
v -0.00769100 0.00081300 0.00650000
v -0.00781000 0.00142900 0.00650000
v -0.02176500 -0.00821700 0.00650000
v -0.03747600 -0.01405400 0.00650000
v -0.03668100 -0.01577600 0.00650000
v -0.15110900 -0.02304600 0.00650000
v -0.13487000 -0.02703300 0.00650000
v -0.15067100 -0.02144300 0.00650000
v -0.11805300 -0.02750600 0.00650000
v -0.18219900 -0.00965000 0.00650000
v -0.18196500 -0.01025900 0.00650000
v -0.16686200 -0.01743500 0.00650000
v -0.05228500 -0.02178600 0.00650000
v -0.06891200 -0.02446200 0.00650000
v -0.06841700 -0.02618600 0.00650000
v -0.11831000 -0.02935600 0.00650000
v -0.10160000 -0.02999100 0.00650000
v -0.08491200 -0.02893100 0.00650000
v -0.18129000 -0.00921700 0.00650000
v -0.18129000 -0.00921700 -0.00650000
v -0.18129000 -0.00921700 0.00000000
v -0.18117300 -0.00952100 0.00650000
f 1 2 3
f 3 38 4
f 5 6 7
f 7 6 8
f 7 8 9
f 5 7 10
f 10 7 11
f 10 11 12
f 13 14 11
f 11 14 15
f 11 15 12
f 8 16 9
f 9 16 17
f 9 17 4
f 4 17 18
f 4 18 3
f 19 20 21
f 21 20 22
f 21 22 23
f 24 25 26
f 26 25 27
f 40 26 37
f 40 30 26
f 26 30 24
f 23 22 31
f 31 22 32
f 31 32 33
f 25 34 27
f 27 34 35
f 27 35 32
f 32 35 36
f 32 36 33
f 14 19 21
f 14 21 15
f 15 21 23
f 15 23 12
f 12 23 31
f 12 31 10
f 10 31 33
f 10 33 5
f 5 33 36
f 5 36 6
f 6 36 35
f 6 35 8
f 8 35 34
f 8 34 16
f 16 34 25
f 16 25 17
f 17 25 24
f 17 24 18
f 18 24 30
f 18 30 3
f 3 30 29
f 3 29 1
f 28 37 39
f 39 4 38
f 4 26 27
f 4 27 9
f 9 27 32
f 9 32 7
f 7 32 22
f 7 22 11
f 11 22 20
f 11 20 13
f 3 2 38
f 37 28 40
f 28 29 40
f 40 29 30
f 39 2 28
f 37 26 39
f 38 2 39
f 39 26 4

