# https://github.com/mikedh/trimesh

o link_arm_l2_0.obj
v -0.01600000 0.01750000 -0.00900000
v -0.01600000 0.01900000 -0.00900000
v -0.01675000 0.01729900 -0.00900000
v -0.01750000 0.01859800 -0.00900000
v -0.01729900 0.01675000 -0.00900000
v -0.01859800 0.01750000 -0.00900000
v -0.01750000 0.01600000 -0.00900000
v -0.01900000 0.01600000 -0.00900000
v -0.01750000 -0.01600000 -0.00900000
v -0.01900000 -0.01600000 -0.00900000
v -0.01729900 -0.01675000 -0.00900000
v -0.01859800 -0.01750000 -0.00900000
v -0.01675000 -0.01729900 -0.00900000
v -0.01750000 -0.01859800 -0.00900000
v -0.01600000 -0.01750000 -0.00900000
v -0.01600000 -0.01900000 -0.00900000
v 0.01600000 -0.01750000 -0.00900000
v 0.01600000 -0.01900000 -0.00900000
v 0.01675000 -0.01729900 -0.00900000
v 0.01750000 -0.01859800 -0.00900000
v 0.01729900 -0.01675000 -0.00900000
v 0.01859800 -0.01750000 -0.00900000
v 0.01750000 -0.01600000 -0.00900000
v 0.01900000 -0.01600000 -0.00900000
v 0.01750000 0.01600000 -0.00900000
v 0.01900000 0.01600000 -0.00900000
v 0.01729900 0.01675000 -0.00900000
v 0.01859800 0.01750000 -0.00900000
v 0.01675000 0.01729900 -0.00900000
v 0.01750000 0.01859800 -0.00900000
v 0.01600000 0.01750000 -0.00900000
v 0.01600000 0.01900000 -0.00900000
v -0.01600000 0.01750000 -0.22650000
v -0.01600000 0.01900000 -0.22650000
v 0.01600000 0.01750000 -0.22650000
v 0.01600000 0.01900000 -0.22650000
v 0.01675000 0.01729900 -0.22650000
v 0.01750000 0.01859800 -0.22650000
v 0.01729900 0.01675000 -0.22650000
v 0.01859800 0.01750000 -0.22650000
v 0.01750000 0.01600000 -0.22650000
v 0.01900000 0.01600000 -0.22650000
v 0.01750000 -0.01600000 -0.22650000
v 0.01900000 -0.01600000 -0.22650000
v 0.01729900 -0.01675000 -0.22650000
v 0.01859800 -0.01750000 -0.22650000
v 0.01675000 -0.01729900 -0.22650000
v 0.01750000 -0.01859800 -0.22650000
v 0.01600000 -0.01750000 -0.22650000
v 0.01600000 -0.01900000 -0.22650000
v -0.01600000 -0.01750000 -0.22650000
v -0.01600000 -0.01900000 -0.22650000
v -0.01675000 -0.01729900 -0.22650000
v -0.01750000 -0.01859800 -0.22650000
v -0.01729900 -0.01675000 -0.22650000
v -0.01859800 -0.01750000 -0.22650000
v -0.01750000 -0.01600000 -0.22650000
v -0.01900000 -0.01600000 -0.22650000
v -0.01750000 0.01600000 -0.22650000
v -0.01900000 0.01600000 -0.22650000
v -0.01729900 0.01675000 -0.22650000
v -0.01859800 0.01750000 -0.22650000
v -0.01675000 0.01729900 -0.22650000
v -0.01750000 0.01859800 -0.22650000
f 33 34 35
f 35 34 36
f 35 36 37
f 37 36 38
f 37 38 39
f 39 38 40
f 39 40 41
f 41 40 42
f 41 42 43
f 43 42 44
f 43 44 45
f 45 44 46
f 45 46 47
f 47 46 48
f 47 48 49
f 49 48 50
f 49 50 51
f 51 50 52
f 51 52 53
f 53 52 54
f 53 54 55
f 55 54 56
f 55 56 57
f 57 56 58
f 57 58 59
f 59 58 60
f 59 60 61
f 61 60 62
f 61 62 63
f 63 62 64
f 63 64 33
f 33 64 34
f 2 34 64
f 2 64 4
f 4 64 62
f 4 62 6
f 6 62 60
f 6 60 8
f 10 8 58
f 58 8 60
f 10 58 56
f 10 56 12
f 12 56 54
f 12 54 14
f 14 54 52
f 14 52 16
f 18 16 50
f 50 16 52
f 18 50 48
f 18 48 20
f 20 48 46
f 20 46 22
f 22 46 44
f 22 44 24
f 26 24 42
f 42 24 44
f 26 42 40
f 26 40 28
f 28 40 38
f 28 38 30
f 30 38 36
f 30 36 32
f 2 32 34
f 34 32 36
f 15 51 13
f 13 51 53
f 13 53 11
f 11 53 55
f 11 55 9
f 9 55 57
f 15 17 51
f 51 17 49
f 23 43 21
f 21 43 45
f 21 45 19
f 19 45 47
f 19 47 17
f 17 47 49
f 23 25 43
f 43 25 41
f 31 35 29
f 29 35 37
f 29 37 27
f 27 37 39
f 27 39 25
f 25 39 41
f 31 1 35
f 35 1 33
f 7 59 5
f 5 59 61
f 5 61 3
f 3 61 63
f 3 63 1
f 1 63 33
f 7 9 59
f 59 9 57

