# https://github.com/mikedh/trimesh

o link_gripper_finger_right_0.obj
v -0.19558400 -0.01931900 -0.00650000
v -0.19593700 -0.01878900 -0.00650000
v -0.18196500 -0.01025900 -0.00650000
v -0.18219900 -0.00965000 -0.00650000
v 0.00006300 0.00059700 -0.00650000
v 0.00000000 0.00000000 -0.00650000
v -0.00781000 0.00142900 -0.00650000
v -0.00769100 0.00081300 -0.00650000
v 0.00000000 0.00000000 0.00650000
v 0.00006300 0.00059700 0.00650000
v -0.00769100 0.00081300 0.00650000
v -0.00781000 0.00142900 0.00650000
v -0.19593700 -0.01878900 0.00650000
v -0.19558400 -0.01931900 0.00650000
v -0.18219900 -0.00965000 0.00650000
v -0.18196500 -0.01025900 0.00650000
v 0.00000000 0.00000000 -0.00225000
v 0.00000000 0.00000000 0.00225000
v -0.00111900 0.00011800 0.00194900
v -0.00193800 0.00020500 0.00112500
v -0.00111900 0.00011800 -0.00194900
v -0.00193800 0.00020500 -0.00112500
v -0.00223700 0.00023700 0.00000000
v 0.00006300 0.00059700 0.00225000
v -0.00105600 0.00071500 0.00194900
v 0.00006300 0.00059700 -0.00225000
v -0.00105600 0.00071500 -0.00194900
v -0.00187500 0.00080200 0.00112500
v -0.00217400 0.00083300 0.00000000
v -0.00187500 0.00080200 -0.00112500
v -0.18899500 -0.01493600 0.00205600
v -0.18995300 -0.01557300 0.00223700
v -0.19085800 -0.01617500 0.00181900
v -0.19051700 -0.01594800 -0.00205600
v -0.18955900 -0.01531100 -0.00223700
v -0.18865400 -0.01470900 -0.00181900
v -0.19127100 -0.01645000 -0.00132400
v -0.19161900 -0.01668100 -0.00023700
v -0.19146800 -0.01658100 0.00091400
v -0.18824100 -0.01443400 0.00132400
v -0.18789300 -0.01420300 0.00023700
v -0.18804400 -0.01430300 -0.00091400
v -0.19121100 -0.01564500 0.00181900
v -0.19182100 -0.01605100 0.00091400
v -0.19197200 -0.01615100 -0.00023700
v -0.19162400 -0.01592000 -0.00132400
v -0.19086900 -0.01541800 -0.00205600
v -0.18991200 -0.01478100 -0.00223700
v -0.18824600 -0.01367300 0.00023700
v -0.18839700 -0.01377300 -0.00091400
v -0.18900700 -0.01417900 -0.00181900
v -0.18859400 -0.01390400 0.00132400
v -0.18934800 -0.01440600 0.00205600
v -0.19030600 -0.01504300 0.00223700
v -0.18129000 -0.00921700 -0.00650000
v -0.18129000 -0.00921700 0.00650000
v -0.04258300 0.00228700 -0.00650000
v -0.04246500 0.00167100 -0.00650000
v -0.04246500 0.00167100 0.00650000
v -0.04258300 0.00228700 0.00650000
v -0.07798100 0.00166300 -0.00650000
v -0.07786200 0.00104700 -0.00650000
v -0.07786200 0.00104700 0.00650000
v -0.07798100 0.00166300 0.00650000
v -0.11283200 -0.00044200 -0.00650000
v -0.11271300 -0.00105800 -0.00650000
v -0.11271300 -0.00105800 0.00650000
v -0.11283200 -0.00044200 0.00650000
v -0.14760500 -0.00426200 -0.00650000
v -0.14748700 -0.00487800 -0.00650000
v -0.14748700 -0.00487800 0.00650000
v -0.14760500 -0.00426200 0.00650000
v -0.17863600 -0.00901800 -0.00650000
v -0.17851800 -0.00963400 -0.00650000
v -0.17851800 -0.00963400 0.00650000
v -0.17863600 -0.00901800 0.00650000
f 1 2 3
f 3 2 4
f 5 6 7
f 7 6 8
f 9 10 11
f 11 10 12
f 13 14 15
f 15 14 16
f 8 6 17
f 18 9 19
f 19 9 11
f 19 11 20
f 17 21 8
f 8 21 22
f 8 22 11
f 11 22 23
f 11 23 20
f 10 24 12
f 12 24 25
f 26 5 27
f 27 5 7
f 25 28 12
f 12 28 29
f 12 29 7
f 7 29 30
f 7 30 27
f 24 18 25
f 25 18 19
f 25 19 28
f 28 19 20
f 28 20 29
f 29 20 23
f 29 23 30
f 30 23 22
f 30 22 27
f 27 22 21
f 27 21 26
f 26 21 17
f 31 16 32
f 32 16 14
f 32 14 33
f 34 1 35
f 35 1 3
f 35 3 36
f 34 37 1
f 1 37 38
f 1 38 14
f 14 38 39
f 14 39 33
f 31 40 16
f 16 40 41
f 16 41 3
f 3 41 42
f 3 42 36
f 43 44 13
f 13 44 2
f 2 44 45
f 2 45 46
f 46 47 2
f 2 47 48
f 2 48 4
f 49 15 50
f 50 15 4
f 50 4 51
f 51 4 48
f 49 52 15
f 15 52 53
f 15 53 13
f 13 53 54
f 13 54 43
f 1 14 2
f 2 14 13
f 39 44 33
f 33 44 43
f 33 43 32
f 32 43 54
f 32 54 31
f 31 54 53
f 31 53 40
f 40 53 52
f 40 52 41
f 41 52 49
f 41 49 42
f 42 49 50
f 42 50 36
f 36 50 51
f 36 51 35
f 35 51 48
f 35 48 34
f 34 48 47
f 34 47 37
f 37 47 46
f 37 46 38
f 38 46 45
f 38 45 39
f 39 45 44
f 17 6 26
f 26 6 5
f 10 9 24
f 24 9 18
f 12 59 60
f 12 57 7
f 11 58 59
f 7 58 8
f 60 63 64
f 60 61 57
f 57 62 58
f 59 62 63
f 64 65 61
f 61 66 62
f 63 66 67
f 64 67 68
f 66 71 67
f 68 71 72
f 68 69 65
f 65 70 66
f 72 73 69
f 69 74 70
f 70 75 71
f 72 75 76
f 73 56 55
f 74 56 75
f 76 75 56
f 73 55 74
f 12 11 59
f 12 60 57
f 11 8 58
f 7 57 58
f 60 59 63
f 60 64 61
f 57 61 62
f 59 58 62
f 64 68 65
f 61 65 66
f 63 62 66
f 64 63 67
f 66 70 71
f 68 67 71
f 68 72 69
f 65 69 70
f 72 76 73
f 69 73 74
f 70 74 75
f 72 71 75
f 73 76 56
f 74 55 56

