# https://github.com/mikedh/trimesh

o link_head_pan_0.obj
v 0.01177800 0.03076200 -0.03971800
v 0.01160100 0.03076200 -0.04395800
v 0.01139800 0.03076200 -0.04881100
v 0.01118900 0.03076200 -0.05383100
v -0.01378900 0.03076200 -0.05383100
v -0.01399800 0.03076200 -0.04881100
v -0.01420100 0.03076200 -0.04395800
v -0.01437800 0.03076200 -0.03971800
v 0.00991200 0.03076200 -0.05860700
v 0.00991200 0.03076200 -0.05755900
v 0.01038600 0.03076200 -0.05755900
v 0.00294800 0.03076200 -0.06496600
v 0.00294800 0.03076200 -0.06333400
v 0.00453300 0.03076200 -0.06333400
v -0.00859900 0.03076200 -0.06333400
v -0.00848100 0.03076200 -0.06333400
v -0.00848100 0.03076200 -0.06342100
v -0.01251300 0.03076200 -0.03971800
v -0.01251300 0.03076200 -0.04395800
v -0.01251300 0.03076200 -0.04881100
v -0.01251300 0.03076200 -0.05860700
v -0.01298600 0.03076200 -0.05755900
v -0.01251300 0.03076200 -0.05755900
v -0.01325400 0.03076200 -0.05696300
v -0.01251300 0.03076200 -0.05540100
v -0.01194800 0.03076200 -0.05985900
v -0.00848100 0.03076200 -0.05755900
v -0.00995300 0.03076200 -0.06233200
v -0.00739900 0.03076200 -0.06422200
v -0.00580000 0.03076200 -0.06333400
v -0.00580000 0.03076200 -0.06486500
v 0.00599900 0.03076200 -0.06333400
v 0.00479900 0.03076200 -0.06422200
v 0.00453300 0.03076200 -0.06432900
v 0.00468400 0.03076200 -0.06103600
v 0.00532100 0.03076200 -0.06120700
v 0.00735300 0.03076200 -0.06233200
v 0.00595900 0.03076200 -0.06103600
v 0.00642500 0.03076200 -0.06057000
v 0.00934800 0.03076200 -0.05985900
v 0.00659600 0.03076200 -0.05993200
v 0.00642500 0.03076200 -0.05929500
v 0.00595900 0.03076200 -0.05882800
v 0.00453300 0.03076200 -0.05755900
v 0.00532100 0.03076200 -0.05865700
v 0.00468400 0.03076200 -0.05882800
v 0.00991200 0.03076200 -0.05540100
v 0.01042800 0.03076200 -0.05488600
v 0.00991200 0.03076200 -0.04395800
v 0.00991200 0.03076200 -0.04881100
v 0.00453300 0.03076200 -0.04395800
v 0.00991200 0.03076200 -0.03971800
v -0.00848100 0.03076200 -0.05579400
v -0.00757200 0.03076200 -0.05488600
v -0.00786800 0.03076200 -0.04881100
v -0.00786300 0.03076200 -0.04928900
v -0.00848100 0.03076200 -0.05082700
v -0.00733800 0.03076200 -0.05018100
v -0.00757200 0.03076200 -0.05173600
v -0.00607600 0.03076200 -0.05299900
v -0.00692200 0.03076200 -0.05437200
v -0.00708900 0.03076200 -0.05597700
v -0.00654300 0.03076200 -0.05749500
v -0.00647800 0.03076200 -0.05755900
v -0.00655900 0.03076200 -0.05094700
v -0.00614100 0.03076200 -0.05154400
v -0.00596500 0.03076200 -0.05225300
v -0.00605500 0.03076200 -0.05297700
v -0.00715000 0.03076200 -0.05331100
v -0.00848100 0.03076200 -0.04395800
v -0.00580000 0.03076200 -0.04395800
v -0.00580000 0.03076200 -0.04682200
v -0.00647100 0.03076200 -0.04682800
v -0.00736300 0.03076200 -0.04735300
v -0.00848100 0.03076200 -0.04881100
v -0.00787200 0.03076200 -0.04825400
v -0.00402800 0.03076200 -0.04273600
v -0.00435500 0.03076200 -0.04395800
v -0.00445000 0.03076200 -0.04431100
v -0.00402800 0.03076200 -0.04588600
v -0.00543500 0.03076200 -0.04681900
v 0.00126500 0.03076200 -0.04747600
v 0.00027500 0.03076200 -0.04703900
v 0.00142800 0.03076200 -0.04588600
v 0.00185000 0.03076200 -0.04431100
v 0.00294800 0.03076200 -0.04395800
v -0.00287500 0.03076200 -0.04703900
v -0.00375600 0.03076200 -0.04809300
v -0.00453400 0.03076200 -0.04732800
v -0.00169500 0.03076200 -0.04854100
v -0.00171600 0.03076200 -0.04856300
v -0.00243900 0.03076200 -0.04866500
v -0.00130000 0.03076200 -0.04746100
v -0.00315000 0.03076200 -0.04850200
v -0.00033700 0.03076200 -0.04767100
v 0.00448900 0.03076200 -0.05064500
v 0.00453300 0.03076200 -0.04881100
v 0.00394300 0.03076200 -0.04912700
v 0.00362100 0.03076200 -0.04881100
v 0.00294800 0.03076200 -0.05416000
v 0.00347600 0.03076200 -0.05362300
v 0.00432200 0.03076200 -0.05224900
v -0.00402800 0.03076200 -0.06073600
v -0.00445000 0.03076200 -0.06231100
v -0.00417600 0.03076200 -0.06333400
v -0.00402800 0.03076200 -0.06388600
v -0.00445100 0.03076200 -0.06540700
v -0.00287500 0.03076200 -0.06503900
v -0.00130000 0.03076200 -0.06581100
v -0.00130000 0.03076200 -0.06546100
v 0.00185100 0.03076200 -0.06540700
v 0.00027500 0.03076200 -0.06503900
v 0.00142800 0.03076200 -0.06388600
v 0.00157600 0.03076200 -0.06333400
v 0.00185000 0.03076200 -0.06231100
v 0.00294800 0.03076200 -0.05755900
v -0.00090500 0.03076200 -0.05808000
v -0.00039200 0.03076200 -0.05755900
v 0.00142800 0.03076200 -0.06073600
v 0.00027500 0.03076200 -0.05958300
v -0.00130000 0.03076200 -0.05916100
v -0.00226300 0.03076200 -0.05895100
v -0.00386500 0.03076200 -0.05914500
v -0.00287500 0.03076200 -0.05958300
v -0.00539200 0.03076200 -0.05862600
v -0.00580000 0.03076200 -0.05822500
v -0.00872500 0.03076200 -0.05058300
v -0.01030000 0.03076200 -0.05016100
v -0.01187500 0.03076200 -0.05058300
v -0.01251300 0.03076200 -0.05122000
v -0.01302800 0.03076200 -0.05173600
v -0.01345000 0.03076200 -0.05331100
v -0.01302800 0.03076200 -0.05488600
v -0.01187500 0.03076200 -0.05603900
v -0.01030000 0.03076200 -0.05646100
v -0.00872500 0.03076200 -0.05603900
v 0.00175500 0.03076200 -0.04395800
v 0.00142800 0.03076200 -0.04273600
v 0.00294800 0.03076200 -0.03971800
v -0.00287500 0.03076200 -0.04158300
v -0.00580000 0.03076200 -0.03971800
v -0.00130000 0.03076200 -0.04116100
v 0.00027500 0.03076200 -0.04158300
v 0.00770000 0.03076200 -0.05016100
v 0.00612500 0.03076200 -0.05058300
v 0.01065400 0.03076200 -0.05696300
v 0.01085000 0.03076200 -0.05331100
v 0.01042800 0.03076200 -0.05173600
v 0.00991200 0.03076200 -0.05122000
v 0.00927500 0.03076200 -0.05058300
v 0.00497200 0.03076200 -0.05488600
v 0.00455000 0.03076200 -0.05331100
v 0.00497200 0.03076200 -0.05173600
v 0.00612500 0.03076200 -0.05603900
v 0.00770000 0.03076200 -0.05646100
v 0.00927500 0.03076200 -0.05603900
v 0.00453300 0.03076200 -0.05897900
v 0.00421700 0.03076200 -0.05929500
v 0.00404600 0.03076200 -0.05993200
v 0.00421700 0.03076200 -0.06057000
v 0.00453300 0.03076200 -0.06088500
v 0.00706200 0.03076200 -0.03589600
v 0.00770000 0.03076200 -0.03572500
v 0.00833700 0.03076200 -0.03589600
v 0.00833700 0.03076200 -0.03810400
v 0.00880400 0.03076200 -0.03763700
v 0.00897500 0.03076200 -0.03700000
v 0.00880400 0.03076200 -0.03636200
v 0.00659600 0.03076200 -0.03636200
v 0.00642500 0.03076200 -0.03700000
v 0.00453300 0.03076200 -0.03971800
v 0.00659600 0.03076200 -0.03763700
v 0.00706200 0.03076200 -0.03810400
v 0.00770000 0.03076200 -0.03827500
v 0.00294800 0.03076200 -0.04814900
v 0.00279200 0.03076200 -0.04799600
v -0.00848100 0.03076200 -0.03971800
v -0.00902500 0.03076200 -0.03700000
v -0.00919600 0.03076200 -0.03636200
v -0.01093700 0.03076200 -0.03589600
v -0.01030000 0.03076200 -0.03572500
v -0.00966200 0.03076200 -0.03589600
v -0.01140400 0.03076200 -0.03636200
v -0.01157500 0.03076200 -0.03700000
v -0.01140400 0.03076200 -0.03763700
v -0.01093700 0.03076200 -0.03810400
v -0.01030000 0.03076200 -0.03827500
v -0.00966200 0.03076200 -0.03810400
v -0.00919600 0.03076200 -0.03763700
v -0.01030000 0.03051200 -0.03597500
v -0.00978700 0.03051200 -0.03611200
v -0.00941200 0.03051200 -0.03648700
v -0.00927500 0.03051200 -0.03700000
v -0.00941200 0.03051200 -0.03751200
v -0.00978700 0.03051200 -0.03788800
v -0.01030000 0.03051200 -0.03802500
v -0.01081200 0.03051200 -0.03788800
v -0.01118800 0.03051200 -0.03751200
v -0.01132500 0.03051200 -0.03700000
v -0.01118800 0.03051200 -0.03648700
v -0.01081200 0.03051200 -0.03611200
v 0.00770000 0.03051200 -0.03597500
v 0.00821200 0.03051200 -0.03611200
v 0.00858800 0.03051200 -0.03648700
v 0.00872500 0.03051200 -0.03700000
v 0.00858800 0.03051200 -0.03751200
v 0.00821200 0.03051200 -0.03788800
v 0.00770000 0.03051200 -0.03802500
v 0.00718700 0.03051200 -0.03788800
v 0.00681200 0.03051200 -0.03751200
v 0.00667500 0.03051200 -0.03700000
v 0.00681200 0.03051200 -0.03648700
v 0.00718700 0.03051200 -0.03611200
v 0.00634600 0.03051200 -0.05993200
v 0.00620900 0.03051200 -0.05942000
v 0.00583400 0.03051200 -0.05904400
v 0.00532100 0.03051200 -0.05890700
v 0.00480900 0.03051200 -0.06082000
v 0.00532100 0.03051200 -0.06095700
v 0.00583400 0.03051200 -0.06082000
v 0.00620900 0.03051200 -0.06044500
v 0.00443400 0.03051200 -0.05942000
v 0.00429600 0.03051200 -0.05993200
v 0.00443400 0.03051200 -0.06044500
v 0.00480900 0.03051200 -0.05904400
v -0.00831800 0.03515600 -0.05400000
v -0.00781000 0.03567300 -0.05400000
v -0.00775100 0.03570300 -0.05507600
v 0.00132700 0.03570300 -0.05998900
v 0.00096700 0.03653100 -0.05916900
v 0.00178700 0.03653100 -0.05872500
v -0.00693600 0.03651900 -0.05400000
v -0.00592800 0.03720300 -0.05400000
v -0.00588200 0.03722900 -0.05476500
v 0.00033300 0.03819200 -0.05577400
v -0.00047600 0.03843800 -0.05489500
v -0.00034000 0.03843800 -0.05474700
v -0.00367800 0.03819200 -0.05439700
v -0.00250000 0.03843800 -0.05420000
v -0.00245100 0.03843800 -0.05439500
v -0.00130000 0.03852100 -0.05400000
v -0.00063500 0.03843800 -0.05501800
v -0.00159900 0.03843800 -0.05517900
v -0.00178900 0.03843800 -0.05511400
v -0.00140000 0.03843800 -0.05521200
v -0.00219300 0.03847600 -0.05400000
v 0.00487300 0.03522400 -0.05721900
v 0.00472500 0.03535200 -0.05725700
v 0.00445200 0.03570300 -0.05711300
v 0.00360800 0.03604900 -0.05778100
v 0.00358500 0.03605200 -0.05780200
v 0.00315400 0.03653100 -0.05746700
v 0.00277500 0.03588100 -0.05889200
v 0.00268300 0.03570300 -0.05918300
v 0.00227700 0.03570300 -0.05947500
v 0.00264200 0.03562400 -0.05931100
v 0.00257500 0.03522400 -0.05978400
v 0.00257900 0.03504900 -0.05994100
v 0.00327300 0.03610100 -0.05809700
v 0.00299600 0.03604900 -0.05846400
v 0.00252300 0.03653100 -0.05815300
v 0.00401000 0.03588100 -0.05751500
v 0.00441100 0.03562400 -0.05733700
v 0.00428800 0.03570300 -0.05739200
v 0.00366400 0.03653100 -0.05668600
v -0.00040700 0.03847600 -0.05400000
v -0.00010000 0.03843800 -0.05420000
v -0.00008900 0.03841200 -0.05400000
v 0.00107800 0.03819200 -0.05439700
v -0.00261800 0.03819200 -0.05601800
v -0.00226800 0.03819200 -0.05620800
v -0.00189200 0.03819200 -0.05633700
v -0.00149900 0.03819200 -0.05640200
v 0.00001900 0.03819200 -0.05601800
v 0.00064700 0.03778600 -0.05698100
v -0.00081100 0.03843800 -0.05511400
v -0.00559000 0.03743300 -0.05400000
v -0.00484400 0.03774600 -0.05400000
v -0.00481200 0.03778600 -0.05458600
v -0.00358000 0.03819200 -0.05478300
v -0.00237000 0.03843800 -0.05457900
v -0.00394300 0.03812400 -0.05400000
v -0.00370700 0.03817100 -0.05400000
v -0.00251100 0.03841200 -0.05400000
v -0.00371200 0.03778600 -0.05662000
v -0.00324700 0.03778600 -0.05698100
v -0.00273000 0.03778600 -0.05726100
v -0.00217400 0.03778600 -0.05745200
v -0.00159400 0.03778600 -0.05754800
v -0.00033200 0.03819200 -0.05620800
v 0.00013000 0.03778600 -0.05726100
v 0.00056600 0.03722900 -0.05825400
v 0.00110700 0.03817100 -0.05400000
v 0.00134300 0.03812400 -0.05400000
v 0.00221200 0.03778600 -0.05458600
v -0.00466800 0.03778600 -0.05515600
v -0.00342000 0.03819200 -0.05514700
v -0.00226000 0.03843800 -0.05474700
v -0.00496600 0.03722900 -0.05685300
v -0.00444600 0.03722900 -0.05741800
v -0.00384100 0.03722900 -0.05788900
v -0.00316600 0.03722900 -0.05825400
v -0.00244000 0.03722900 -0.05850300
v -0.00168400 0.03722900 -0.05862900
v 0.00224400 0.03774600 -0.05400000
v 0.00299000 0.03743300 -0.05400000
v 0.00328200 0.03722900 -0.05476500
v 0.00332800 0.03720300 -0.05400000
v 0.00426800 0.03653100 -0.05492900
v -0.00706700 0.03643000 -0.05400000
v -0.00686800 0.03653100 -0.05492900
v -0.00569300 0.03722900 -0.05550800
v -0.00443100 0.03778600 -0.05569500
v -0.00320200 0.03819200 -0.05548100
v -0.00212400 0.03843800 -0.05489500
v -0.00626400 0.03653100 -0.05668600
v -0.00575400 0.03653100 -0.05746700
v -0.00512300 0.03653100 -0.05815300
v -0.00438700 0.03653100 -0.05872500
v -0.00356700 0.03653100 -0.05916900
v -0.00268600 0.03653100 -0.05947200
v -0.00176600 0.03653100 -0.05962500
v 0.00124100 0.03722900 -0.05788900
v 0.00292800 0.03599700 -0.05859500
v 0.00184600 0.03722900 -0.05741800
v 0.00111200 0.03778600 -0.05662000
v 0.00236600 0.03722900 -0.05685300
v 0.00151000 0.03778600 -0.05618700
v 0.00060200 0.03819200 -0.05548100
v 0.00278500 0.03722900 -0.05621100
v 0.00183100 0.03778600 -0.05569500
v 0.00082000 0.03819200 -0.05514700
v -0.00023000 0.03843800 -0.05457900
v -0.00663900 0.03653100 -0.05583300
v -0.00538500 0.03722900 -0.05621100
v -0.00411000 0.03778600 -0.05618700
v -0.00293300 0.03819200 -0.05577400
v -0.00196500 0.03843800 -0.05501800
v -0.00748600 0.03570300 -0.05612400
v -0.00705200 0.03570300 -0.05711300
v -0.00646100 0.03570300 -0.05801700
v -0.00573000 0.03570300 -0.05881200
v -0.00487700 0.03570300 -0.05947500
v -0.00392700 0.03570300 -0.05998900
v -0.00290500 0.03570300 -0.06034000
v -0.00184000 0.03570300 -0.06051800
v 0.00258400 0.03476300 -0.06020000
v 0.00163900 0.03476300 -0.06070000
v -0.00014900 0.03843800 -0.05439500
v 0.00098000 0.03819200 -0.05478300
v 0.00206800 0.03778600 -0.05515600
v 0.00309300 0.03722900 -0.05550800
v 0.00403900 0.03653100 -0.05583300
v 0.00488600 0.03570300 -0.05612400
v 0.00528800 0.03476300 -0.05718200
v 0.00515100 0.03570300 -0.05507600
v -0.00851600 0.03476300 -0.05520400
v -0.00821900 0.03476300 -0.05637500
v -0.00773400 0.03476300 -0.05748200
v -0.00707300 0.03476300 -0.05849300
v -0.00625500 0.03476300 -0.05938200
v -0.00530100 0.03476300 -0.06012500
v -0.00423900 0.03476300 -0.06070000
v -0.00309600 0.03476300 -0.06109200
v -0.00190400 0.03476300 -0.06129100
v -0.00861600 0.03476300 -0.05400000
v -0.00069600 0.03476300 -0.06129100
v -0.00076000 0.03570300 -0.06051800
v -0.00083400 0.03653100 -0.05962500
v -0.00091600 0.03722900 -0.05862900
v -0.00100600 0.03778600 -0.05754800
v -0.00110100 0.03819200 -0.05640200
v -0.00119900 0.03843800 -0.05521200
v 0.00049600 0.03476300 -0.06109200
v 0.00030600 0.03570300 -0.06034000
v 0.00008600 0.03653100 -0.05947200
v -0.00016000 0.03722900 -0.05850300
v -0.00042600 0.03778600 -0.05745200
v -0.00070800 0.03819200 -0.05633700
v -0.00100100 0.03843800 -0.05517900
v 0.00433600 0.03651900 -0.05400000
v 0.00446700 0.03643000 -0.05400000
v 0.00521000 0.03567300 -0.05400000
v 0.00571800 0.03515600 -0.05400000
v 0.00562000 0.03476300 -0.05637500
v 0.00591600 0.03476300 -0.05520400
v 0.00601600 0.03476300 -0.05400000
v 0.00481600 0.03476300 -0.06263500
v 0.00536600 0.03476300 -0.06268200
v 0.00471600 0.03476300 -0.06311200
v -0.01174800 0.03476300 -0.03933800
v -0.01080500 0.03476300 -0.03970300
v -0.01279000 0.03476300 -0.05379000
v -0.01253100 0.03476300 -0.03500000
v -0.01218700 0.03476300 -0.03500000
v -0.01276200 0.03476300 -0.03577400
v -0.01303800 0.03476300 -0.03674600
v -0.01353000 0.03476300 -0.03604200
v -0.01294500 0.03476300 -0.03775300
v -0.01249400 0.03476300 -0.03865700
v -0.00861600 0.03476300 -0.03917400
v -0.00885200 0.03476300 -0.03933800
v -0.00979500 0.03476300 -0.03970300
v -0.01350500 0.03476300 -0.03577500
v -0.01341000 0.03476300 -0.03552400
v -0.01325200 0.03476300 -0.03530800
v 0.00387400 0.03476300 -0.06227000
v -0.01304300 0.03476300 -0.03514100
v -0.01279600 0.03476300 -0.03503600
v 0.00312700 0.03476300 -0.06158900
v -0.00059700 0.03476300 -0.06478900
v 0.00267600 0.03476300 -0.06068500
v -0.00200300 0.03476300 -0.06478900
v 0.00347500 0.03476300 -0.06377300
v 0.00216200 0.03476300 -0.06427700
v 0.00079800 0.03476300 -0.06461800
v -0.00339800 0.03476300 -0.06461800
v -0.00476200 0.03476300 -0.06427700
v -0.00607500 0.03476300 -0.06377300
v -0.01264600 0.03476300 -0.05518800
v -0.01233200 0.03476300 -0.05655900
v -0.00951100 0.03476300 -0.06136300
v -0.01043200 0.03476300 -0.06030100
v -0.01121700 0.03476300 -0.05913400
v -0.01185300 0.03476300 -0.05788100
v -0.00731600 0.03476300 -0.06311200
v -0.00846700 0.03476300 -0.06230500
v 0.00861700 0.03476300 -0.05913400
v 0.00807100 0.03476300 -0.05997700
v 0.00806000 0.03476300 -0.05967800
v 0.00925300 0.03476300 -0.05788100
v 0.00778300 0.03476300 -0.05870600
v 0.00973200 0.03476300 -0.05655900
v 0.00717400 0.03476300 -0.05790000
v 0.01004600 0.03476300 -0.05518800
v 0.01016200 0.03476300 -0.03577400
v 0.00958700 0.03476300 -0.03500000
v 0.00993100 0.03476300 -0.03500000
v 0.01019000 0.03476300 -0.05379000
v 0.00631500 0.03476300 -0.05736800
v 0.01093000 0.03476300 -0.03604200
v 0.00532100 0.03476300 -0.05718200
v 0.01019600 0.03476300 -0.03503600
v 0.01044300 0.03476300 -0.03514100
v 0.01065200 0.03476300 -0.03530800
v 0.00601600 0.03476300 -0.03917400
v 0.00625200 0.03476300 -0.03933800
v 0.01081000 0.03476300 -0.03552400
v 0.01090500 0.03476300 -0.03577500
v 0.01043800 0.03476300 -0.03674600
v 0.01034500 0.03476300 -0.03775300
v 0.00989400 0.03476300 -0.03865700
v 0.00719500 0.03476300 -0.03970300
v 0.00820500 0.03476300 -0.03970300
v 0.00914800 0.03476300 -0.03933800
v -0.00610000 0.03076200 -0.05400000
v -0.00677200 0.03076200 -0.05400000
v -0.00610000 0.03326200 -0.05400000
v -0.00677200 0.03476300 -0.05400000
v -0.00591700 0.03418100 -0.05400000
v -0.00557300 0.03476300 -0.05400000
v 0.00297300 0.03476300 -0.05400000
v 0.00310500 0.03476300 -0.05400000
v 0.00310500 0.03226300 -0.05400000
v -0.00148300 0.03418100 -0.05400000
v -0.00182600 0.03476300 -0.05400000
v -0.00077300 0.03476300 -0.05400000
v -0.00130000 0.03326200 -0.05400000
v 0.00253300 0.03518800 -0.05400000
v -0.00116600 0.03276200 -0.05400000
v -0.00080000 0.03239600 -0.05400000
v -0.00030000 0.03226300 -0.05400000
v -0.00033300 0.03518800 -0.05400000
v 0.00020100 0.03548800 -0.05400000
v 0.00079400 0.03564300 -0.05400000
v 0.00140600 0.03564300 -0.05400000
v 0.00199900 0.03548800 -0.05400000
v 0.00297100 0.03476300 -0.05413600
v 0.00288000 0.03476300 -0.05488800
v -0.00090500 0.03476300 -0.05808000
v 0.00260400 0.03476300 -0.05573800
v 0.00215700 0.03476300 -0.05651200
v 0.00155900 0.03476300 -0.05717600
v 0.00083700 0.03476300 -0.05770100
v 0.00002100 0.03476300 -0.05806400
v -0.00085300 0.03476300 -0.05825000
v -0.00110500 0.03476300 -0.05826900
v 0.00642400 0.03076200 -0.03611900
v 0.00698000 0.03076200 -0.03562800
v 0.00400000 0.03076200 -0.03400000
v 0.00993100 0.03076200 -0.03400000
v 0.00400000 0.03076200 -0.05400000
v 0.00770000 0.03076200 -0.03855000
v 0.00732900 0.03076200 -0.03850500
v 0.00667200 0.03076200 -0.03816000
v 0.00625100 0.03076200 -0.03755000
v 0.00616100 0.03076200 -0.03681300
v 0.00770000 0.03076200 -0.03545000
v 0.00842000 0.03076200 -0.03562800
v 0.01071500 0.03076200 -0.03416000
v 0.00897600 0.03076200 -0.03611900
v 0.01137400 0.03076200 -0.03461600
v 0.01180200 0.03076200 -0.03529300
v 0.00923900 0.03076200 -0.03681300
v 0.01192900 0.03076200 -0.03608300
v 0.00914900 0.03076200 -0.03755000
v -0.01067100 0.03076200 -0.03850500
v -0.01132800 0.03076200 -0.03816000
v -0.00958000 0.03076200 -0.03562800
v -0.00610000 0.03076200 -0.03400000
v -0.01030000 0.03076200 -0.03545000
v -0.01253100 0.03076200 -0.03400000
v -0.01102000 0.03076200 -0.03562800
v -0.00902400 0.03076200 -0.03611900
v -0.00876100 0.03076200 -0.03681300
v 0.00872800 0.03076200 -0.03816000
v 0.00807100 0.03076200 -0.03850500
v 0.01092100 0.03076200 -0.05593600
v 0.01030100 0.03076200 -0.05796400
v 0.00310500 0.03076200 -0.05400000
v -0.01452900 0.03076200 -0.03608300
v -0.00180800 0.03076200 -0.05875100
v 0.00387100 0.03076200 -0.05993200
v -0.00287300 0.03076200 -0.05911200
v 0.00406600 0.03076200 -0.05920700
v 0.00459600 0.03076200 -0.05867600
v 0.00532100 0.03076200 -0.05848200
v 0.00604600 0.03076200 -0.05867600
v 0.00657700 0.03076200 -0.05920700
v 0.00808700 0.03076200 -0.06156500
v 0.00677100 0.03076200 -0.05993200
v 0.00657700 0.03076200 -0.06065700
v 0.00655600 0.03076200 -0.06303300
v 0.00604600 0.03076200 -0.06118800
v 0.00532100 0.03076200 -0.06138200
v 0.00286600 0.03076200 -0.06509600
v 0.00459600 0.03076200 -0.06118800
v 0.00081400 0.03076200 -0.06563100
v 0.00406600 0.03076200 -0.06065700
v -0.00927200 0.03076200 -0.03816000
v -0.00705400 0.03076200 -0.05620400
v -0.00885100 0.03076200 -0.03755000
v -0.00708600 0.03076200 -0.05508000
v -0.01030000 0.03076200 -0.03855000
v -0.01290100 0.03076200 -0.05796400
v -0.01174900 0.03076200 -0.03755000
v -0.01183900 0.03076200 -0.03681300
v -0.01440200 0.03076200 -0.03529300
v -0.01157600 0.03076200 -0.03611900
v -0.01397400 0.03076200 -0.03461600
v -0.01331500 0.03076200 -0.03416000
v -0.01352100 0.03076200 -0.05593600
v -0.01068700 0.03076200 -0.06156500
v -0.00667900 0.03076200 -0.05726400
v -0.00992900 0.03076200 -0.03850500
v -0.00599700 0.03076200 -0.05815900
v -0.00915600 0.03076200 -0.06303300
v -0.00507300 0.03076200 -0.05880100
v -0.00399800 0.03076200 -0.05912900
v -0.00546600 0.03076200 -0.06509600
v -0.00341400 0.03076200 -0.06563100
v 0.00571800 0.03515600 -0.03509400
v 0.00607000 0.03468600 -0.03461700
v 0.00601600 0.03476300 -0.03482600
v 0.00602600 0.03474900 -0.03483600
v 0.00621700 0.03447000 -0.03429300
v 0.00571800 0.03515600 -0.03400000
v 0.00642100 0.03414500 -0.03407600
v 0.00663800 0.03376200 -0.03400000
v -0.00881900 0.03446600 -0.03428900
v -0.00831800 0.03515600 -0.03400000
v -0.00871000 0.03462900 -0.03450000
v -0.00861600 0.03476300 -0.03482600
v -0.00862600 0.03474900 -0.03483600
v -0.00894900 0.03426200 -0.03413400
v -0.00909300 0.03402200 -0.03403400
v -0.00923800 0.03376200 -0.03400000
v -0.00755000 0.03599600 -0.03700000
v -0.00759700 0.03595100 -0.03649500
v -0.00706700 0.03643000 -0.03400000
v -0.00774100 0.03580700 -0.03800700
v -0.00759700 0.03595100 -0.03750500
v -0.00796100 0.03557300 -0.03844600
v -0.00831800 0.03515600 -0.03890600
v -0.00774100 0.03580700 -0.03599300
v -0.00796100 0.03557300 -0.03555400
v -0.00831800 0.03515600 -0.03509400
v 0.00446700 0.03643000 -0.03400000
v 0.00536100 0.03557300 -0.03555400
v 0.00514100 0.03580700 -0.03599300
v 0.00499700 0.03595100 -0.03649500
v 0.00495000 0.03599600 -0.03700000
v 0.00499700 0.03595100 -0.03750500
v 0.00514100 0.03580700 -0.03800700
v 0.00536100 0.03557300 -0.03844600
v 0.00571800 0.03515600 -0.03890600
v 0.00299000 0.03743300 -0.03400000
v 0.00134300 0.03812400 -0.03400000
v -0.00040700 0.03847600 -0.03400000
v -0.00219300 0.03847600 -0.03400000
v -0.00394300 0.03812400 -0.03400000
v -0.00559000 0.03743300 -0.03400000
v -0.01253100 0.03376200 -0.03400000
v -0.00148300 0.03418100 -0.03400000
v -0.00130000 0.03326200 -0.03400000
v 0.00993100 0.03376200 -0.03400000
v 0.00400000 0.03226300 -0.03400000
v -0.00030000 0.03226300 -0.03400000
v -0.00080000 0.03239600 -0.03400000
v -0.00116600 0.03276200 -0.03400000
v -0.00610000 0.03326200 -0.03400000
v -0.00591700 0.03418100 -0.03400000
v -0.00539700 0.03496000 -0.03400000
v -0.00461800 0.03548000 -0.03400000
v -0.00370000 0.03566200 -0.03400000
v -0.00278200 0.03548000 -0.03400000
v -0.00200300 0.03496000 -0.03400000
v 0.01192900 0.03376200 -0.03608300
v 0.01118900 0.03376200 -0.05383100
v -0.01378900 0.03376200 -0.05383100
v -0.01452900 0.03376200 -0.03608300
v 0.00400000 0.03226300 -0.05400000
v -0.00400600 0.03564300 -0.05400000
v -0.00370000 0.03564300 -0.05400000
v -0.00538400 0.03494600 -0.05400000
v -0.00513300 0.03518800 -0.05400000
v -0.00461700 0.03547800 -0.05400000
v -0.00459900 0.03548800 -0.05400000
v -0.00339400 0.03564300 -0.05400000
v -0.00280100 0.03548800 -0.05400000
v -0.00278300 0.03547800 -0.05400000
v -0.00226700 0.03518800 -0.05400000
v -0.00201600 0.03494600 -0.05400000
v -0.00974000 0.03356200 -0.03555500
v -0.00959100 0.03356200 -0.03564700
v -0.00925600 0.03356200 -0.03585500
v -0.00876800 0.03356200 -0.03681500
v -0.00891200 0.03356200 -0.03630900
v -0.00904400 0.03356200 -0.03613500
v -0.00875700 0.03356200 -0.03685700
v -0.00880900 0.03356200 -0.03742400
v -0.00886700 0.03356200 -0.03754100
v -0.00906300 0.03356200 -0.03793400
v -0.00929000 0.03356200 -0.03814100
v -0.00948400 0.03356200 -0.03831800
v -0.00993400 0.03356200 -0.03849200
v -0.01001500 0.03356200 -0.03852400
v -0.01058500 0.03356200 -0.03852400
v -0.01066600 0.03356200 -0.03849200
v -0.01111600 0.03356200 -0.03831800
v -0.01173300 0.03356200 -0.03754100
v -0.01153700 0.03356200 -0.03793400
v -0.01131000 0.03356200 -0.03814100
v -0.01179100 0.03356200 -0.03742400
v -0.01184300 0.03356200 -0.03685700
v -0.01183100 0.03356200 -0.03681500
v -0.01168700 0.03356200 -0.03630900
v -0.01155600 0.03356200 -0.03613500
v -0.01134400 0.03356200 -0.03585500
v -0.01100800 0.03356200 -0.03564700
v -0.01086000 0.03356200 -0.03555500
v -0.01030000 0.03356200 -0.03545000
v -0.00844700 0.03476300 -0.03496800
v -0.00897500 0.03470200 -0.03465900
v -0.00934700 0.03465000 -0.03454000
v -0.00953000 0.03462900 -0.03450000
v -0.01030000 0.03458300 -0.03442900
v -0.01107000 0.03462900 -0.03450000
v -0.01124900 0.03465300 -0.03455500
v -0.01172600 0.03471700 -0.03470200
v -0.01215200 0.03476200 -0.03496800
v -0.00810500 0.03476300 -0.03865700
v -0.00799200 0.03476300 -0.03843000
v -0.00765500 0.03476300 -0.03775300
v -0.00763200 0.03476300 -0.03750100
v -0.00798900 0.03476300 -0.03557500
v -0.00783800 0.03476300 -0.03577400
v -0.00763000 0.03476300 -0.03650500
v -0.00756200 0.03476300 -0.03674600
v 0.00826000 0.03356200 -0.03555500
v 0.00840800 0.03356200 -0.03564700
v 0.00874400 0.03356200 -0.03585500
v 0.00923100 0.03356200 -0.03681500
v 0.00908800 0.03356200 -0.03630900
v 0.00895600 0.03356200 -0.03613500
v 0.00924300 0.03356200 -0.03685700
v 0.00919100 0.03356200 -0.03742400
v 0.00913300 0.03356200 -0.03754100
v 0.00893700 0.03356200 -0.03793400
v 0.00871000 0.03356200 -0.03814100
v 0.00851600 0.03356200 -0.03831800
v 0.00806600 0.03356200 -0.03849200
v 0.00798500 0.03356200 -0.03852400
v 0.00741500 0.03356200 -0.03852400
v 0.00733400 0.03356200 -0.03849200
v 0.00688400 0.03356200 -0.03831800
v 0.00626700 0.03356200 -0.03754100
v 0.00646300 0.03356200 -0.03793400
v 0.00669000 0.03356200 -0.03814100
v 0.00620900 0.03356200 -0.03742400
v 0.00615700 0.03356200 -0.03685700
v 0.00616800 0.03356200 -0.03681500
v 0.00631200 0.03356200 -0.03630900
v 0.00644400 0.03356200 -0.03613500
v 0.00665600 0.03356200 -0.03585500
v 0.00699200 0.03356200 -0.03564700
v 0.00714000 0.03356200 -0.03555500
v 0.00770000 0.03356200 -0.03545000
v 0.00924900 0.03473400 -0.03476300
v 0.00954900 0.03475900 -0.03497300
v 0.00818200 0.03460200 -0.03445600
v 0.00865000 0.03465600 -0.03455900
v 0.00891300 0.03468600 -0.03461700
v 0.00722000 0.03460200 -0.03445600
v 0.00770000 0.03458300 -0.03442900
v 0.00584700 0.03476300 -0.03496800
v 0.00538900 0.03476300 -0.03557500
v 0.00648700 0.03468600 -0.03461700
v 0.00674700 0.03465000 -0.03454000
v 0.00550500 0.03476300 -0.03865700
v 0.00539200 0.03476300 -0.03843000
v 0.00505500 0.03476300 -0.03775300
v 0.00503200 0.03476300 -0.03750100
v 0.00496200 0.03476300 -0.03674600
v 0.00503000 0.03476300 -0.03650500
v 0.00523800 0.03476300 -0.03577400
v -0.01447900 0.03376200 -0.03555000
v -0.01438500 0.03376200 -0.03529900
v -0.01429000 0.03376200 -0.03504800
v -0.01397400 0.03376200 -0.03461600
v -0.01355500 0.03376200 -0.03428200
v -0.01330800 0.03376200 -0.03417700
v -0.01306200 0.03376200 -0.03407200
v 0.01046200 0.03376200 -0.03407200
v 0.01070800 0.03376200 -0.03417700
v 0.01095500 0.03376200 -0.03428200
v 0.01137400 0.03376200 -0.03461600
v 0.01169000 0.03376200 -0.03504800
v 0.01178500 0.03376200 -0.03529900
v 0.01187900 0.03376200 -0.03555000
v 0.01103200 0.03376200 -0.05535200
v 0.01090000 0.03376200 -0.05593100
v 0.01069100 0.03376200 -0.05684100
v 0.01028600 0.03376200 -0.05795900
v 0.01017100 0.03376200 -0.05827800
v 0.00947900 0.03376200 -0.05964100
v 0.00862600 0.03376200 -0.06090900
v 0.00933700 0.03376200 -0.05985200
v 0.00762500 0.03376200 -0.06206300
v 0.00807000 0.03376200 -0.06155000
v 0.00478900 0.03376200 -0.06420400
v 0.00523900 0.03376200 -0.06396400
v 0.00649000 0.03376200 -0.06308700
v 0.00655300 0.03376200 -0.06303000
v 0.00389000 0.03376200 -0.06468200
v 0.00286000 0.03376200 -0.06507800
v 0.00246300 0.03376200 -0.06523100
v 0.00098100 0.03376200 -0.06560100
v -0.00053600 0.03376200 -0.06578700
v 0.00081200 0.03376200 -0.06562200
v -0.00206400 0.03376200 -0.06578700
v -0.00130000 0.03376200 -0.06578700
v -0.00546000 0.03376200 -0.06507800
v -0.00506300 0.03376200 -0.06523100
v -0.00358100 0.03376200 -0.06560100
v -0.00341200 0.03376200 -0.06562200
v -0.00649000 0.03376200 -0.06468200
v -0.00738900 0.03376200 -0.06420400
v -0.00783900 0.03376200 -0.06396400
v -0.00909000 0.03376200 -0.06308700
v -0.01022500 0.03376200 -0.06206300
v -0.00915300 0.03376200 -0.06303000
v -0.01207900 0.03376200 -0.05964100
v -0.01193700 0.03376200 -0.05985200
v -0.01122600 0.03376200 -0.06090900
v -0.01067000 0.03376200 -0.06155000
v -0.01277100 0.03376200 -0.05827800
v -0.01288600 0.03376200 -0.05795900
v -0.01329100 0.03376200 -0.05684100
v -0.01350000 0.03376200 -0.05593100
v -0.01363200 0.03376200 -0.05535200
v -0.00708600 0.03476300 -0.05508000
v -0.00705400 0.03476300 -0.05620400
v -0.00667900 0.03476300 -0.05726400
v -0.00599700 0.03476300 -0.05815900
v -0.00507300 0.03476300 -0.05880100
v -0.00399800 0.03476300 -0.05912900
v -0.00287300 0.03476300 -0.05911200
v -0.00180800 0.03476300 -0.05875100
v -0.00276800 0.03548800 -0.05431200
v -0.00394700 0.03564300 -0.05456300
v -0.00504900 0.03518800 -0.05479700
v -0.00548000 0.03476300 -0.05488800
v -0.00480100 0.03518800 -0.05555900
v -0.00520400 0.03476300 -0.05573800
v -0.00440100 0.03518800 -0.05625300
v -0.00475700 0.03476300 -0.05651200
v -0.00386500 0.03518800 -0.05684800
v -0.00416000 0.03476300 -0.05717600
v -0.00321600 0.03518800 -0.05731900
v -0.00343700 0.03476300 -0.05770100
v -0.00248400 0.03518800 -0.05764500
v -0.00262100 0.03476300 -0.05806400
v -0.00170100 0.03518800 -0.05781200
v -0.00174700 0.03476300 -0.05825000
v -0.00089900 0.03518800 -0.05781200
v -0.00011600 0.03518800 -0.05764500
v 0.00061600 0.03518800 -0.05731900
v 0.00126500 0.03518800 -0.05684800
v 0.00180100 0.03518800 -0.05625300
v 0.00220100 0.03518800 -0.05555900
v 0.00244900 0.03518800 -0.05479700
v 0.00192700 0.03548800 -0.05468600
v 0.00171400 0.03548800 -0.05534200
v 0.00136900 0.03548800 -0.05593900
v 0.00090700 0.03548800 -0.05645100
v 0.00034900 0.03548800 -0.05685700
v -0.00028100 0.03548800 -0.05713700
v -0.00095500 0.03548800 -0.05728100
v -0.00164500 0.03548800 -0.05728100
v -0.00231900 0.03548800 -0.05713700
v -0.00294900 0.03548800 -0.05685700
v -0.00350700 0.03548800 -0.05645100
v -0.00396900 0.03548800 -0.05593900
v -0.00431400 0.03548800 -0.05534200
v -0.00452700 0.03548800 -0.05468600
v 0.00134700 0.03564300 -0.05456300
v 0.00117200 0.03564300 -0.05510100
v 0.00088900 0.03564300 -0.05559100
v 0.00051100 0.03564300 -0.05601100
v 0.00005300 0.03564300 -0.05634400
v -0.00046400 0.03564300 -0.05657400
v -0.00101700 0.03564300 -0.05669100
v -0.00158300 0.03564300 -0.05669100
v -0.00213600 0.03564300 -0.05657400
v -0.00265300 0.03564300 -0.05634400
v -0.00311100 0.03564300 -0.05601100
v -0.00348900 0.03564300 -0.05559100
v -0.00377200 0.03564300 -0.05510100
v 0.00074800 0.03564300 -0.05443500
v 0.00061300 0.03564300 -0.05485200
v 0.00039400 0.03564300 -0.05523100
v 0.00010100 0.03564300 -0.05555600
v -0.00025300 0.03564300 -0.05581300
v -0.00065300 0.03564300 -0.05599100
v -0.00108100 0.03564300 -0.05608200
v -0.00151900 0.03564300 -0.05608200
v -0.00194700 0.03564300 -0.05599100
v -0.00234700 0.03564300 -0.05581300
v -0.00270100 0.03564300 -0.05555600
v -0.00299400 0.03564300 -0.05523100
v -0.00321300 0.03564300 -0.05485200
v -0.00334800 0.03564300 -0.05443500
v 0.00016800 0.03548800 -0.05431200
v 0.00007100 0.03548800 -0.05461100
v -0.00008600 0.03548800 -0.05488200
v -0.00029600 0.03548800 -0.05511600
v -0.00054900 0.03548800 -0.05530000
v -0.00083600 0.03548800 -0.05542800
v -0.00114300 0.03548800 -0.05549300
v -0.00145700 0.03548800 -0.05549300
v -0.00176400 0.03548800 -0.05542800
v -0.00205100 0.03548800 -0.05530000
v -0.00230400 0.03548800 -0.05511600
v -0.00251400 0.03548800 -0.05488200
v -0.00267100 0.03548800 -0.05461100
v -0.00035400 0.03518800 -0.05420100
v -0.00041600 0.03518800 -0.05439300
v -0.00051800 0.03518800 -0.05456800
v -0.00065300 0.03518800 -0.05471900
v -0.00081600 0.03518800 -0.05483800
v -0.00100100 0.03518800 -0.05492000
v -0.00119900 0.03518800 -0.05496200
v -0.00140100 0.03518800 -0.05496200
v -0.00159900 0.03518800 -0.05492000
v -0.00178400 0.03518800 -0.05483800
v -0.00194700 0.03518800 -0.05471900
v -0.00208200 0.03518800 -0.05456800
v -0.00218400 0.03518800 -0.05439300
v -0.00224600 0.03518800 -0.05420100
v -0.00078500 0.03476300 -0.05410900
v -0.00081900 0.03476300 -0.05421400
v -0.00087400 0.03476300 -0.05430900
v -0.00094800 0.03476300 -0.05439100
v -0.00103700 0.03476300 -0.05445600
v -0.00113700 0.03476300 -0.05450100
v -0.00124500 0.03476300 -0.05452400
v -0.00135500 0.03476300 -0.05452400
v -0.00146300 0.03476300 -0.05450100
v -0.00156300 0.03476300 -0.05445600
v -0.00165200 0.03476300 -0.05439100
v -0.00172600 0.03476300 -0.05430900
v -0.00178100 0.03476300 -0.05421400
v -0.00181500 0.03476300 -0.05410900
v 0.00993100 0.03468600 -0.03461700
v 0.00993100 0.03447000 -0.03429300
v 0.00993100 0.03414500 -0.03407600
v 0.01029800 0.03468600 -0.03466700
v 0.01038400 0.03447000 -0.03435400
v 0.01044200 0.03414500 -0.03414500
v 0.01091600 0.03414500 -0.03434700
v 0.01131900 0.03414500 -0.03466800
v 0.01162300 0.03414500 -0.03508500
v 0.01180500 0.03414500 -0.03556700
v 0.01080500 0.03447000 -0.03453400
v 0.01116300 0.03447000 -0.03481800
v 0.01143200 0.03447000 -0.03518800
v 0.01159400 0.03447000 -0.03561600
v 0.01185300 0.03414500 -0.03608000
v 0.01178100 0.03425300 -0.03607700
v 0.01163600 0.03447000 -0.03607100
v 0.01142000 0.03461400 -0.03606200
v 0.01063900 0.03468600 -0.03481200
v 0.01092900 0.03468600 -0.03504300
v 0.01114700 0.03468600 -0.03534200
v 0.01127800 0.03468600 -0.03568900
v 0.01131200 0.03468600 -0.03605800
v 0.01057200 0.03468600 -0.05380600
v 0.01068000 0.03461400 -0.05381000
v 0.01089700 0.03447000 -0.05381900
v 0.01104100 0.03425300 -0.05382500
v 0.01111300 0.03414500 -0.05382800
v 0.01095700 0.03414500 -0.05533900
v -0.01355700 0.03414500 -0.05533900
v 0.00813600 0.03468600 -0.06053300
v 0.00802700 0.03474700 -0.06033200
v 0.00894600 0.03468600 -0.05932800
v 0.00776600 0.03468500 -0.06098800
v 0.00792200 0.03471600 -0.06067200
v 0.00799700 0.03473900 -0.06042800
v 0.00741500 0.03447000 -0.06185800
v 0.00725200 0.03464000 -0.06169700
v 0.00742000 0.03464300 -0.06151700
v 0.00839300 0.03447000 -0.06073100
v 0.00770400 0.03467200 -0.06111400
v 0.00637200 0.03468600 -0.06238200
v 0.00671200 0.03465500 -0.06217900
v 0.00630700 0.03447000 -0.06285800
v 0.00708900 0.03463600 -0.06187100
v 0.00610500 0.03468600 -0.06260400
v 0.00628800 0.03469300 -0.06243300
v 0.00604500 0.03471700 -0.06252700
v 0.00582200 0.03473900 -0.06261200
v 0.00491600 0.03468600 -0.06343800
v 0.01010100 0.03414500 -0.05824800
v 0.01061800 0.03414500 -0.05682000
v 0.00941300 0.03414500 -0.05960200
v 0.00856500 0.03414500 -0.06086200
v 0.00757000 0.03414500 -0.06201000
v 0.00644200 0.03414500 -0.06302700
v 0.00519900 0.03414500 -0.06389900
v 0.00385800 0.03414500 -0.06461300
v 0.00244100 0.03414500 -0.06515800
v 0.00096700 0.03414500 -0.06552600
v -0.00054100 0.03414500 -0.06571100
v -0.00205900 0.03414500 -0.06571100
v -0.00356700 0.03414500 -0.06552600
v -0.00504100 0.03414500 -0.06515800
v -0.00645800 0.03414500 -0.06461300
v -0.00779900 0.03414500 -0.06389900
v -0.00904200 0.03414500 -0.06302700
v -0.01017000 0.03414500 -0.06201000
v -0.01116500 0.03414500 -0.06086200
v -0.01201300 0.03414500 -0.05960200
v -0.01270100 0.03414500 -0.05824800
v -0.01321800 0.03414500 -0.05682000
v 0.01074300 0.03447000 -0.05530400
v 0.01041000 0.03447000 -0.05675800
v 0.00990200 0.03447000 -0.05816200
v 0.00922600 0.03447000 -0.05949200
v 0.00508600 0.03447000 -0.06371500
v 0.00376800 0.03447000 -0.06441600
v 0.00237500 0.03447000 -0.06495100
v 0.00092700 0.03447000 -0.06531300
v -0.00055400 0.03447000 -0.06549500
v -0.00204600 0.03447000 -0.06549500
v -0.00352700 0.03447000 -0.06531300
v -0.00497500 0.03447000 -0.06495100
v -0.00636800 0.03447000 -0.06441600
v -0.00768600 0.03447000 -0.06371500
v -0.00890700 0.03447000 -0.06285800
v -0.01001500 0.03447000 -0.06185800
v -0.01099300 0.03447000 -0.06073100
v -0.01182600 0.03447000 -0.05949200
v -0.01250200 0.03447000 -0.05816200
v -0.01301000 0.03447000 -0.05675800
v -0.01334300 0.03447000 -0.05530400
v 0.01042300 0.03468600 -0.05525100
v 0.00960400 0.03468600 -0.05803300
v 0.01009900 0.03468600 -0.05666700
v -0.01371300 0.03414500 -0.05382800
v -0.01364100 0.03425300 -0.05382500
v -0.01349700 0.03447000 -0.05381900
v -0.01328000 0.03461400 -0.05381000
v 0.00363400 0.03468600 -0.06412100
v 0.00227800 0.03468600 -0.06464200
v 0.00086800 0.03468600 -0.06499400
v -0.00057400 0.03468600 -0.06517100
v -0.00202600 0.03468600 -0.06517100
v -0.00346800 0.03468600 -0.06499400
v -0.00487800 0.03468600 -0.06464200
v -0.00623400 0.03468600 -0.06412100
v -0.00751600 0.03468600 -0.06343800
v -0.00870500 0.03468600 -0.06260400
v -0.00978400 0.03468600 -0.06163100
v -0.01073600 0.03468600 -0.06053300
v -0.01154600 0.03468600 -0.05932800
v -0.01220400 0.03468600 -0.05803300
v -0.01269900 0.03468600 -0.05666700
v -0.01302300 0.03468600 -0.05525100
v -0.01317200 0.03468600 -0.05380600
v -0.01445300 0.03414500 -0.03608000
v -0.01438100 0.03425300 -0.03607700
v -0.01423600 0.03447000 -0.03607100
v -0.01402000 0.03461400 -0.03606200
v -0.01391200 0.03468600 -0.03605800
v -0.01440500 0.03414500 -0.03556700
v -0.01422300 0.03414500 -0.03508500
v -0.01391900 0.03414500 -0.03466800
v -0.01351600 0.03414500 -0.03434700
v -0.01304200 0.03414500 -0.03414500
v -0.01419400 0.03447000 -0.03561600
v -0.01403200 0.03447000 -0.03518800
v -0.01376300 0.03447000 -0.03481800
v -0.01340500 0.03447000 -0.03453400
v -0.01298400 0.03447000 -0.03435400
v -0.01387800 0.03468600 -0.03568900
v -0.01253100 0.03414500 -0.03407600
v -0.01253100 0.03425300 -0.03414800
v -0.01253100 0.03447000 -0.03429300
v -0.01253100 0.03461400 -0.03450900
v -0.01374700 0.03468600 -0.03534200
v -0.01352900 0.03468600 -0.03504300
v -0.01323900 0.03468600 -0.03481200
v -0.01289800 0.03468600 -0.03466700
v -0.01253100 0.03468600 -0.03461700
v 0.00584500 0.03346200 -0.05858000
v 0.00656600 0.03346200 -0.05921500
v 0.00629800 0.03346200 -0.05886100
v 0.00603400 0.03346200 -0.05869700
v 0.00661900 0.03346200 -0.05928600
v 0.00676500 0.03346200 -0.05979800
v 0.00655700 0.03346200 -0.06064700
v 0.00671600 0.03346200 -0.06032900
v 0.00675300 0.03346200 -0.05993000
v 0.00647800 0.03346200 -0.06080600
v 0.00608500 0.03346200 -0.06116500
v 0.00604400 0.03346200 -0.06118100
v 0.00558800 0.03346200 -0.06135700
v 0.00459900 0.03346200 -0.06118100
v 0.00505500 0.03346200 -0.06135700
v 0.00532100 0.03346200 -0.06135700
v 0.00455800 0.03346200 -0.06116500
v 0.00416400 0.03346200 -0.06080600
v 0.00389000 0.03346200 -0.05993000
v 0.00392700 0.03346200 -0.06032900
v 0.00408500 0.03346200 -0.06064700
v 0.00387700 0.03346200 -0.05979800
v 0.00402300 0.03346200 -0.05928600
v 0.00407600 0.03346200 -0.05921500
v 0.00434400 0.03346200 -0.05886100
v 0.00460900 0.03346200 -0.05869700
v 0.00479800 0.03346200 -0.05858000
v 0.00532100 0.03346200 -0.05848200
v 0.00346900 0.03476300 -0.05790000
v 0.00362200 0.03476300 -0.05780500
v 0.00432800 0.03476300 -0.05736800
v 0.00302500 0.03476300 -0.05848700
v 0.00286000 0.03476300 -0.05870600
v 0.00268400 0.03476300 -0.05932300
v 0.00258300 0.03476300 -0.05967800
v 0.00441300 0.03476300 -0.05735100
f 9 10 11
f 12 13 14
f 15 16 17
f 8 18 19
f 8 19 7
f 7 19 20
f 7 20 6
f 21 22 23
f 23 22 24
f 23 24 25
f 21 23 26
f 26 23 27
f 26 27 28
f 17 16 29
f 29 16 30
f 29 30 31
f 32 33 14
f 14 33 34
f 14 34 12
f 14 35 32
f 32 35 36
f 32 36 37
f 36 38 37
f 37 38 39
f 37 39 40
f 40 39 41
f 40 41 9
f 9 41 42
f 9 42 10
f 10 42 43
f 10 43 44
f 44 43 45
f 44 45 46
f 10 47 48
f 2 3 49
f 49 3 50
f 49 50 51
f 27 53 54
f 55 56 57
f 57 56 58
f 57 58 59
f 60 61 54
f 54 61 62
f 54 62 27
f 27 62 63
f 27 63 64
f 58 65 59
f 59 65 66
f 59 66 67
f 67 68 59
f 59 68 60
f 59 60 69
f 69 60 54
f 70 71 72
f 72 73 70
f 70 73 74
f 70 74 75
f 75 74 76
f 75 76 55
f 77 78 71
f 71 78 79
f 71 79 72
f 72 79 80
f 72 80 81
f 82 83 84
f 84 85 86
f 87 88 80
f 80 88 89
f 80 89 81
f 90 91 92
f 83 82 93
f 94 88 92
f 92 88 87
f 92 87 90
f 90 87 93
f 90 93 95
f 95 93 82
f 44 96 97
f 97 96 98
f 97 98 99
f 100 101 44
f 44 101 102
f 44 102 96
f 103 104 30
f 30 104 105
f 30 105 31
f 31 105 106
f 31 106 107
f 107 106 108
f 107 108 109
f 109 108 110
f 109 110 111
f 111 110 112
f 111 112 12
f 12 112 113
f 12 113 13
f 113 114 13
f 13 114 115
f 13 115 116
f 117 118 116
f 115 119 116
f 116 119 120
f 116 120 117
f 117 120 121
f 117 121 122
f 122 121 123
f 123 121 124
f 123 124 125
f 125 124 103
f 125 103 126
f 126 103 30
f 126 30 64
f 64 30 16
f 64 16 27
f 27 16 15
f 27 15 28
f 55 57 75
f 75 57 127
f 75 127 128
f 128 129 20
f 20 129 130
f 20 130 6
f 6 130 131
f 6 131 5
f 5 131 132
f 5 132 24
f 24 132 133
f 24 133 25
f 25 134 23
f 23 134 135
f 23 135 27
f 27 135 136
f 27 136 53
f 137 138 139
f 140 141 142
f 142 141 139
f 142 139 143
f 143 139 138
f 144 145 97
f 11 10 146
f 146 10 48
f 146 48 4
f 4 48 147
f 4 147 3
f 3 147 148
f 3 148 50
f 50 148 149
f 50 149 150
f 151 44 152
f 152 44 97
f 152 97 153
f 153 97 145
f 151 154 44
f 44 154 155
f 44 155 10
f 10 155 156
f 10 156 47
f 46 157 44
f 44 157 116
f 44 116 100
f 100 116 118
f 157 158 116
f 116 158 159
f 116 159 13
f 13 159 160
f 13 160 14
f 14 160 161
f 14 161 35
f 165 166 52
f 52 166 167
f 169 170 171
f 170 172 171
f 171 172 173
f 171 173 52
f 52 173 174
f 52 174 165
f 150 144 50
f 50 144 97
f 50 97 51
f 51 97 99
f 51 99 86
f 86 99 175
f 86 175 84
f 84 175 176
f 84 176 82
f 1 2 52
f 52 2 49
f 52 49 171
f 171 49 51
f 171 51 139
f 139 51 86
f 139 86 137
f 137 86 85
f 140 77 141
f 141 77 71
f 141 71 177
f 177 71 70
f 18 184 185
f 18 185 186
f 187 188 177
f 177 188 189
f 177 189 178
f 128 20 75
f 75 20 19
f 75 19 70
f 70 19 18
f 70 18 177
f 177 18 186
f 177 186 187
f 191 182 192
f 192 182 179
f 192 179 193
f 193 179 178
f 193 178 194
f 194 178 189
f 194 189 195
f 195 189 188
f 195 188 196
f 196 188 187
f 196 187 197
f 197 187 186
f 197 186 198
f 198 186 185
f 198 185 199
f 199 185 184
f 199 184 200
f 200 184 183
f 200 183 201
f 201 183 180
f 201 180 190
f 190 180 181
f 190 181 191
f 191 181 182
f 203 164 204
f 204 164 168
f 204 168 205
f 205 168 167
f 205 167 206
f 206 167 166
f 206 166 207
f 207 166 165
f 207 165 208
f 208 165 174
f 208 174 209
f 209 174 173
f 209 173 210
f 210 173 172
f 210 172 211
f 211 172 170
f 211 170 212
f 212 170 169
f 212 169 213
f 213 169 162
f 213 162 202
f 202 162 163
f 202 163 203
f 203 163 164
f 218 161 224
f 224 161 160
f 224 160 223
f 223 160 159
f 223 159 222
f 159 158 222
f 222 158 157
f 222 157 225
f 225 157 46
f 225 46 217
f 217 46 45
f 217 45 216
f 216 45 43
f 216 43 215
f 215 43 42
f 215 42 214
f 214 42 41
f 214 41 221
f 221 41 39
f 221 39 220
f 220 39 38
f 220 38 219
f 219 38 36
f 219 36 218
f 218 36 35
f 218 35 161
f 226 227 228
f 229 230 231
f 232 233 234
f 235 236 237
f 238 239 240
f 237 236 241
f 242 241 236
f 241 243 244
f 245 243 241
f 240 239 241
f 246 241 239
f 247 248 249
f 250 251 252
f 253 254 255
f 254 256 255
f 255 256 257
f 255 257 258
f 259 260 261
f 250 252 262
f 248 263 249
f 249 263 264
f 249 264 265
f 241 266 267
f 267 266 268
f 267 268 269
f 270 244 271
f 271 244 243
f 271 243 272
f 272 243 245
f 272 245 273
f 242 236 274
f 274 236 235
f 274 235 275
f 276 241 242
f 277 278 279
f 279 278 238
f 279 238 280
f 280 238 240
f 280 240 281
f 281 240 241
f 278 282 238
f 238 282 283
f 238 283 239
f 239 283 284
f 239 284 246
f 285 270 286
f 286 270 271
f 286 271 287
f 287 271 272
f 287 272 288
f 288 272 273
f 288 273 289
f 276 242 290
f 290 242 274
f 290 274 291
f 291 274 275
f 291 275 292
f 268 293 269
f 269 293 294
f 269 294 295
f 233 277 234
f 234 277 279
f 234 279 296
f 296 279 280
f 296 280 297
f 297 280 281
f 297 281 298
f 298 281 241
f 299 285 300
f 300 285 286
f 300 286 301
f 301 286 287
f 301 287 302
f 302 287 288
f 302 288 303
f 303 288 289
f 303 289 304
f 294 305 295
f 295 305 306
f 295 306 307
f 307 306 308
f 307 308 309
f 310 232 311
f 311 232 234
f 311 234 312
f 312 234 296
f 312 296 313
f 313 296 297
f 313 297 314
f 314 297 298
f 314 298 315
f 315 298 241
f 316 299 317
f 317 299 300
f 317 300 318
f 318 300 301
f 318 301 319
f 319 301 302
f 319 302 320
f 320 302 303
f 320 303 321
f 321 303 304
f 321 304 322
f 231 230 323
f 260 324 261
f 261 324 231
f 261 231 325
f 325 231 323
f 325 323 326
f 251 259 252
f 252 259 261
f 252 261 327
f 327 261 325
f 327 325 328
f 328 325 326
f 328 326 329
f 264 262 265
f 265 262 252
f 265 252 330
f 330 252 327
f 330 327 331
f 331 327 328
f 331 328 332
f 332 328 329
f 332 329 333
f 227 310 228
f 228 310 311
f 228 311 334
f 334 311 312
f 334 312 335
f 335 312 313
f 335 313 336
f 336 313 314
f 336 314 337
f 337 314 315
f 337 315 338
f 338 315 241
f 339 316 340
f 340 316 317
f 340 317 341
f 341 317 318
f 341 318 342
f 342 318 319
f 342 319 343
f 343 319 320
f 343 320 344
f 344 320 321
f 344 321 345
f 345 321 322
f 345 322 346
f 347 348 258
f 258 348 229
f 258 229 255
f 255 229 231
f 255 231 253
f 253 231 324
f 333 349 332
f 332 349 350
f 332 350 331
f 331 350 351
f 331 351 330
f 330 351 352
f 330 352 265
f 265 352 353
f 265 353 249
f 249 353 354
f 249 354 247
f 247 354 355
f 356 354 309
f 309 354 353
f 309 353 307
f 307 353 352
f 307 352 295
f 295 352 351
f 295 351 269
f 269 351 350
f 269 350 267
f 267 350 349
f 267 349 241
f 333 241 349
f 230 292 323
f 323 292 275
f 323 275 326
f 326 275 235
f 326 235 329
f 329 235 237
f 329 237 333
f 333 237 241
f 357 339 358
f 358 339 340
f 358 340 359
f 359 340 341
f 359 341 360
f 360 341 342
f 360 342 361
f 361 342 343
f 361 343 362
f 362 343 344
f 362 344 363
f 363 344 345
f 363 345 364
f 364 345 346
f 364 346 365
f 366 226 357
f 357 226 228
f 357 228 339
f 339 228 334
f 339 334 316
f 316 334 335
f 316 335 299
f 299 335 336
f 299 336 285
f 285 336 337
f 285 337 270
f 270 337 338
f 270 338 244
f 244 338 241
f 367 365 368
f 368 365 346
f 368 346 369
f 369 346 322
f 369 322 370
f 370 322 304
f 370 304 371
f 371 304 289
f 371 289 372
f 372 289 273
f 372 273 373
f 373 273 245
f 373 245 241
f 374 367 375
f 375 367 368
f 375 368 376
f 376 368 369
f 376 369 377
f 377 369 370
f 377 370 378
f 378 370 371
f 378 371 379
f 379 371 372
f 379 372 380
f 380 372 373
f 380 373 241
f 348 374 229
f 229 374 375
f 229 375 230
f 230 375 376
f 230 376 292
f 292 376 377
f 292 377 291
f 291 377 378
f 291 378 290
f 290 378 379
f 290 379 276
f 276 379 380
f 276 380 241
f 308 381 309
f 309 381 382
f 309 382 356
f 356 382 383
f 356 383 384
f 355 354 385
f 385 354 356
f 385 356 386
f 386 356 384
f 386 384 387
f 388 389 390
f 391 392 393
f 394 395 396
f 396 397 398
f 398 397 399
f 398 399 393
f 393 399 400
f 393 400 391
f 401 366 402
f 402 366 403
f 398 404 396
f 396 404 405
f 396 405 406
f 388 390 407
f 406 408 396
f 396 408 409
f 396 409 394
f 410 411 412
f 412 411 413
f 390 414 407
f 407 414 415
f 407 415 410
f 410 415 416
f 410 416 411
f 413 417 412
f 412 417 418
f 412 418 419
f 365 419 364
f 364 419 363
f 392 403 393
f 393 403 366
f 393 366 420
f 420 366 357
f 420 357 421
f 421 357 358
f 361 422 360
f 360 422 423
f 360 423 359
f 359 423 424
f 359 424 358
f 358 424 425
f 358 425 421
f 363 419 362
f 362 419 426
f 362 426 361
f 361 426 427
f 361 427 422
f 365 367 419
f 419 367 374
f 419 374 412
f 412 374 348
f 412 348 347
f 428 429 430
f 428 430 431
f 431 430 432
f 431 432 433
f 433 432 434
f 433 434 435
f 436 437 438
f 435 434 439
f 439 434 440
f 439 440 441
f 442 355 385
f 438 443 436
f 436 443 444
f 436 444 445
f 387 446 447
f 445 448 436
f 436 448 449
f 436 449 450
f 450 449 441
f 450 441 451
f 451 441 440
f 451 440 452
f 442 385 440
f 440 385 386
f 440 386 387
f 447 453 387
f 387 453 454
f 387 454 440
f 440 454 455
f 440 455 452
f 456 457 458
f 458 457 459
f 458 459 460
f 460 459 461
f 462 463 464
f 465 466 467
f 465 467 468
f 462 464 469
f 470 468 471
f 471 468 467
f 471 467 472
f 472 467 464
f 467 473 464
f 464 473 474
f 464 474 475
f 475 476 464
f 464 476 477
f 464 477 469
f 478 479 480
f 480 479 481
f 481 482 483
f 483 484 481
f 481 484 485
f 481 485 480
f 480 485 486
f 480 486 487
f 488 489 490
f 490 489 491
f 492 493 494
f 494 495 492
f 492 495 496
f 492 496 490
f 490 496 497
f 490 497 488
f 489 498 491
f 491 498 499
f 491 499 500
f 500 499 501
f 500 501 502
f 502 501 503
f 503 501 504
f 503 504 505
f 505 504 506
f 505 506 4
f 507 508 5
f 509 510 511
f 511 510 512
f 511 512 513
f 509 514 510
f 510 514 515
f 510 515 456
f 506 516 4
f 4 516 517
f 4 517 518
f 518 517 493
f 518 493 519
f 492 520 117
f 5 508 521
f 117 522 523
f 523 522 524
f 523 525 117
f 117 525 526
f 117 526 492
f 492 526 527
f 492 527 528
f 528 529 492
f 492 529 530
f 492 530 493
f 493 530 40
f 493 40 519
f 529 531 530
f 530 531 532
f 530 532 533
f 533 532 534
f 533 534 33
f 33 534 535
f 33 535 536
f 536 535 537
f 536 537 538
f 538 537 539
f 540 541 542
f 542 541 543
f 542 543 515
f 515 543 457
f 515 457 456
f 544 545 26
f 508 546 521
f 521 546 547
f 521 547 548
f 548 547 549
f 548 549 550
f 513 512 549
f 549 512 551
f 549 551 550
f 507 5 544
f 544 5 552
f 544 552 545
f 553 554 541
f 26 553 544
f 544 553 541
f 544 541 555
f 555 541 540
f 554 553 556
f 556 553 557
f 556 557 558
f 558 557 29
f 558 29 559
f 559 29 560
f 559 560 561
f 524 559 523
f 523 559 561
f 523 561 539
f 539 561 109
f 539 109 538
f 562 563 564
f 564 563 565
f 566 567 568
f 568 567 569
f 570 571 572
f 572 571 573
f 572 573 574
f 570 575 571
f 571 575 576
f 571 576 577
f 578 579 580
f 581 582 310
f 581 310 583
f 583 310 227
f 583 227 584
f 579 585 580
f 580 585 586
f 580 586 571
f 571 586 587
f 571 587 573
f 227 226 584
f 584 226 366
f 584 366 401
f 566 563 567
f 567 563 562
f 567 562 588
f 588 562 589
f 589 590 588
f 588 590 591
f 588 591 592
f 593 594 382
f 382 594 595
f 446 387 596
f 596 387 384
f 596 384 595
f 595 384 383
f 595 383 382
f 308 597 381
f 381 597 588
f 381 588 382
f 382 588 592
f 382 592 593
f 294 598 305
f 305 598 597
f 305 597 306
f 306 597 308
f 294 293 598
f 598 293 268
f 598 268 599
f 246 600 241
f 241 600 599
f 241 599 266
f 266 599 268
f 246 284 600
f 600 284 283
f 600 283 601
f 277 602 278
f 278 602 601
f 278 601 282
f 282 601 283
f 582 578 310
f 310 578 580
f 310 580 232
f 232 580 602
f 232 602 233
f 233 602 277
f 577 603 512
f 604 605 567
f 491 606 490
f 490 606 569
f 490 569 607
f 607 569 567
f 607 567 608
f 608 567 605
f 608 605 609
f 609 605 610
f 512 510 577
f 577 510 611
f 577 611 571
f 571 611 612
f 571 612 580
f 580 612 613
f 580 613 602
f 602 613 614
f 602 614 601
f 601 614 615
f 601 615 600
f 600 615 616
f 600 616 599
f 599 616 617
f 567 588 604
f 604 588 597
f 604 597 617
f 617 597 598
f 617 598 599
f 618 505 619
f 619 505 4
f 620 5 621
f 621 5 521
f 492 490 622
f 622 490 607
f 622 607 464
f 464 607 608
f 464 608 472
f 612 611 458
f 458 460 612
f 612 460 461
f 612 461 613
f 623 624 615
f 461 625 613
f 613 625 626
f 613 626 614
f 614 626 627
f 614 627 615
f 615 627 628
f 615 628 623
f 624 629 615
f 615 629 630
f 615 630 616
f 630 631 616
f 616 631 632
f 616 632 617
f 632 633 617
f 617 633 466
f 617 466 604
f 604 466 465
f 604 465 605
f 605 465 468
f 458 611 456
f 456 611 510
f 605 468 470
f 605 470 610
f 610 470 471
f 610 471 609
f 609 471 472
f 609 472 608
f 634 509 511
f 634 635 509
f 509 635 636
f 509 636 514
f 637 515 638
f 638 515 514
f 638 514 639
f 639 514 636
f 637 640 515
f 515 640 641
f 515 641 542
f 641 642 542
f 542 642 643
f 542 643 540
f 643 644 540
f 540 644 645
f 540 645 555
f 645 646 555
f 555 646 647
f 555 647 544
f 544 647 648
f 544 648 507
f 648 649 507
f 507 649 650
f 507 650 508
f 651 546 652
f 652 546 508
f 652 508 653
f 653 508 650
f 651 654 546
f 546 654 655
f 546 655 547
f 655 656 547
f 547 656 657
f 547 657 549
f 657 658 549
f 549 658 659
f 549 659 513
f 659 660 513
f 513 660 661
f 513 661 511
f 511 661 662
f 511 662 634
f 574 573 663
f 636 635 664
f 664 635 665
f 665 635 634
f 665 634 666
f 666 634 662
f 666 662 667
f 667 662 668
f 668 662 661
f 668 661 669
f 669 661 670
f 670 661 660
f 670 660 671
f 671 660 659
f 671 659 395
f 395 659 658
f 395 658 396
f 658 657 396
f 396 657 656
f 396 656 397
f 397 656 655
f 397 655 399
f 655 654 399
f 399 654 651
f 399 651 400
f 651 652 400
f 400 652 653
f 400 653 391
f 653 650 391
f 391 650 649
f 391 649 392
f 392 649 648
f 392 648 403
f 648 647 403
f 403 647 646
f 403 646 402
f 402 646 645
f 402 645 401
f 401 645 644
f 401 644 672
f 672 644 643
f 672 643 673
f 673 643 642
f 673 642 674
f 674 642 641
f 674 641 675
f 675 641 640
f 664 574 636
f 636 574 663
f 636 663 639
f 639 663 676
f 639 676 638
f 638 676 677
f 638 677 637
f 637 677 678
f 637 678 640
f 640 678 679
f 640 679 675
f 680 499 498
f 680 681 499
f 499 681 682
f 499 682 501
f 683 504 684
f 684 504 501
f 684 501 685
f 685 501 682
f 683 686 504
f 504 686 687
f 504 687 506
f 687 688 506
f 506 688 689
f 506 689 516
f 689 690 516
f 516 690 691
f 516 691 517
f 691 692 517
f 517 692 693
f 517 693 493
f 493 693 694
f 493 694 494
f 694 695 494
f 494 695 696
f 494 696 495
f 697 496 698
f 698 496 495
f 698 495 699
f 699 495 696
f 697 700 496
f 496 700 701
f 496 701 497
f 701 702 497
f 497 702 703
f 497 703 488
f 703 704 488
f 488 704 705
f 488 705 489
f 705 706 489
f 489 706 707
f 489 707 498
f 498 707 708
f 498 708 680
f 436 685 437
f 437 685 682
f 681 709 682
f 682 709 710
f 682 710 437
f 708 711 680
f 680 711 712
f 680 712 681
f 681 712 713
f 681 713 709
f 707 714 708
f 708 714 715
f 708 715 711
f 716 564 565
f 703 717 704
f 704 717 716
f 704 716 705
f 705 716 565
f 705 565 706
f 706 565 718
f 706 718 707
f 707 718 719
f 707 719 714
f 698 720 721
f 698 721 697
f 697 721 722
f 697 722 700
f 700 722 723
f 700 723 701
f 701 723 724
f 701 724 702
f 702 724 725
f 702 725 703
f 703 725 726
f 703 726 717
f 720 698 446
f 446 698 699
f 446 699 447
f 699 696 447
f 447 696 695
f 447 695 453
f 453 695 694
f 453 694 454
f 694 693 454
f 454 693 692
f 454 692 455
f 692 691 455
f 455 691 690
f 455 690 452
f 690 689 452
f 452 689 688
f 452 688 451
f 451 688 687
f 451 687 450
f 687 686 450
f 450 686 683
f 450 683 436
f 436 683 684
f 436 684 685
f 562 564 716
f 562 716 589
f 589 716 717
f 589 717 590
f 590 717 726
f 590 726 591
f 591 726 725
f 591 725 592
f 592 725 724
f 592 724 593
f 724 723 593
f 593 723 722
f 593 722 594
f 594 722 721
f 594 721 595
f 595 721 720
f 595 720 596
f 596 720 446
f 584 401 672
f 584 672 583
f 583 672 673
f 583 673 581
f 581 673 674
f 581 674 582
f 582 674 675
f 582 675 578
f 578 675 679
f 578 679 579
f 579 679 678
f 579 678 585
f 585 678 677
f 585 677 586
f 586 677 676
f 586 676 587
f 587 676 663
f 587 663 573
f 621 521 727
f 727 521 548
f 727 548 728
f 728 548 729
f 729 548 550
f 729 550 730
f 730 550 731
f 731 550 551
f 731 551 732
f 732 551 733
f 733 551 512
f 733 512 603
f 606 491 734
f 734 491 500
f 734 500 735
f 735 500 736
f 736 500 502
f 736 502 737
f 737 502 738
f 738 502 503
f 738 503 739
f 739 503 740
f 740 503 505
f 740 505 618
f 619 4 741
f 741 4 518
f 741 518 742
f 742 518 743
f 743 518 519
f 743 519 744
f 744 519 745
f 745 519 40
f 745 40 746
f 530 747 40
f 40 747 748
f 40 748 746
f 533 749 530
f 530 749 750
f 530 750 747
f 751 752 33
f 33 752 753
f 33 753 533
f 533 753 754
f 533 754 749
f 751 33 755
f 755 33 536
f 755 536 756
f 756 536 757
f 757 536 538
f 757 538 758
f 109 759 538
f 538 759 760
f 538 760 758
f 561 761 109
f 109 761 762
f 109 762 759
f 763 764 560
f 560 764 765
f 560 765 561
f 561 765 766
f 561 766 761
f 763 560 767
f 767 560 29
f 767 29 768
f 768 29 769
f 769 29 557
f 769 557 770
f 553 771 557
f 557 771 772
f 557 772 770
f 773 774 26
f 26 774 775
f 26 775 553
f 553 775 776
f 553 776 771
f 773 26 777
f 777 26 545
f 777 545 778
f 778 545 779
f 779 545 552
f 779 552 780
f 780 552 781
f 781 552 5
f 781 5 620
f 622 464 492
f 492 464 520
f 117 520 464
f 480 117 478
f 478 117 464
f 478 464 463
f 459 457 782
f 782 457 543
f 782 543 783
f 783 543 541
f 783 541 784
f 784 541 554
f 784 554 785
f 785 554 556
f 785 556 786
f 786 556 558
f 786 558 787
f 787 558 559
f 787 559 788
f 788 559 524
f 788 524 789
f 789 524 522
f 789 522 487
f 487 522 117
f 487 117 480
f 631 630 790
f 624 623 791
f 627 626 792
f 625 461 793
f 626 625 792
f 792 625 793
f 792 793 794
f 794 793 795
f 794 795 796
f 796 795 797
f 796 797 798
f 798 797 799
f 798 799 800
f 800 799 801
f 800 801 802
f 802 801 803
f 802 803 804
f 803 805 804
f 804 805 487
f 804 487 806
f 806 487 486
f 806 486 807
f 807 486 485
f 807 485 808
f 808 485 484
f 808 484 809
f 809 484 483
f 809 483 810
f 810 483 482
f 810 482 811
f 811 482 481
f 811 481 812
f 462 469 478
f 478 469 812
f 478 812 479
f 479 812 481
f 469 477 812
f 812 477 813
f 812 813 811
f 811 813 814
f 811 814 810
f 810 814 815
f 810 815 809
f 809 815 816
f 809 816 808
f 808 816 817
f 808 817 807
f 807 817 818
f 807 818 806
f 806 818 819
f 806 819 804
f 804 819 820
f 804 820 802
f 802 820 821
f 802 821 800
f 800 821 822
f 800 822 798
f 798 822 823
f 798 823 796
f 796 823 824
f 796 824 794
f 794 824 825
f 794 825 792
f 792 825 826
f 792 826 627
f 627 826 628
f 477 476 813
f 813 476 827
f 813 827 814
f 814 827 828
f 814 828 815
f 815 828 829
f 815 829 816
f 816 829 830
f 816 830 817
f 817 830 831
f 817 831 818
f 818 831 832
f 818 832 819
f 819 832 833
f 819 833 820
f 820 833 834
f 820 834 821
f 821 834 835
f 821 835 822
f 822 835 836
f 822 836 823
f 823 836 837
f 823 837 824
f 824 837 838
f 824 838 825
f 825 838 839
f 825 839 826
f 826 839 791
f 826 791 628
f 628 791 623
f 476 475 827
f 827 475 840
f 827 840 828
f 828 840 841
f 828 841 829
f 829 841 842
f 829 842 830
f 830 842 843
f 830 843 831
f 831 843 844
f 831 844 832
f 832 844 845
f 832 845 833
f 833 845 846
f 833 846 834
f 834 846 847
f 834 847 835
f 835 847 848
f 835 848 836
f 836 848 849
f 836 849 837
f 837 849 850
f 837 850 838
f 838 850 851
f 838 851 839
f 839 851 852
f 839 852 791
f 791 852 853
f 791 853 624
f 624 853 629
f 475 474 840
f 840 474 854
f 840 854 841
f 841 854 855
f 841 855 842
f 842 855 856
f 842 856 843
f 843 856 857
f 843 857 844
f 844 857 858
f 844 858 845
f 845 858 859
f 845 859 846
f 846 859 860
f 846 860 847
f 847 860 861
f 847 861 848
f 848 861 862
f 848 862 849
f 849 862 863
f 849 863 850
f 850 863 864
f 850 864 851
f 851 864 865
f 851 865 852
f 852 865 866
f 852 866 853
f 853 866 790
f 853 790 629
f 629 790 630
f 474 473 854
f 854 473 867
f 854 867 855
f 855 867 868
f 855 868 856
f 856 868 869
f 856 869 857
f 857 869 870
f 857 870 858
f 858 870 871
f 858 871 859
f 859 871 872
f 859 872 860
f 860 872 873
f 860 873 861
f 861 873 874
f 861 874 862
f 862 874 875
f 862 875 863
f 863 875 876
f 863 876 864
f 864 876 877
f 864 877 865
f 865 877 878
f 865 878 866
f 866 878 879
f 866 879 790
f 790 879 880
f 790 880 631
f 466 633 880
f 880 633 632
f 880 632 631
f 473 467 867
f 867 467 881
f 867 881 868
f 868 881 882
f 868 882 869
f 869 882 883
f 869 883 870
f 870 883 884
f 870 884 871
f 871 884 885
f 871 885 872
f 872 885 886
f 872 886 873
f 873 886 887
f 873 887 874
f 874 887 888
f 874 888 875
f 875 888 889
f 875 889 876
f 876 889 890
f 876 890 877
f 877 890 891
f 877 891 878
f 878 891 892
f 878 892 879
f 879 892 893
f 879 893 880
f 880 893 894
f 880 894 466
f 885 884 893
f 883 882 466
f 466 882 881
f 466 881 467
f 883 466 884
f 884 466 894
f 884 894 893
f 885 893 886
f 886 893 892
f 886 892 891
f 891 890 886
f 886 890 889
f 886 889 887
f 887 889 888
f 797 785 799
f 799 785 786
f 799 786 801
f 801 786 787
f 801 787 803
f 803 787 788
f 803 788 805
f 805 788 789
f 805 789 487
f 461 459 793
f 793 459 782
f 793 782 795
f 795 782 783
f 795 783 797
f 797 783 784
f 797 784 785
f 478 463 462
f 709 713 895
f 895 713 896
f 713 712 896
f 896 712 711
f 896 711 715
f 715 714 566
f 566 714 719
f 566 719 563
f 563 719 718
f 563 718 565
f 438 437 895
f 895 437 710
f 895 710 709
f 715 566 896
f 896 566 568
f 896 568 897
f 897 568 569
f 897 569 606
f 438 895 898
f 895 896 899
f 896 897 900
f 897 606 734
f 897 734 900
f 900 734 735
f 900 735 901
f 735 736 901
f 901 736 737
f 901 737 902
f 902 737 738
f 902 738 903
f 903 738 739
f 903 739 904
f 904 739 740
f 904 740 618
f 896 900 899
f 899 900 901
f 899 901 905
f 905 901 902
f 905 902 906
f 906 902 903
f 906 903 907
f 907 903 904
f 907 904 908
f 618 909 904
f 904 909 910
f 904 910 908
f 908 910 911
f 908 911 912
f 895 899 898
f 898 899 905
f 898 905 913
f 913 905 906
f 913 906 914
f 914 906 907
f 914 907 915
f 915 907 908
f 915 908 916
f 916 908 912
f 916 912 917
f 438 898 443
f 443 898 913
f 443 913 444
f 444 913 914
f 444 914 445
f 445 914 915
f 445 915 448
f 448 915 916
f 448 916 449
f 449 916 917
f 449 917 441
f 439 441 918
f 918 441 917
f 918 917 919
f 919 917 912
f 919 912 920
f 920 912 911
f 920 911 921
f 921 911 910
f 921 910 922
f 922 910 909
f 922 909 619
f 619 909 618
f 921 922 923
f 924 781 620
f 925 926 927
f 927 926 429
f 928 929 925
f 925 929 930
f 925 930 926
f 931 932 933
f 931 933 934
f 934 933 935
f 934 935 928
f 936 937 938
f 938 937 931
f 931 937 939
f 931 939 932
f 936 940 941
f 941 940 942
f 942 940 943
f 943 940 944
f 943 944 389
f 744 945 743
f 743 945 946
f 743 946 742
f 742 946 923
f 742 923 741
f 741 923 922
f 741 922 619
f 744 745 945
f 945 745 746
f 945 746 947
f 947 746 748
f 947 748 948
f 948 748 747
f 948 747 949
f 949 747 750
f 750 749 949
f 949 749 754
f 949 754 950
f 754 753 950
f 950 753 752
f 950 752 951
f 951 752 751
f 951 751 952
f 952 751 755
f 952 755 953
f 953 755 756
f 756 757 953
f 953 757 758
f 953 758 954
f 954 758 760
f 954 760 955
f 955 760 759
f 955 759 956
f 956 759 762
f 762 761 956
f 956 761 766
f 956 766 957
f 766 765 957
f 957 765 764
f 957 764 958
f 958 764 763
f 958 763 959
f 959 763 767
f 959 767 960
f 960 767 768
f 768 769 960
f 960 769 770
f 960 770 961
f 961 770 772
f 961 772 962
f 772 771 962
f 962 771 776
f 962 776 963
f 963 776 775
f 963 775 964
f 964 775 774
f 774 773 964
f 964 773 777
f 964 777 965
f 965 777 778
f 965 778 966
f 966 778 779
f 966 779 924
f 924 779 780
f 924 780 781
f 967 920 921
f 921 923 967
f 967 923 946
f 967 946 968
f 968 946 945
f 968 945 969
f 969 945 947
f 969 947 970
f 970 947 948
f 970 948 934
f 934 948 949
f 934 949 931
f 931 949 950
f 931 950 938
f 938 950 951
f 938 951 971
f 971 951 952
f 971 952 972
f 972 952 953
f 972 953 973
f 973 953 954
f 973 954 974
f 974 954 955
f 974 955 975
f 975 955 956
f 975 956 976
f 976 956 957
f 976 957 977
f 977 957 958
f 977 958 978
f 978 958 959
f 978 959 979
f 979 959 960
f 979 960 980
f 980 960 961
f 980 961 981
f 981 961 962
f 981 962 982
f 982 962 963
f 982 963 983
f 983 963 964
f 983 964 984
f 984 964 965
f 984 965 985
f 985 965 966
f 985 966 986
f 986 966 924
f 986 924 987
f 988 918 919
f 928 925 934
f 934 925 927
f 934 927 970
f 970 927 989
f 970 989 969
f 969 989 990
f 969 990 968
f 968 990 988
f 968 988 967
f 967 988 919
f 967 919 920
f 620 991 924
f 924 991 992
f 924 992 987
f 987 992 993
f 987 993 994
f 936 938 940
f 940 938 971
f 940 971 944
f 944 971 972
f 944 972 995
f 995 972 973
f 995 973 996
f 996 973 974
f 996 974 997
f 997 974 975
f 997 975 998
f 998 975 976
f 998 976 999
f 999 976 977
f 999 977 1000
f 1000 977 978
f 1000 978 1001
f 1001 978 979
f 1001 979 1002
f 1002 979 980
f 1002 980 1003
f 1003 980 981
f 1003 981 1004
f 1004 981 982
f 1004 982 1005
f 1005 982 983
f 1005 983 1006
f 1006 983 984
f 1006 984 1007
f 1007 984 985
f 1007 985 1008
f 1008 985 986
f 1008 986 1009
f 1009 986 987
f 1009 987 1010
f 1010 987 994
f 1010 994 1011
f 429 428 927
f 927 428 431
f 927 431 989
f 989 431 433
f 989 433 990
f 990 433 435
f 990 435 988
f 988 435 439
f 988 439 918
f 389 944 390
f 390 944 995
f 390 995 414
f 414 995 996
f 414 996 415
f 415 996 997
f 415 997 416
f 416 997 998
f 416 998 411
f 411 998 999
f 411 999 413
f 413 999 1000
f 413 1000 417
f 417 1000 1001
f 417 1001 418
f 418 1001 1002
f 418 1002 419
f 419 1002 1003
f 419 1003 426
f 426 1003 1004
f 426 1004 427
f 427 1004 1005
f 427 1005 422
f 422 1005 1006
f 422 1006 423
f 423 1006 1007
f 423 1007 424
f 424 1007 1008
f 424 1008 425
f 425 1008 1009
f 425 1009 421
f 421 1009 1010
f 421 1010 420
f 420 1010 1011
f 420 1011 393
f 620 621 991
f 991 621 1012
f 991 1012 992
f 992 1012 1013
f 992 1013 993
f 993 1013 1014
f 993 1014 994
f 994 1014 1015
f 994 1015 1011
f 1011 1015 1016
f 1011 1016 393
f 393 1016 398
f 1013 1012 1017
f 1012 621 727
f 1012 727 1017
f 1017 727 728
f 1017 728 1018
f 728 729 1018
f 1018 729 730
f 1018 730 1019
f 1019 730 731
f 1019 731 1020
f 1020 731 732
f 1020 732 1021
f 1021 732 733
f 1021 733 603
f 1015 1014 1022
f 1022 1014 1013
f 1013 1017 1022
f 1022 1017 1018
f 1022 1018 1023
f 1023 1018 1019
f 1023 1019 1024
f 1024 1019 1020
f 1024 1020 1025
f 1025 1020 1021
f 1025 1021 1026
f 398 1016 1027
f 1027 1016 1015
f 603 1028 1021
f 1021 1028 1029
f 1021 1029 1026
f 1026 1029 1030
f 1026 1030 1031
f 1015 1022 1027
f 1027 1022 1023
f 1027 1023 1032
f 1032 1023 1024
f 1032 1024 1033
f 1033 1024 1025
f 1033 1025 1034
f 1034 1025 1026
f 1034 1026 1035
f 1035 1026 1031
f 1035 1031 1036
f 398 1027 404
f 404 1027 1032
f 404 1032 405
f 405 1032 1033
f 405 1033 406
f 406 1033 1034
f 406 1034 408
f 408 1034 1035
f 408 1035 409
f 409 1035 1036
f 409 1036 394
f 574 664 572
f 572 664 665
f 572 665 666
f 1030 1029 575
f 575 1029 1028
f 575 1028 576
f 576 1028 603
f 576 603 577
f 669 1031 668
f 668 1031 1030
f 668 1030 667
f 667 1030 575
f 667 575 666
f 666 575 570
f 666 570 572
f 671 395 394
f 669 670 1031
f 1031 670 671
f 1031 671 1036
f 1036 671 394
f 1037 528 527
f 1038 529 1039
f 1039 529 528
f 1039 528 1040
f 1040 528 1037
f 1038 1041 529
f 529 1041 1042
f 529 1042 531
f 1043 532 1044
f 1044 532 531
f 1044 531 1045
f 1045 531 1042
f 1043 1046 532
f 532 1046 1047
f 532 1047 534
f 1047 1048 534
f 534 1048 1049
f 534 1049 535
f 1050 537 1051
f 1051 537 535
f 1051 535 1052
f 1052 535 1049
f 1050 1053 537
f 537 1053 1054
f 537 1054 539
f 1055 523 1056
f 1056 523 539
f 1056 539 1057
f 1057 539 1054
f 1055 1058 523
f 523 1058 1059
f 523 1059 525
f 1059 1060 525
f 525 1060 1061
f 525 1061 526
f 1061 1062 526
f 526 1062 1063
f 526 1063 527
f 527 1063 1064
f 527 1064 1037
f 941 1049 936
f 936 1049 1048
f 936 1048 937
f 937 1048 1047
f 937 1047 939
f 939 1047 1046
f 939 1046 932
f 1044 928 1043
f 1043 928 935
f 1043 935 1046
f 1046 935 933
f 1046 933 932
f 429 926 1045
f 1045 926 930
f 1045 930 1044
f 1044 930 929
f 1044 929 928
f 1061 1065 1066
f 1061 1066 1062
f 1062 1066 1067
f 1062 1067 1063
f 1065 1061 1068
f 1068 1061 1060
f 1068 1060 1069
f 1069 1060 1059
f 1069 1059 1070
f 1070 1059 1058
f 1070 1058 1071
f 1071 1058 347
f 347 1058 1055
f 347 1055 412
f 1055 1056 412
f 412 1056 1057
f 412 1057 410
f 410 1057 1054
f 410 1054 407
f 941 942 1049
f 1049 942 943
f 1049 943 1052
f 1052 943 389
f 1052 389 1051
f 1051 389 388
f 1051 388 1050
f 1050 388 407
f 1050 407 1053
f 1053 407 1054
f 429 1045 430
f 430 1045 1042
f 430 1042 432
f 1042 1041 432
f 432 1041 1038
f 432 1038 434
f 1067 1072 1063
f 1063 1072 355
f 1063 355 1064
f 1064 355 442
f 1064 442 1037
f 1037 442 440
f 1037 440 1040
f 1040 440 434
f 1040 434 1039
f 1039 434 1038
f 263 248 1072
f 1072 248 247
f 1072 247 355
f 264 1066 262
f 262 1066 250
f 263 1072 264
f 264 1072 1067
f 264 1067 1066
f 250 1066 251
f 251 1066 1065
f 251 1065 259
f 259 1065 1068
f 259 1068 260
f 260 1068 324
f 324 1068 1069
f 324 1069 253
f 1071 347 258
f 1071 258 1070
f 258 257 1070
f 1070 257 256
f 1070 256 1069
f 1069 256 254
f 1069 254 253

