# https://github.com/mikedh/trimesh

o link_arm_l1_0.obj
v -0.01550000 -0.01470000 -0.00900000
v -0.01700000 -0.01470000 -0.00900000
v -0.01539300 -0.01510000 -0.00900000
v -0.01669200 -0.01585000 -0.00900000
v -0.01510000 -0.01539300 -0.00900000
v -0.01585000 -0.01669200 -0.00900000
v -0.01470000 -0.01550000 -0.00900000
v -0.01470000 -0.01700000 -0.00900000
v 0.01470000 -0.01550000 -0.00900000
v 0.01470000 -0.01700000 -0.00900000
v 0.01510000 -0.01539300 -0.00900000
v 0.01585000 -0.01669200 -0.00900000
v 0.01539300 -0.01510000 -0.00900000
v 0.01669200 -0.01585000 -0.00900000
v 0.01550000 -0.01470000 -0.00900000
v 0.01700000 -0.01470000 -0.00900000
v 0.01550000 0.01470000 -0.00900000
v 0.01700000 0.01470000 -0.00900000
v 0.01539300 0.01510000 -0.00900000
v 0.01669200 0.01585000 -0.00900000
v 0.01510000 0.01539300 -0.00900000
v 0.01585000 0.01669200 -0.00900000
v 0.01470000 0.01550000 -0.00900000
v 0.01470000 0.01700000 -0.00900000
v -0.01470000 0.01550000 -0.00900000
v -0.01470000 0.01700000 -0.00900000
v -0.01510000 0.01539300 -0.00900000
v -0.01585000 0.01669200 -0.00900000
v -0.01539300 0.01510000 -0.00900000
v -0.01669200 0.01585000 -0.00900000
v -0.01550000 0.01470000 -0.00900000
v -0.01700000 0.01470000 -0.00900000
v 0.01550000 0.01470000 -0.22650000
v 0.01700000 0.01470000 -0.22650000
v 0.01550000 -0.01470000 -0.22650000
v 0.01700000 -0.01470000 -0.22650000
v 0.01539300 -0.01510000 -0.22650000
v 0.01669200 -0.01585000 -0.22650000
v 0.01510000 -0.01539300 -0.22650000
v 0.01585000 -0.01669200 -0.22650000
v 0.01470000 -0.01550000 -0.22650000
v 0.01470000 -0.01700000 -0.22650000
v -0.01470000 -0.01550000 -0.22650000
v -0.01470000 -0.01700000 -0.22650000
v -0.01510000 -0.01539300 -0.22650000
v -0.01585000 -0.01669200 -0.22650000
v -0.01539300 -0.01510000 -0.22650000
v -0.01669200 -0.01585000 -0.22650000
v -0.01550000 -0.01470000 -0.22650000
v -0.01700000 -0.01470000 -0.22650000
v -0.01550000 0.01470000 -0.22650000
v -0.01700000 0.01470000 -0.22650000
v -0.01539300 0.01510000 -0.22650000
v -0.01669200 0.01585000 -0.22650000
v -0.01510000 0.01539300 -0.22650000
v -0.01585000 0.01669200 -0.22650000
v -0.01470000 0.01550000 -0.22650000
v -0.01470000 0.01700000 -0.22650000
v 0.01470000 0.01550000 -0.22650000
v 0.01470000 0.01700000 -0.22650000
v 0.01510000 0.01539300 -0.22650000
v 0.01585000 0.01669200 -0.22650000
v 0.01539300 0.01510000 -0.22650000
v 0.01669200 0.01585000 -0.22650000
f 33 34 35
f 35 34 36
f 35 36 37
f 37 36 38
f 37 38 39
f 39 38 40
f 39 40 41
f 41 40 42
f 41 42 43
f 43 42 44
f 43 44 45
f 45 44 46
f 45 46 47
f 47 46 48
f 47 48 49
f 49 48 50
f 49 50 51
f 51 50 52
f 51 52 53
f 53 52 54
f 53 54 55
f 55 54 56
f 55 56 57
f 57 56 58
f 57 58 59
f 59 58 60
f 59 60 61
f 61 60 62
f 61 62 63
f 63 62 64
f 63 64 33
f 33 64 34
f 26 58 56
f 26 56 28
f 28 56 54
f 28 54 30
f 30 54 52
f 30 52 32
f 2 32 50
f 50 32 52
f 2 50 48
f 2 48 4
f 4 48 46
f 4 46 6
f 6 46 44
f 6 44 8
f 10 8 42
f 42 8 44
f 10 42 40
f 10 40 12
f 12 40 38
f 12 38 14
f 14 38 36
f 14 36 16
f 18 16 34
f 34 16 36
f 18 34 64
f 18 64 20
f 20 64 62
f 20 62 22
f 22 62 60
f 22 60 24
f 26 24 58
f 58 24 60
f 7 43 5
f 5 43 45
f 5 45 3
f 3 45 47
f 3 47 1
f 1 47 49
f 7 9 43
f 43 9 41
f 15 35 13
f 13 35 37
f 13 37 11
f 11 37 39
f 11 39 9
f 9 39 41
f 15 17 35
f 35 17 33
f 23 59 21
f 21 59 61
f 21 61 19
f 19 61 63
f 19 63 17
f 17 63 33
f 23 25 59
f 59 25 57
f 31 51 29
f 29 51 53
f 29 53 27
f 27 53 55
f 27 55 25
f 25 55 57
f 31 1 51
f 51 1 49

