# https://github.com/mikedh/trimesh

o link_arm_l0_0.obj
v -0.01012500 -0.01712500 0.01925000
v -0.01012500 0.01712500 0.01925000
v -0.01012500 -0.01862500 0.01925000
v 0.03125000 -0.01862500 0.01925000
v -0.01232500 -0.01833500 0.01925000
v -0.01437500 -0.01748600 0.01925000
v -0.01613500 -0.01613500 0.01925000
v -0.01717400 -0.01487500 0.01925000
v -0.01717400 0.01487500 0.01925000
v -0.01613500 0.01613500 0.01925000
v -0.01437500 0.01748600 0.01925000
v -0.01232500 0.01833500 0.01925000
v -0.01012500 0.01862500 0.01925000
v 0.03125000 0.01862500 0.01925000
v -0.01193700 0.01688600 0.01925000
v -0.01526700 0.01487500 0.01925000
v -0.01507500 0.01507500 0.01925000
v -0.01362500 0.01618700 0.01925000
v -0.01526700 -0.01487500 0.01925000
v -0.01507500 -0.01507500 0.01925000
v -0.01362500 -0.01618700 0.01925000
v -0.01193700 -0.01688600 0.01925000
v -0.01012500 0.01712500 0.02375000
v 0.00025000 0.01712500 0.02375000
v 0.00025000 0.01462500 0.02375000
v -0.01688600 0.01193700 0.02375000
v -0.01618700 0.01362500 0.02375000
v -0.01712500 0.01012500 0.02375000
v -0.01507500 0.01507500 0.02375000
v -0.01362500 0.01618700 0.02375000
v -0.01193700 0.01688600 0.02375000
v -0.01712500 -0.01012500 0.02375000
v 0.00025000 -0.01462500 0.02375000
v 0.01725000 0.01462500 0.02375000
v 0.01725000 -0.01462500 0.02375000
v 0.00025000 -0.01712500 0.02375000
v -0.01012500 -0.01712500 0.02375000
v -0.01688600 -0.01193700 0.02375000
v -0.01193700 -0.01688600 0.02375000
v -0.01362500 -0.01618700 0.02375000
v -0.01507500 -0.01507500 0.02375000
v -0.01618700 -0.01362500 0.02375000
v 0.01725000 -0.00337500 0.02275000
v 0.01725000 -0.00337500 0.01925000
v 0.01725000 -0.01462500 0.01925000
v 0.01725000 0.01462500 0.01925000
v 0.01725000 0.00862500 0.01925000
v 0.01725000 0.00862500 0.02275000
v 0.00025000 0.01712500 0.01925000
v 0.00025000 -0.01712500 0.01925000
v 0.00025000 0.01687500 0.01925000
v 0.01980000 0.01312500 0.01925000
v 0.01999400 0.01385000 0.01925000
v 0.02325000 0.01862500 0.01925000
v 0.02052500 0.01438100 0.01925000
v 0.02125000 0.01457500 0.01925000
v 0.02197500 0.01438100 0.01925000
v 0.01999400 0.01240000 0.01925000
v 0.02052500 0.01186900 0.01925000
v 0.02225000 0.00862500 0.01925000
v 0.02125000 0.01167500 0.01925000
v 0.02275000 0.00875900 0.01925000
v 0.02197500 0.01186900 0.01925000
v 0.02250600 0.01240000 0.01925000
v 0.02325000 0.00962500 0.01925000
v 0.02270000 0.01312500 0.01925000
v 0.02250600 0.01385000 0.01925000
v 0.02311600 0.00912500 0.01925000
v -0.01526700 -0.01487500 0.02225000
v -0.01618700 -0.01362500 0.02225000
v -0.01688600 -0.01193700 0.02225000
v -0.01712500 -0.01012500 0.02225000
v -0.01712500 0.01012500 0.02225000
v -0.01862500 -0.01012500 0.02325000
v -0.01862500 0.01012500 0.02325000
v -0.01862500 -0.01012500 0.02225000
v -0.01862500 0.01012500 0.02225000
v -0.01611300 -0.01611300 0.02325000
v -0.01663600 -0.01558900 0.02325000
v -0.01717400 -0.01487500 0.02225000
v -0.01748600 -0.01437500 0.02225000
v -0.01748600 -0.01437500 0.02325000
v -0.01833500 -0.01232500 0.02225000
v -0.01811200 -0.01303200 0.02325000
v -0.01849600 -0.01160100 0.02325000
v -0.01830400 -0.01231700 0.02325000
v -0.01558900 -0.01663600 0.02325000
v -0.01437500 -0.01748600 0.02325000
v -0.01303200 -0.01811200 0.02325000
v -0.01231700 -0.01830400 0.02325000
v -0.01160100 -0.01849600 0.02325000
v -0.01012500 -0.01862500 0.02325000
v 0.00025000 -0.01687500 0.01925000
v 0.02125000 -0.01457500 0.01925000
v 0.02197500 -0.01438100 0.01925000
v 0.02197500 -0.01186900 0.01925000
v 0.02125000 -0.01167500 0.01925000
v 0.02525000 -0.00337500 0.01925000
v 0.02052500 -0.01438100 0.01925000
v 0.02250600 -0.01385000 0.01925000
v 0.02270000 -0.01312500 0.01925000
v 0.02250600 -0.01240000 0.01925000
v 0.02052500 -0.01186900 0.01925000
v 0.01999400 -0.01240000 0.01925000
v 0.01980000 -0.01312500 0.01925000
v 0.01999400 -0.01385000 0.01925000
v 0.02825000 0.01862500 0.01925000
v 0.02825000 -0.00037500 0.01925000
v 0.02802200 -0.00152300 0.01925000
v 0.02737100 -0.00249600 0.01925000
v 0.02639800 -0.00314700 0.01925000
v -0.01526700 0.01487500 0.02225000
v -0.01688600 0.01193700 0.02225000
v -0.01618700 0.01362500 0.02225000
v -0.01833500 0.01232500 0.02225000
v -0.01849600 0.01160100 0.02325000
v -0.01830400 0.01231700 0.02325000
v -0.01811200 0.01303200 0.02325000
v -0.01748600 0.01437500 0.02225000
v -0.01748600 0.01437500 0.02325000
v -0.01717400 0.01487500 0.02225000
v -0.01012500 0.01862500 0.02325000
v -0.01160100 0.01849600 0.02325000
v -0.01303200 0.01811200 0.02325000
v -0.01231700 0.01830400 0.02325000
v -0.01663600 0.01558900 0.02325000
v -0.01611300 0.01611300 0.02325000
v -0.01558900 0.01663600 0.02325000
v -0.01437500 0.01748600 0.02325000
v 0.03125000 -0.01862500 0.02325000
v 0.03125000 0.01862500 0.02325000
v 0.03125000 0.01835700 0.02425000
v 0.03125000 -0.01835700 0.02425000
v 0.02325000 0.01862500 0.02175000
v 0.02825000 0.01862500 0.02175000
v 0.02393100 -0.01251300 0.02525000
v 0.02393100 -0.01373700 0.02525000
v 0.03025000 -0.01662500 0.02525000
v 0.02340000 -0.01484000 0.02525000
v 0.01856900 0.01373700 0.02525000
v 0.01910000 0.01484000 0.02525000
v -0.01012500 0.01662500 0.02525000
v 0.02340000 0.01484000 0.02525000
v 0.02393100 0.01373700 0.02525000
v 0.03025000 0.01662500 0.02525000
v 0.02393100 0.01251300 0.02525000
v 0.02340000 -0.01141000 0.02525000
v 0.02244300 -0.01064700 0.02525000
v 0.02125000 -0.01037500 0.02525000
v 0.02005700 0.01560300 0.02525000
v 0.02125000 0.01587500 0.02525000
v 0.02244300 0.01560300 0.02525000
v 0.02244300 -0.01560300 0.02525000
v 0.02125000 -0.01587500 0.02525000
v -0.01012500 -0.01662500 0.02525000
v 0.02005700 -0.01560300 0.02525000
v 0.01910000 -0.01484000 0.02525000
v 0.02340000 0.01141000 0.02525000
v 0.02244300 0.01064700 0.02525000
v 0.02005700 -0.01064700 0.02525000
v 0.02125000 0.01037500 0.02525000
v 0.01910000 -0.01141000 0.02525000
v 0.01856900 -0.01251300 0.02525000
v 0.02005700 0.01064700 0.02525000
v 0.01910000 0.01141000 0.02525000
v 0.01856900 0.01251300 0.02525000
v -0.01662500 0.01012500 0.02525000
v -0.01662500 -0.01012500 0.02525000
v -0.01652600 -0.01125400 0.02525000
v -0.01623300 -0.01234800 0.02525000
v -0.01575400 -0.01337500 0.02525000
v -0.01623300 0.01234800 0.02525000
v -0.01652600 0.01125400 0.02525000
v -0.01234800 0.01623300 0.02525000
v -0.01337500 0.01575400 0.02525000
v -0.01510400 -0.01430300 0.02525000
v -0.01430300 -0.01510400 0.02525000
v -0.01337500 -0.01575400 0.02525000
v -0.01234800 -0.01623300 0.02525000
v -0.01125400 -0.01652600 0.02525000
v 0.01856900 -0.01373700 0.02525000
v -0.01125400 0.01652600 0.02525000
v -0.01430300 0.01510400 0.02525000
v -0.01510400 0.01430300 0.02525000
v -0.01575400 0.01337500 0.02525000
v 0.03025500 0.01663200 0.02525000
v 0.03025500 -0.01663200 0.02525000
v 0.03046400 0.01692900 0.02522700
v 0.03063300 0.01717100 0.02517400
v 0.03077000 -0.01737500 0.02510400
v 0.03092300 -0.01761100 0.02499000
v 0.03095600 0.01766600 0.02495600
v 0.03062800 -0.01716700 0.02516100
v 0.03093100 0.01762500 0.02498200
v 0.03092300 0.01761100 0.02499000
v 0.03046400 -0.01692900 0.02522700
v 0.03063500 0.01717500 0.02517300
v 0.03116600 -0.01805200 0.02465100
v 0.03116600 0.01805200 0.02465100
v 0.03098800 0.01771800 0.02492500
v 0.03093000 -0.01762400 0.02498100
v 0.03095200 -0.01766300 0.02495300
v 0.03112000 -0.01795500 0.02474400
v 0.03120000 0.01813300 0.02456300
v 0.03117300 0.01806900 0.02463200
v 0.03117100 -0.01806800 0.02463200
v 0.03124400 -0.01829200 0.02435600
v -0.01012500 0.01833800 0.02424000
v -0.01012500 0.01824300 0.02442600
v -0.01012500 0.01780100 0.02486800
v -0.01012500 0.01761500 0.02496300
v -0.01012500 0.01724300 0.02515200
v -0.01012500 0.01852700 0.02386800
v -0.01145800 0.01768400 0.02486800
v -0.01839900 0.01158400 0.02386800
v -0.01158400 0.01839900 0.02386800
v -0.01299900 0.01802000 0.02386800
v -0.01432600 0.01740100 0.02386800
v -0.01656100 0.01552600 0.02386800
v -0.01552600 0.01656100 0.02386800
v -0.01740100 0.01432600 0.02386800
v -0.01802000 0.01299900 0.02386800
v -0.01153500 0.01812000 0.02442600
v -0.01290100 0.01775300 0.02442600
v -0.01418400 0.01715500 0.02442600
v -0.01534300 0.01634400 0.02442600
v -0.01634400 0.01534300 0.02442600
v -0.01715500 0.01418400 0.02442600
v -0.01775300 0.01290100 0.02442600
v -0.01812000 0.01153500 0.02442600
v -0.01275000 0.01733800 0.02486800
v -0.01396300 0.01677200 0.02486800
v -0.01505900 0.01600500 0.02486800
v -0.01600500 0.01505900 0.02486800
v -0.01677200 0.01396300 0.02486800
v -0.01733800 0.01275000 0.02486800
v -0.01768400 0.01145800 0.02486800
v -0.01136100 0.01713500 0.02515200
v -0.01852700 0.01012500 0.02386800
v -0.01833800 0.01012500 0.02424000
v -0.01824300 0.01012500 0.02442600
v -0.01780100 0.01012500 0.02486800
v -0.01761500 0.01012500 0.02496300
v -0.01255900 0.01681400 0.02515200
v -0.01368400 0.01628900 0.02515200
v -0.01470000 0.01557800 0.02515200
v -0.01557800 0.01470000 0.02515200
v -0.01628900 0.01368400 0.02515200
v -0.01681400 0.01255900 0.02515200
v -0.01713500 0.01136100 0.02515200
v -0.01724300 0.01012500 0.02515200
v -0.01852700 -0.01012500 0.02386800
v -0.01833800 -0.01012500 0.02424000
v -0.01824300 -0.01012500 0.02442600
v -0.01780100 -0.01012500 0.02486800
v -0.01761500 -0.01012500 0.02496300
v -0.01724300 -0.01012500 0.02515200
v -0.01768400 -0.01145800 0.02486800
v -0.01158400 -0.01839900 0.02386800
v -0.01839900 -0.01158400 0.02386800
v -0.01802000 -0.01299900 0.02386800
v -0.01740100 -0.01432600 0.02386800
v -0.01552600 -0.01656100 0.02386800
v -0.01656100 -0.01552600 0.02386800
v -0.01432600 -0.01740100 0.02386800
v -0.01299900 -0.01802000 0.02386800
v -0.01812000 -0.01153500 0.02442600
v -0.01775300 -0.01290100 0.02442600
v -0.01715500 -0.01418400 0.02442600
v -0.01634400 -0.01534300 0.02442600
v -0.01534300 -0.01634400 0.02442600
v -0.01418400 -0.01715500 0.02442600
v -0.01290100 -0.01775300 0.02442600
v -0.01153500 -0.01812000 0.02442600
v -0.01733800 -0.01275000 0.02486800
v -0.01677200 -0.01396300 0.02486800
v -0.01600500 -0.01505900 0.02486800
v -0.01505900 -0.01600500 0.02486800
v -0.01396300 -0.01677200 0.02486800
v -0.01275000 -0.01733800 0.02486800
v -0.01145800 -0.01768400 0.02486800
v -0.01713500 -0.01136100 0.02515200
v -0.01012500 -0.01852700 0.02386800
v -0.01012500 -0.01833800 0.02424000
v -0.01012500 -0.01824300 0.02442600
v -0.01012500 -0.01780100 0.02486800
v -0.01012500 -0.01761500 0.02496300
v -0.01681400 -0.01255900 0.02515200
v -0.01628900 -0.01368400 0.02515200
v -0.01557800 -0.01470000 0.02515200
v -0.01470000 -0.01557800 0.02515200
v -0.01368400 -0.01628900 0.02515200
v -0.01255900 -0.01681400 0.02515200
v -0.01136100 -0.01713500 0.02515200
v -0.01012500 -0.01724300 0.02515200
v 0.02187900 -0.01443100 0.02395000
v 0.02196200 -0.01436500 0.02395000
v 0.02238400 -0.01402900 0.02395000
v 0.02247700 -0.01383600 0.02395000
v 0.02266400 -0.01344800 0.02395000
v 0.02266400 -0.01312500 0.02395000
v 0.02266400 -0.01280200 0.02395000
v 0.02247700 -0.01241400 0.02395000
v 0.02238400 -0.01222100 0.02395000
v 0.02196200 -0.01188500 0.02395000
v 0.02187900 -0.01181900 0.02395000
v 0.02125000 -0.01167500 0.02395000
v 0.02062100 -0.01181900 0.02395000
v 0.02053800 -0.01188500 0.02395000
v 0.02011600 -0.01222100 0.02395000
v 0.02002300 -0.01241400 0.02395000
v 0.01983600 -0.01280200 0.02395000
v 0.01983600 -0.01312500 0.02395000
v 0.01983600 -0.01344800 0.02395000
v 0.02002300 -0.01383600 0.02395000
v 0.02011600 -0.01402900 0.02395000
v 0.02053800 -0.01436500 0.02395000
v 0.02062100 -0.01443100 0.02395000
v 0.02125000 -0.01457500 0.02395000
v 0.02187900 0.01181900 0.02395000
v 0.02196200 0.01188500 0.02395000
v 0.02238400 0.01222100 0.02395000
v 0.02247700 0.01241400 0.02395000
v 0.02266400 0.01280200 0.02395000
v 0.02266400 0.01312500 0.02395000
v 0.02266400 0.01344800 0.02395000
v 0.02247700 0.01383600 0.02395000
v 0.02238400 0.01402900 0.02395000
v 0.02196200 0.01436500 0.02395000
v 0.02187900 0.01443100 0.02395000
v 0.02125000 0.01457500 0.02395000
v 0.02062100 0.01443100 0.02395000
v 0.02053800 0.01436500 0.02395000
v 0.02011600 0.01402900 0.02395000
v 0.02002300 0.01383600 0.02395000
v 0.01983600 0.01344800 0.02395000
v 0.01983600 0.01312500 0.02395000
v 0.01983600 0.01280200 0.02395000
v 0.02002300 0.01241400 0.02395000
v 0.02011600 0.01222100 0.02395000
v 0.02053800 0.01188500 0.02395000
v 0.02062100 0.01181900 0.02395000
v 0.02125000 0.01167500 0.02395000
v 0.02825000 -0.00037500 0.02175000
v 0.01825000 -0.00337500 0.02175000
v 0.01825000 0.00862500 0.02175000
v 0.02525000 -0.00337500 0.02175000
v 0.02225000 0.00862500 0.02175000
v 0.02639800 -0.00314700 0.02175000
v 0.02325000 0.00962500 0.02175000
v 0.02311600 0.00912500 0.02175000
v 0.02737100 -0.00249600 0.02175000
v 0.02802200 -0.00152300 0.02175000
v 0.02275000 0.00875900 0.02175000
v 0.01754300 -0.00337500 0.02204300
v 0.01732600 -0.00337500 0.02236700
v 0.01786700 -0.00337500 0.02182600
v 0.01786700 0.00862500 0.02182600
v 0.01754300 0.00862500 0.02204300
v 0.01732600 0.00862500 0.02236700
v 0.00025000 0.01462500 0.01545000
f 23 24 25
f 26 27 28
f 28 27 29
f 28 29 30
f 30 31 28
f 28 31 23
f 28 23 32
f 32 23 25
f 32 25 33
f 33 25 34
f 33 34 35
f 33 36 32
f 32 36 37
f 32 37 38
f 38 37 39
f 39 40 38
f 38 40 41
f 38 41 42
f 43 44 45
f 34 46 47
f 47 48 34
f 34 48 43
f 34 43 35
f 35 43 45
f 24 23 49
f 49 23 2
f 50 1 36
f 36 1 37
f 41 69 42
f 42 69 70
f 42 70 38
f 38 70 71
f 38 71 32
f 32 71 72
f 37 1 39
f 39 1 22
f 39 22 40
f 40 22 21
f 40 21 41
f 41 21 20
f 41 20 69
f 69 20 19
f 73 28 72
f 72 28 32
f 74 75 76
f 76 75 77
f 7 78 79
f 8 7 80
f 80 7 79
f 80 79 81
f 81 79 82
f 81 82 83
f 83 82 84
f 74 76 85
f 85 76 83
f 85 83 86
f 86 83 84
f 78 7 87
f 87 7 6
f 87 6 88
f 88 6 89
f 89 6 5
f 89 5 90
f 90 5 91
f 91 5 3
f 91 3 92
f 112 16 17
f 28 73 26
f 26 73 113
f 26 113 27
f 27 113 114
f 27 114 29
f 114 112 29
f 29 112 17
f 29 17 30
f 30 17 18
f 30 18 31
f 31 18 15
f 31 15 23
f 23 15 2
f 77 75 115
f 115 75 116
f 116 117 115
f 115 117 118
f 115 118 119
f 119 118 120
f 119 120 121
f 10 9 121
f 122 13 123
f 123 13 12
f 11 124 12
f 12 124 125
f 12 125 123
f 120 126 121
f 121 126 127
f 121 127 10
f 10 127 128
f 10 128 11
f 11 128 129
f 11 129 124
f 92 3 130
f 130 3 4
f 134 54 13
f 131 14 107
f 107 135 131
f 131 135 134
f 131 134 122
f 122 134 13
f 136 137 138
f 138 137 139
f 140 141 142
f 143 144 145
f 145 144 146
f 136 138 147
f 147 138 145
f 147 145 148
f 148 145 146
f 148 146 149
f 141 150 142
f 142 150 151
f 142 151 145
f 145 151 152
f 145 152 143
f 139 153 138
f 138 153 154
f 138 154 155
f 155 154 156
f 155 156 157
f 146 158 149
f 149 158 159
f 149 159 160
f 160 159 161
f 160 161 162
f 162 161 163
f 163 161 164
f 163 164 165
f 166 167 165
f 165 167 168
f 168 169 165
f 165 169 170
f 165 170 171
f 140 172 166
f 166 172 173
f 166 173 167
f 174 175 172
f 171 176 165
f 165 176 177
f 165 177 163
f 163 177 178
f 163 178 179
f 179 180 163
f 163 180 155
f 163 155 181
f 181 155 157
f 140 142 172
f 172 142 182
f 172 182 174
f 175 183 172
f 172 183 184
f 172 184 185
f 145 138 186
f 186 138 187
f 186 187 188
f 188 187 189
f 190 191 192
f 190 192 193
f 193 192 194
f 193 194 195
f 187 196 189
f 189 196 193
f 189 193 197
f 197 193 195
f 198 199 200
f 191 201 192
f 192 201 202
f 192 202 200
f 200 202 203
f 200 203 198
f 133 132 204
f 199 198 205
f 205 206 204
f 204 206 207
f 204 207 133
f 192 208 194
f 194 208 209
f 209 210 194
f 194 210 211
f 194 211 195
f 192 200 208
f 208 200 199
f 208 199 205
f 142 145 212
f 212 145 186
f 186 188 212
f 212 188 189
f 212 189 211
f 211 189 197
f 211 197 195
f 205 204 208
f 208 204 132
f 208 132 213
f 213 132 131
f 213 131 122
f 211 210 214
f 215 116 75
f 213 122 123
f 208 213 216
f 216 213 123
f 216 123 217
f 217 123 125
f 128 218 129
f 129 218 217
f 129 217 124
f 124 217 125
f 127 219 128
f 128 219 220
f 128 220 218
f 127 126 219
f 219 126 120
f 219 120 221
f 221 120 118
f 221 118 222
f 222 118 215
f 215 118 117
f 215 117 116
f 210 209 223
f 223 209 208
f 208 216 223
f 223 216 217
f 223 217 224
f 224 217 218
f 224 218 225
f 225 218 220
f 225 220 226
f 226 220 219
f 226 219 227
f 227 219 221
f 227 221 228
f 228 221 222
f 228 222 229
f 229 222 215
f 229 215 230
f 210 223 214
f 214 223 224
f 214 224 231
f 231 224 225
f 231 225 232
f 232 225 226
f 232 226 233
f 233 226 227
f 233 227 234
f 234 227 228
f 234 228 235
f 235 228 229
f 235 229 236
f 236 229 230
f 236 230 237
f 142 212 238
f 238 212 211
f 75 239 215
f 215 239 240
f 215 240 230
f 230 240 241
f 230 241 237
f 237 241 242
f 237 242 243
f 211 214 238
f 238 214 231
f 238 231 244
f 244 231 232
f 244 232 245
f 245 232 233
f 245 233 246
f 246 233 234
f 246 234 247
f 247 234 235
f 247 235 248
f 248 235 236
f 248 236 249
f 249 236 237
f 249 237 250
f 250 237 243
f 250 243 251
f 142 238 182
f 182 238 244
f 182 244 174
f 174 244 245
f 174 245 175
f 175 245 246
f 175 246 183
f 183 246 247
f 183 247 184
f 184 247 248
f 184 248 185
f 185 248 249
f 185 249 172
f 172 249 250
f 172 250 173
f 173 250 251
f 173 251 167
f 75 74 239
f 239 74 252
f 239 252 240
f 240 252 253
f 240 253 241
f 241 253 254
f 241 254 242
f 242 254 255
f 242 255 243
f 243 255 256
f 243 256 251
f 251 256 257
f 251 257 167
f 167 257 168
f 256 255 258
f 259 91 92
f 252 74 85
f 253 252 260
f 260 252 85
f 260 85 261
f 261 85 86
f 79 262 82
f 82 262 261
f 82 261 84
f 84 261 86
f 78 263 79
f 79 263 264
f 79 264 262
f 78 87 263
f 263 87 88
f 263 88 265
f 265 88 89
f 265 89 266
f 266 89 259
f 259 89 90
f 259 90 91
f 255 254 267
f 267 254 253
f 253 260 267
f 267 260 261
f 267 261 268
f 268 261 262
f 268 262 269
f 269 262 264
f 269 264 270
f 270 264 263
f 270 263 271
f 271 263 265
f 271 265 272
f 272 265 266
f 272 266 273
f 273 266 259
f 273 259 274
f 255 267 258
f 258 267 268
f 258 268 275
f 275 268 269
f 275 269 276
f 276 269 270
f 276 270 277
f 277 270 271
f 277 271 278
f 278 271 272
f 278 272 279
f 279 272 273
f 279 273 280
f 280 273 274
f 280 274 281
f 168 257 282
f 282 257 256
f 92 283 259
f 259 283 284
f 259 284 274
f 274 284 285
f 274 285 281
f 281 285 286
f 281 286 287
f 256 258 282
f 282 258 275
f 282 275 288
f 288 275 276
f 288 276 289
f 289 276 277
f 289 277 290
f 290 277 278
f 290 278 291
f 291 278 279
f 291 279 292
f 292 279 280
f 292 280 293
f 293 280 281
f 293 281 294
f 294 281 287
f 294 287 295
f 168 282 169
f 169 282 288
f 169 288 170
f 170 288 289
f 170 289 171
f 171 289 290
f 171 290 176
f 176 290 291
f 176 291 177
f 177 291 292
f 177 292 178
f 178 292 293
f 178 293 179
f 179 293 294
f 179 294 180
f 180 294 295
f 180 295 155
f 191 190 287
f 287 190 193
f 287 193 295
f 138 155 187
f 187 155 295
f 187 295 196
f 196 295 193
f 284 206 198
f 286 202 287
f 287 202 201
f 287 201 191
f 198 203 284
f 284 203 202
f 284 202 285
f 285 202 286
f 92 130 283
f 283 130 133
f 283 133 284
f 284 133 207
f 284 207 206
f 112 121 16
f 16 121 9
f 69 80 70
f 70 80 81
f 70 81 71
f 71 81 83
f 71 83 72
f 72 83 76
f 72 76 73
f 73 76 77
f 73 77 113
f 113 77 115
f 113 115 114
f 114 115 119
f 114 119 112
f 112 119 121
f 8 80 19
f 19 80 69
f 296 95 94
f 296 297 95
f 95 297 298
f 95 298 100
f 298 299 100
f 100 299 300
f 100 300 101
f 300 301 101
f 101 301 302
f 101 302 102
f 302 303 102
f 102 303 304
f 102 304 96
f 304 305 96
f 96 305 306
f 96 306 97
f 306 307 97
f 97 307 308
f 97 308 103
f 308 309 103
f 103 309 310
f 103 310 104
f 310 311 104
f 104 311 312
f 104 312 105
f 312 313 105
f 105 313 314
f 105 314 106
f 314 315 106
f 106 315 316
f 106 316 99
f 316 317 99
f 99 317 318
f 99 318 94
f 94 318 319
f 94 319 296
f 157 156 317
f 317 316 157
f 157 316 315
f 157 315 181
f 315 314 181
f 181 314 313
f 181 313 163
f 313 312 163
f 163 312 311
f 163 311 162
f 311 310 162
f 162 310 309
f 162 309 160
f 160 309 308
f 160 308 149
f 149 308 307
f 149 307 148
f 307 306 148
f 148 306 305
f 148 305 147
f 305 304 147
f 147 304 303
f 147 303 136
f 303 302 136
f 136 302 301
f 136 301 137
f 301 300 137
f 137 300 299
f 137 299 139
f 299 298 139
f 139 298 297
f 139 297 153
f 153 297 296
f 153 296 154
f 154 296 319
f 154 319 156
f 156 319 318
f 156 318 317
f 320 63 61
f 320 321 63
f 63 321 322
f 63 322 64
f 322 323 64
f 64 323 324
f 64 324 66
f 324 325 66
f 66 325 326
f 66 326 67
f 326 327 67
f 67 327 328
f 67 328 57
f 328 329 57
f 57 329 330
f 57 330 56
f 330 331 56
f 56 331 332
f 56 332 55
f 332 333 55
f 55 333 334
f 55 334 53
f 334 335 53
f 53 335 336
f 53 336 52
f 336 337 52
f 52 337 338
f 52 338 58
f 338 339 58
f 58 339 340
f 58 340 59
f 340 341 59
f 59 341 342
f 59 342 61
f 61 342 343
f 61 343 320
f 165 164 341
f 341 340 165
f 165 340 339
f 165 339 166
f 339 338 166
f 166 338 337
f 166 337 140
f 337 336 140
f 140 336 335
f 140 335 141
f 335 334 141
f 141 334 333
f 141 333 150
f 150 333 332
f 150 332 151
f 151 332 331
f 151 331 152
f 331 330 152
f 152 330 329
f 152 329 143
f 329 328 143
f 143 328 327
f 143 327 144
f 327 326 144
f 144 326 325
f 144 325 146
f 325 324 146
f 146 324 323
f 146 323 158
f 323 322 158
f 158 322 321
f 158 321 159
f 159 321 320
f 159 320 161
f 161 320 343
f 161 343 164
f 164 343 342
f 164 342 341
f 344 135 108
f 108 135 107
f 345 346 347
f 347 346 348
f 347 348 349
f 134 135 350
f 350 135 344
f 350 344 351
f 352 349 353
f 353 349 348
f 353 348 344
f 344 348 354
f 344 354 351
f 65 54 350
f 350 54 134
f 355 44 356
f 356 44 43
f 347 98 345
f 345 98 44
f 345 44 357
f 357 44 355
f 358 359 47
f 47 359 360
f 47 360 48
f 60 348 47
f 47 348 346
f 47 346 358
f 348 60 62
f 348 62 354
f 354 62 68
f 354 68 351
f 351 68 65
f 351 65 350
f 344 108 353
f 353 108 109
f 353 109 352
f 352 109 110
f 352 110 349
f 349 110 111
f 349 111 347
f 347 111 98
f 346 345 357
f 346 357 358
f 358 357 355
f 358 355 359
f 359 355 356
f 359 356 360
f 360 356 43
f 360 43 48
f 45 33 35
f 93 50 36
f 33 93 36
f 24 49 25
f 25 49 51
f 25 51 361
f 34 25 46
f 46 25 361

